<?xml version="1.0" encoding="utf-8"?>
<svg version="1.1" id="Layer_5_copy" xmlns="http://www.w3.org/2000/svg" xmlns:xlink="http://www.w3.org/1999/xlink" x="0px"
	 y="0px" viewBox="0 0 360 156" style="enable-background:new 0 0 360 156;" xml:space="preserve">
<style type="text/css">
	.st0{fill:#4F4A54;}
	.st1{fill:#FE8A2C;}
</style>
<g>
	<g>
		<path class="st0" d="M301.3,1.2c0,0-219.9,0-229.7,0s-17,10.3-17,10.3S5.3,75.4,3.2,78.3c-3,4-2.1,14.1,0,17
			c5.9,8,34.5,47.1,35.8,48.8c1.4,1.7,7.7,11.1,16.5,11.1s278.7,0,283.5,0c8.7,0,19.6-20.2,19.6-25.2s-0.3-58.9-0.3-64.5
			c0-3.7-2.6-8.4-5.1-11.5c-2.3-2.8-35.3-44-38.2-47.5C312.5,3.6,306.8,1.2,301.3,1.2z"/>
	</g>
	<g>
		<g>
			<path d="M302,3c4.5,0,10,3.3,12,5.7c2.9,3.4,35.3,44,38,47.4c3.1,3.9,4.9,7.5,4.9,9.7v64.5c0,4-10.8,22.7-17.2,22.7H55.1
				c-4.5,0-9.3-3.4-14.5-10c-0.2-0.2-0.3-0.4-0.4-0.5c-0.7-0.9-10.1-13.7-18.4-25C14.5,107.6,7,97.4,4.3,93.7
				C3,92,2.1,83.3,4.3,80.4c2.1-2.8,51.1-66.1,51.6-66.7l0.1-0.1l0.1-0.1C56.1,13.4,63.2,3,71.3,3H302 M302,0c0,0-220.7,0-230.7,0
				c-9.9,0-17.8,11.8-17.8,11.8S4.1,75.7,1.9,78.6c-2.9,4-2.1,14.1,0,17c6,8,34.6,47.1,36,48.8s8.5,11.7,17.3,11.7s279.9,0,284.7,0
				c8.8,0,20.2-20.8,20.2-25.7s0-58.9,0-64.5c0-3.7-3.1-8.4-5.6-11.5c-2.3-2.8-35.2-44-38.1-47.5C313.9,3.9,307.6,0,302,0L302,0z"/>
		</g>
	</g>
	<g>
		<g>
			<g>
				<path class="st1" d="M116.3,137l-0.8,5H112l2.1-13H138l-0.5,3h-20.4l-0.3,2.1h17.3l-0.5,3h-17.3V137z"/>
			</g>
		</g>
		<g>
			<g>
				<path class="st1" d="M143.5,129l-1.6,10H162l-0.5,3H138l2.1-13H143.5z"/>
			</g>
		</g>
		<g>
			<g>
				<path class="st1" d="M170,129l-2.3,13H164l2.3-13H170z"/>
			</g>
		</g>
		<g>
			<g>
				<path class="st1" d="M174.7,137l-0.8,5h-3.4l2.1-13h19.9c0.9,0,1.7,0.3,2.3,0.9c0.6,0.6,0.8,1.3,0.7,2.1l-0.3,2
					c-0.1,0.8-0.6,1.5-1.3,2.1c-0.8,0.6-1.6,0.9-2.6,0.9H174.7z M175.5,132l-0.3,2.1h16.5l0.3-2.1H175.5z"/>
			</g>
		</g>
		<g>
			<g>
				<path class="st1" d="M200.7,137l-0.8,5h-3.4l2.1-13h19.9c0.9,0,1.7,0.3,2.3,0.9c0.6,0.6,0.8,1.3,0.7,2.1l-0.3,2
					c-0.1,0.8-0.6,1.5-1.3,2.1c-0.8,0.6-1.6,0.9-2.6,0.9H200.7z M201.5,132l-0.3,2.1h16.5l0.3-2.1H201.5z"/>
			</g>
		</g>
		<g>
			<g>
				<path class="st1" d="M247.4,139l-0.5,3H223l2.1-13H249l-0.5,3h-20.4l-0.3,2.1h17.9l-0.5,3h-17.9l-0.3,2h20.4V139z"/>
			</g>
		</g>
		<g>
			<g>
				<path class="st1" d="M253.7,137l-0.8,5h-3.4l2.1-13h19.9c0.9,0,1.7,0.3,2.3,0.9c0.6,0.6,0.8,1.3,0.7,2.1l-0.3,2
					c-0.1,0.4-0.3,0.8-0.7,1.1c-0.3,0.3-0.7,0.4-1.1,0.4c0.4,0,0.7,0.2,1,0.4c0.3,0.3,0.4,0.6,0.3,1l-0.8,5h-3.4l0.8-5h-16.6V137z
					 M270.7,134l0.3-2.1h-16.5l-0.3,2.1H270.7z"/>
			</g>
		</g>
	</g>
	<g>
		<g>
			<path d="M221.3,98H92.7C89,98,86,95,86,91.3V25.7c0-3.7,3-6.7,6.7-6.7h128.6c3.7,0,6.7,3,6.7,6.7v65.6C228,95,225,98,221.3,98z
				 M92.7,20c-3.1,0-5.7,2.6-5.7,5.7v65.6c0,3.1,2.6,5.7,5.7,5.7h128.6c3.1,0,5.7-2.6,5.7-5.7V25.7c0-3.1-2.6-5.7-5.7-5.7H92.7z"/>
		</g>
	</g>
	<g>
		<g>
			<path d="M274.5,94C254.9,94,239,78.1,239,58.5S254.9,23,274.5,23S310,38.9,310,58.5S294.1,94,274.5,94z M274.5,24
				c-19,0-34.5,15.5-34.5,34.5S255.5,93,274.5,93S309,77.5,309,58.5S293.5,24,274.5,24z"/>
		</g>
	</g>
	<g>
		<g>
			<path d="M326.6,94c-6.3,0-11.5-5.2-11.5-11.5S320.2,71,326.6,71s11.5,5.2,11.5,11.5S332.9,94,326.6,94z M326.5,72
				c-5.8,0-10.5,4.7-10.5,10.5S320.7,93,326.5,93S337,88.3,337,82.5S332.3,72,326.5,72z"/>
		</g>
	</g>
	<g>
		<circle class="st1" cx="326.5" cy="82.5" r="10.5"/>
	</g>
	<g>
		<g>
			<path d="M328.8,88h-6.4c-0.3,0-0.5-0.2-0.5-0.5v-2c0-0.3,0.2-0.5,0.5-0.5h5.9c0.6,0,1-0.2,1.3-0.6s0.5-0.9,0.5-1.4
				c0-1-0.5-1.9-1.7-1.9H324v1.5c0,0.2-0.1,0.4-0.3,0.5c-0.2,0.1-0.4,0-0.5-0.1l-2.9-3c-0.2-0.2-0.2-0.5,0-0.7l2.8-3
				c0.1-0.1,0.4-0.2,0.5-0.1c0.2,0.1,0.3,0.3,0.3,0.5V78h4.9c2.8,0,4.2,2.5,4.2,5c0,1.3-0.4,2.5-1,3.4C331.2,87.4,330.1,88,328.8,88
				z M322.9,87h5.9c1,0,1.8-0.4,2.4-1.2c0.5-0.7,0.8-1.7,0.8-2.8c0-1.9-1-4-3.2-4h-5.4c-0.3,0-0.5-0.2-0.5-0.5v-0.8l-1.7,1.8
				l1.7,1.8v-0.8c0-0.3,0.2-0.5,0.5-0.5h4.9c1.8,0,2.7,1.5,2.7,2.9c0,0.8-0.2,1.5-0.7,2c-0.5,0.6-1.3,1-2.1,1h-5.4V87H322.9z"/>
		</g>
	</g>
	<g>
		<circle class="st1" cx="274.5" cy="58.5" r="34.5"/>
	</g>
	<g>
		<g>
			<path d="M274.5,70c-6.3,0-11.5-5.2-11.5-11.5S268.2,47,274.5,47S286,52.2,286,58.5C286,64.8,280.8,70,274.5,70z M274.5,48
				c-5.8,0-10.5,4.7-10.5,10.5c0,5.8,4.7,10.5,10.5,10.5S285,64.3,285,58.5S280.3,48,274.5,48z"/>
		</g>
	</g>
	<g>
		<g>
			<path d="M279.2,40h-9.3c-0.4,0-0.8-0.2-0.9-0.5c-0.2-0.3-0.2-0.7,0-1.1l4.7-7.9c0.4-0.7,1.5-0.7,1.9,0l4.7,7.9
				c0.2,0.3,0.2,0.7,0,1.1C279.9,39.8,279.5,40,279.2,40z M274.5,30.9C274.5,30.9,274.4,31,274.5,30.9l-4.7,7.9v0.1c0,0,0,0,0.1,0
				h9.3h0.1v-0.1L274.5,30.9C274.6,31,274.5,30.9,274.5,30.9z"/>
		</g>
	</g>
	<g>
		<g>
			<path d="M274.5,87c-0.4,0-0.8-0.2-1-0.5l-4.7-7.9c-0.2-0.3-0.2-0.7,0-1.1c0.2-0.3,0.6-0.5,0.9-0.5h9.3c0.4,0,0.8,0.2,0.9,0.5
				c0.2,0.3,0.2,0.7,0,1.1l-4.7,7.9C275.3,86.8,274.9,87,274.5,87z M269.9,78C269.8,78,269.8,78,269.9,78c-0.1,0.1-0.1,0.1-0.1,0.2
				l4.7,8.1c0,0.1,0.1,0.1,0.2,0l4.7-8.1v-0.1c0,0,0-0.1-0.1-0.1H269.9z"/>
		</g>
	</g>
	<g>
		<g>
			<path d="M294.1,64.2c-0.2,0-0.4,0-0.5-0.1c-0.3-0.2-0.5-0.6-0.5-0.9v-9.3c0-0.4,0.2-0.8,0.5-0.9c0.3-0.2,0.7-0.2,1.1,0l7.9,4.7
				c0.3,0.2,0.5,0.6,0.5,1s-0.2,0.8-0.5,1l-7.9,4.7C294.4,64.2,294.3,64.2,294.1,64.2z M294.1,53.7C294,53.7,294,53.8,294.1,53.7
				c-0.1,0-0.1,0.1-0.1,0.1v9.3v0.1h0.1l7.9-4.7c0,0,0,0,0-0.1v-0.1L294.1,53.7C294.1,53.8,294.1,53.7,294.1,53.7z"/>
		</g>
	</g>
	<g>
		<g>
			<path d="M254.9,64.2c-0.2,0-0.4,0-0.5-0.1l-7.9-4.7c-0.3-0.2-0.5-0.6-0.5-1s0.2-0.8,0.5-1l7.9-4.7c0.3-0.2,0.7-0.2,1.1,0
				c0.3,0.2,0.5,0.6,0.5,0.9v9.3c0,0.4-0.2,0.8-0.5,0.9C255.3,64.2,255.1,64.2,254.9,64.2z M254.9,53.7
				C254.9,53.7,254.9,53.8,254.9,53.7l-7.9,4.7c0,0,0,0,0,0.1v0.1l7.9,4.7h0.1c0,0,0,0,0-0.1v-9.3C255,53.8,255,53.8,254.9,53.7
				C255,53.8,255,53.7,254.9,53.7z"/>
		</g>
	</g>
	<g>
		<g>
			<path d="M327.5,98H275c-22.4,0-40-17.1-40-39c0-22,17.9-40,40-40c11.1,0,21.7,4.6,29.3,12.8l33.9,40.8c4,4.3,3.9,8.7,3.9,11.3
				v0.6C342,90.7,334.1,98,327.5,98z M275,20c-21.5,0-39,17.5-39,39c0,21.3,17.1,38,39,38h52.5c6,0,13.5-6.9,13.5-12.6v-0.6
				c0-2.5,0.1-6.6-3.6-10.6l-33.9-40.8C296.1,24.5,285.7,20,275,20z"/>
		</g>
	</g>
	<g>
		<g>
			<path d="M339.5,120H70.3c-9.1,0-12.5-3.8-17.7-9.5l-0.6-0.7c-4.9-5.5-11.7-13.5-15.8-18.8c-3.8-4.9-2.3-7.3,0.6-12l0.2-0.3
				c1.6-2.5,11.1-16,20.3-29.1c9.2-13,18.7-26.5,20.5-29.3C82.5,13.1,88.5,10,98,10h199.6c3.6,0,8.8,1.7,12,5.5l0.8,0.9
				C331,41,342.7,55.1,345.3,58.3c4.2,5.3,4.8,7.7,4.8,11.4v39.7C350,114.4,345.7,120,339.5,120z M98,11c-9.1,0-14.9,2.9-19.2,9.8
				C77,23.6,67.4,37.1,58.2,50.2S39.5,76.8,37.9,79.3l-0.2,0.3c-3,4.7-4.1,6.5-0.7,10.8c4,5.2,10.8,13.2,15.7,18.7l0.6,0.7
				c5.1,5.7,8.3,9.2,16.9,9.2h269.2c5.6,0,9.5-5.1,9.5-9.6V69.7c0-3.6-0.7-5.7-4.6-10.8c-2.5-3.2-14.2-17.3-34.8-41.9l-0.8-0.9
				c-2.9-3.5-7.9-5.1-11.2-5.1C297.5,11,98,11,98,11z"/>
		</g>
	</g>
	<g>
		<g>
			<path class="st1" d="M94,23H220c2.2,0,4,1.9,4,4.2v61.6c0,2.3-1.8,4.2-4,4.2H94c-2.2,0-4-1.9-4-4.2V27.2C90,24.9,91.8,23,94,23z"
				/>
			<path d="M220,93.5H94c-2.5,0-4.5-2.1-4.5-4.7V27.2c0-2.6,2-4.7,4.5-4.7H220c2.5,0,4.5,2.1,4.5,4.7v61.6
				C224.5,91.4,222.5,93.5,220,93.5z M94,23.5c-1.9,0-3.5,1.7-3.5,3.7v61.6c0,2,1.6,3.7,3.5,3.7H220c1.9,0,3.5-1.7,3.5-3.7V27.2
				c0-2-1.6-3.7-3.5-3.7H94z"/>
		</g>
	</g>
</g>
</svg>
