<?xml version="1.0" encoding="utf-8"?>
<!-- Generator: Adobe Illustrator 27.0.0, SVG Export Plug-In . SVG Version: 6.00 Build 0)  -->
<svg version="1.1" xmlns="http://www.w3.org/2000/svg" xmlns:xlink="http://www.w3.org/1999/xlink" x="0px" y="0px"
	 viewBox="0 0 739.66 192.16" style="enable-background:new 0 0 739.66 192.16;" xml:space="preserve">
<style type="text/css">
	.st0{fill:#FF8603;}
	path,polygon,rect{fill:#FFFFFF}
</style>
<g id="text">
	<g>
		<path d="M211.3,172.79c0,1.84,0,4.03,0,5.86c5.83,0,11.78,0,17.61,0c0-1.84,0-4.03,0-5.86c-0.73,0-2.2,0-2.93,0
			C221.12,172.79,216.14,172.79,211.3,172.79z"/>
		<path d="M199.56,172.79c0,1.84,0,4.03,0,5.86c1.84,0,4.03,0,5.87,0c0-1.84,0-4.03,0-5.86c-0.73,0-2.2,0-2.93,0
			C201.76,172.79,200.29,172.79,199.56,172.79z"/>
		<path d="M187.82,172.79c0,1.84,0,4.03,0,5.86c1.84,0,4.03,0,5.87,0c0-1.84,0-4.03,0-5.86c-0.73,0-2.2,0-2.93,0
			C190.02,172.79,188.55,172.79,187.82,172.79z"/>
		<path d="M217.16,166.93c0-1.84,0-4.03,0-5.86c-1.84,0-4.03,0-5.87,0c0,1.84,0,4.03,0,5.86c0.73,0,2.2,0,2.93,0
			C214.96,166.93,216.43,166.93,217.16,166.93z"/>
		<path d="M199.56,161.06c0,1.84,0,4.03,0,5.86c1.84,0,4.03,0,5.87,0c0-1.84,0-4.03,0-5.86c-0.73,0-2.2,0-2.93,0
			C201.76,161.06,200.29,161.06,199.56,161.06z"/>
		<path d="M187.82,161.06c0,1.84,0,4.03,0,5.86c1.84,0,4.03,0,5.87,0c0-1.84,0-4.03,0-5.86c-0.73,0-2.2,0-2.93,0
			C190.02,161.06,188.55,161.06,187.82,161.06z"/>
		<path d="M176.08,161.06c0,1.84,0,4.03,0,5.86c1.84,0,4.03,0,5.87,0c0-1.84,0-4.03,0-5.86c-0.73,0-2.2,0-2.93,0
			C178.28,161.06,176.81,161.06,176.08,161.06z"/>
		<path d="M562,161.06c-0.27,0-0.54,0-0.81,0c-114.64,0-223.49,0-338.15,0c0,1.84,0,4.03,0,5.86c4.35,0,8.86,0,13.21,0
			c109.29,0,212.93,0,322.04,0c1.73,0,3.45,0,5.18,0h1.15l2.9-5.86H562z"/>
		<polygon points="555.38,172.79 234.77,172.79 234.77,178.65 552.47,178.65 558,178.65 558.8,178.65 561.71,172.79 
			557.38,172.79 		"/>
	</g>
	<g>
		<path d="M211.3,149.34c0,1.84,0,4.03,0,5.86c1.84,0,4.03,0,5.87,0c0-1.84,0-4.03,0-5.86c-0.73,0-2.2,0-2.93,0
			C213.5,149.34,212.03,149.34,211.3,149.34z"/>
		<path d="M199.56,149.34c0,1.84,0,4.03,0,5.86c1.84,0,4.03,0,5.87,0c0-1.84,0-4.03,0-5.86c-0.73,0-2.2,0-2.93,0
			C201.76,149.34,200.29,149.34,199.56,149.34z"/>
		<path d="M187.82,149.34c0,1.84,0,4.03,0,5.86c1.84,0,4.03,0,5.87,0c0-1.84,0-4.03,0-5.86c-0.73,0-2.2,0-2.93,0
			C190.02,149.34,188.55,149.34,187.82,149.34z"/>
		<path d="M176.08,149.34c0,1.84,0,4.03,0,5.86c1.84,0,4.03,0,5.87,0c0-1.84,0-4.03,0-5.86c-0.73,0-2.2,0-2.93,0
			C178.28,149.34,176.81,149.34,176.08,149.34z"/>
		<path d="M211.3,143.47c-1.84,0-4.03,0-5.87,0c0,1.84,0,4.03,0,5.86c1.84,0,4.03,0,5.87,0c0-0.73,0-2.2,0-2.93
			C211.3,145.68,211.3,144.2,211.3,143.47z"/>
		<path d="M199.56,143.47c-1.84,0-4.03,0-5.87,0c0,1.84,0,4.03,0,5.86c1.84,0,4.03,0,5.87,0c0-0.73,0-2.2,0-2.93
			C199.56,145.68,199.56,144.2,199.56,143.47z"/>
		<path d="M187.82,143.47c-1.84,0-4.03,0-5.87,0c0,1.84,0,4.03,0,5.86c1.84,0,4.03,0,5.87,0c0-0.73,0-2.2,0-2.93
			C187.82,145.68,187.82,144.2,187.82,143.47z"/>
		<path d="M176.08,143.47c-1.84,0-4.03,0-5.87,0c0,1.84,0,4.03,0,5.86c1.84,0,4.03,0,5.87,0c0-0.73,0-2.2,0-2.93
			C176.08,145.68,176.08,144.2,176.08,143.47z"/>
		<path d="M146.73,149.34c1.84,0,4.03,0,5.87,0c0-0.73,0-2.2,0-2.93c0-0.73,0-2.2,0-2.93c-1.84,0-4.03,0-5.87,0
			C146.73,145.31,146.73,147.5,146.73,149.34z"/>
		<path d="M158.47,143.47c0,1.84,0,4.03,0,5.86c1.84,0,4.03,0,5.87,0c0-1.84,0-4.03,0-5.86c-0.73,0-2.2,0-2.93,0
			C160.68,143.47,159.2,143.47,158.47,143.47z"/>
		<path d="M205.43,140.54c0-0.73,0-2.2,0-2.93c-1.84,0-4.03,0-5.87,0c0,1.84,0,4.03,0,5.86c1.84,0,4.03,0,5.87,0
			C205.43,142.74,205.43,141.27,205.43,140.54z"/>
		<path d="M193.69,140.54c0-0.73,0-2.2,0-2.93c-1.84,0-4.03,0-5.87,0c0,1.84,0,4.03,0,5.86c1.84,0,4.03,0,5.87,0
			C193.69,142.74,193.69,141.27,193.69,140.54z"/>
		<path d="M170.21,137.61c-1.84,0-4.03,0-5.87,0c0,1.84,0,4.03,0,5.86c1.84,0,4.03,0,5.87,0c0-0.73,0-2.2,0-2.93
			C170.21,139.81,170.21,138.34,170.21,137.61z"/>
		<path d="M495.96,128.82c-1.84,0-4.03,0-5.87,0c0,1.84,0,4.03,0,5.86c0.73,0,2.2,0,2.93,0c16.62,0,33.27,0,49.89,0
			c0-1.84,0-4.03,0-5.86c1.84,0,4.03,0,5.87,0c0-1.84,0-4.03,0-5.86c-17.6,0-35.23,0-52.82,0
			C495.96,124.79,495.96,126.98,495.96,128.82z"/>
		<path d="M199.56,131.75c0.73,0,2.2,0,2.93,0c0.73,0,2.2,0,2.93,0c0-1.84,0-4.03,0-5.86c-1.84,0-4.03,0-5.87,0
			C199.56,127.72,199.56,129.91,199.56,131.75z"/>
		<path d="M214.23,125.89c-0.73,0-2.2,0-2.93,0c0,1.84,0,5.86,0,5.86h5.87c0-1.84,0-4.03,0-5.86
			C216.43,125.89,214.96,125.89,214.23,125.89z"/>
		<path d="M223.03,131.75c-1.84,0-4.03,0-5.87,0v5.86c1.84,0,4.03,0,5.87,0C223.03,135.78,223.03,133.59,223.03,131.75z"/>
		<path d="M217.16,137.61h-5.87c0,0,0,4.03,0,5.86c1.84,0,4.03,0,5.87,0C217.16,141.64,217.16,139.45,217.16,137.61z"/>
		<path d="M181.95,125.89c0.73,0,2.2,0,2.93,0c0.73,0,2.2,0,2.93,0c0-1.84,0-4.03,0-5.86c-1.84,0-4.03,0-5.87,0
			C181.95,121.86,181.95,124.05,181.95,125.89z"/>
		<path d="M146.73,125.89c1.84,0,4.03,0,5.87,0v-1.47c0-1.31,0-3.09,0-4.4c-1.84,0-4.03,0-5.87,0
			C146.73,121.86,146.73,124.05,146.73,125.89z"/>
		<path d="M199.56,120.02c-1.84,0-4.03,0-5.87,0c0,1.84,0,4.03,0,5.86c1.84,0,4.03,0,5.87,0c0-0.73,0-2.2,0-2.93
			C199.56,122.23,199.56,120.75,199.56,120.02z"/>
		<path d="M170.21,125.89c1.84,0,4.03,0,5.87,0c0-0.73,0-2.2,0-2.93c0-0.73,0-2.2,0-2.93c-1.84,0-4.03,0-5.87,0
			C170.21,121.86,170.21,124.05,170.21,125.89z"/>
		<path d="M208.36,120.02c-0.73,0-2.2,0-2.93,0c0,1.84,0,4.03,0,5.86c1.84,0,4.03,0,5.87,0c0-1.84,0-4.03,0-5.86
			C210.56,120.02,209.09,120.02,208.36,120.02z"/>
		<path d="M158.47,125.89c1.84,0,4.03,0,5.87,0c0-1.84,0-4.03,0-5.86c-0.73,0-2.2,0-2.93,0c-0.73,0-2.2,0-2.93,0
			C158.47,121.86,158.47,124.05,158.47,125.89z"/>
		<path d="M123.26,120.02c0,1.84,0,4.03,0,5.86c1.84,0,4.03,0,5.87,0c0-1.84,0-4.03,0-5.86c-0.73,0-2.2,0-2.93,0
			C125.46,120.02,123.99,120.02,123.26,120.02z"/>
		<path d="M187.82,114.16c0,1.84,0,4.03,0,5.86c0.73,0,2.2,0,2.93,0c0.73,0,2.2,0,2.93,0c0-1.84,0-4.03,0-5.86
			C191.85,114.16,189.66,114.16,187.82,114.16z"/>
		<path d="M217.16,120.02c0-0.73,0-2.2,0-2.93c0-0.73,0-2.2,0-2.93c-1.84,0-4.03,0-5.87,0c0,1.84,0,4.03,0,5.86
			C213.13,120.02,215.33,120.02,217.16,120.02z"/>
		<path d="M205.43,120.02c0-0.73,0-2.2,0-2.93c0-0.73,0-2.2,0-2.93c-1.84,0-4.03,0-5.87,0c0,1.84,0,4.03,0,5.86
			C201.4,120.02,203.59,120.02,205.43,120.02z"/>
		<path d="M199.56,114.16c0-1.84,0-4.03,0-5.86c-1.84,0-4.03,0-5.87,0c0,1.84,0,4.03,0,5.86c0.73,0,2.2,0,2.93,0
			C197.35,114.16,198.83,114.16,199.56,114.16z"/>
		<path d="M164.34,112.7c0-1.31,0-3.09,0-4.4c-1.84,0-4.03,0-5.87,0c0,1.84,0,4.03,0,5.86c1.84,0,4.03,0,5.87,0V112.7z"/>
		<path d="M223.03,111.23c0-0.73,0-2.2,0-2.93c-1.84,0-4.03,0-5.87,0c0,1.84,0,4.03,0,5.86c1.84,0,4.03,0,5.87,0
			C223.03,113.43,223.03,111.96,223.03,111.23z"/>
		<path d="M211.3,111.23c0-0.73,0-2.2,0-2.93c-1.84,0-4.03,0-5.87,0c0,1.84,0,4.03,0,5.86c1.84,0,4.03,0,5.87,0
			C211.3,113.43,211.3,111.96,211.3,111.23z"/>
		<path d="M187.82,108.3c-1.84,0-4.03,0-5.87,0c0,1.84,0,4.03,0,5.86c1.84,0,4.03,0,5.87,0c0-0.73,0-2.2,0-2.93
			C187.82,110.5,187.82,109.03,187.82,108.3z"/>
		<path d="M606.01,78.99c-100.27,0-200.54,0-300.8,0c0,1.84,0,4.03,0,5.86c-1.84,0-4.03,0-5.87,0c0-1.84,0-4.03,0-5.86
			c-5.83,0-11.78,0-17.61,0c0,1.84,0,4.03,0,5.86c-1.84,0-4.03,0-5.87,0c0-1.84,0-4.03,0-5.86c-1.84,0-4.03,0-5.87,0
			c0,1.84,0,4.03,0,5.86c-1.84,0-4.03,0-5.87,0c0-1.84,0-4.03,0-5.86c-1.84,0-4.03,0-5.87,0c0,1.84,0,4.03,0,5.86
			c-1.84,0-4.03,0-5.87,0c0,1.84,0,4.03,0,5.86c1.84,0,4.03,0,5.87,0c0,1.84,0,4.03,0,5.86c-1.84,0-4.03,0-5.87,0
			c0-1.84,0-4.03,0-5.86c-1.84,0-4.03,0-5.87,0c0,1.84,0,4.03,0,5.86c-1.84,0-4.03,0-5.87,0c0,1.84,0,4.03,0,5.86
			c1.84,0,4.03,0,5.87,0c0,1.84,0,4.03,0,5.86c-1.84,0-4.03,0-5.87,0c0-1.84,0-4.03,0-5.86c-1.84,0-4.03,0-5.87,0
			c0,1.84,0,4.03,0,5.86c-1.84,0-4.03,0-5.87,0c0,1.84,0,4.03,0,5.86c1.84,0,4.03,0,5.87,0c0,1.84,0,4.03,0,5.86
			c-1.84,0-4.03,0-5.87,0c0-1.84,0-4.03,0-5.86c-1.84,0-4.03,0-5.87,0c0,1.84,0,4.03,0,5.86c-1.84,0-4.03,0-5.87,0
			c0,1.84,0,4.03,0,5.86c1.84,0,4.03,0,5.87,0c0,1.84,0,4.03,0,5.86c1.84,0,4.03,0,5.87,0c0-1.84,0-4.03,0-5.86
			c1.84,0,4.03,0,5.87,0c0,1.84,0,4.03,0,5.86c-1.84,0-4.03,0-5.87,0c0,1.84,0,4.03,0,5.86c1.84,0,4.03,0,5.87,0
			c0,1.84,0,4.03,0,5.86c-1.84,0-4.03,0-5.87,0c0-1.84,0-4.03,0-5.86c-1.84,0-4.03,0-5.87,0c0,1.84,0,4.03,0,5.86
			c-1.84,0-4.03,0-5.87,0c0,1.84,0,4.03,0,5.86c1.84,0,4.03,0,5.87,0c0,1.84,0,4.03,0,5.86c1.84,0,4.03,0,5.87,0
			c0-1.84,0-4.03,0-5.86c1.84,0,4.03,0,5.87,0c0,1.84,0,4.03,0,5.86c1.84,0,4.03,0,5.87,0c0-1.84,0-4.03,0-5.86
			c1.84,0,4.03,0,5.87,0c0,1.84,0,4.03,0,5.86c1.84,0,4.03,0,5.87,0c0-1.84,0-4.03,0-5.86c1.84,0,4.03,0,5.87,0
			c0,1.84,0,4.03,0,5.86c101.94,0,203.88,0,305.82,0c0.01,0,0.02,0,0.03,0c1.74,0,3.49,0,5.23,0h1.07l26.89-54.23l10.89-21.95h-2.16
			C606.01,79.01,606.01,79,606.01,78.99z M246.51,143.47c-1.84,0-4.03,0-5.87,0v-1.47c0-1.31,0-3.09,0-4.4c1.84,0,4.03,0,5.87,0
			C246.51,139.45,246.51,141.64,246.51,143.47z M246.51,131.75c-1.84,0-4.03,0-5.87,0v5.85h-5.85v-5.85h5.85v-1.47
			c0-1.31,0-3.09,0-4.4c1.84,0,4.03,0,5.87,0C246.51,127.72,246.51,129.91,246.51,131.75z M246.51,120.02c-1.84,0-4.03,0-5.87,0
			v-1.47c0-1.31,0-3.09,0-4.4c1.84,0,4.03,0,5.87,0C246.51,116,246.51,118.19,246.51,120.02z M252.37,137.6h-5.85v-5.85h5.85V137.6z
			 M258.25,131.75c-1.84,0-4.03,0-5.87,0v-1.47c0-1.31,0-3.09,0-4.4c1.84,0,4.03,0,5.87,0
			C258.25,127.72,258.25,129.91,258.25,131.75z M258.25,120.02c-1.84,0-4.03,0-5.87,0c0-1.84,0-4.03,0-5.86c1.84,0,4.03,0,5.87,0
			C258.25,116,258.25,118.19,258.25,120.02z M258.25,108.3c-1.84,0-4.03,0-5.87,0v-1.47c0-1.31,0-3.09,0-4.4c1.84,0,4.03,0,5.87,0
			C258.25,104.27,258.25,106.46,258.25,108.3z M269.99,143.47c-1.84,0-4.03,0-5.87,0v-1.47c0-1.31,0-3.09,0-4.4
			c1.84,0,4.03,0,5.87,0C269.99,139.45,269.99,141.64,269.99,143.47z M269.99,120.02c-1.84,0-4.03,0-5.87,0c0-1.84,0-4.03,0-5.86
			h1.47c1.31,0,3.1,0,4.4,0C269.99,116,269.99,118.19,269.99,120.02z M269.99,108.3c-1.84,0-4.03,0-5.87,0c0-1.84,0-4.03,0-5.86
			c1.84,0,4.03,0,5.87,0C269.99,104.27,269.99,106.46,269.99,108.3z M269.99,96.57c-1.84,0-4.03,0-5.87,0v-1.47c0-1.31,0-3.09,0-4.4
			c1.84,0,4.03,0,5.87,0C269.99,92.55,269.99,94.74,269.99,96.57z M281.73,131.75c-1.84,0-4.03,0-5.87,0c0-1.84,0-4.03,0-5.86h1.47
			c1.31,0,3.1,0,4.4,0C281.73,127.72,281.73,129.91,281.73,131.75z M281.73,108.3c-1.84,0-4.03,0-5.87,0c0-1.84,0-4.03,0-5.86h1.47
			c1.31,0,3.1,0,4.4,0C281.73,104.27,281.73,106.46,281.73,108.3z M287.6,90.71c1.84,0,4.03,0,5.87,0c0,1.84,0,4.03,0,5.86
			c-1.84,0-4.03,0-5.87,0C287.6,94.74,287.6,92.55,287.6,90.71z M366.83,140.54c-1.84,0-4.03,0-5.87,0c0,1.84,0,4.03,0,5.86
			c-22.98,0-45.99,0-68.96,0v-1.47c0-3.35,0-6.91,0-10.26c1.31,0,3.1,0,4.4,0c0-3.85,0-7.87,0-11.73c1.84,0,4.03,0,5.87,0
			c0-3.85,0-7.87,0-11.73c1.84,0,4.03,0,5.87,0c0-3.85,0-7.87,0-11.73c1.84,0,4.03,0,5.87,0c0-3.85,0-7.87,0-11.73
			c3.86,0,7.88,0,11.74,0c0,5.82,0,11.76,0,17.59c-1.84,0-4.03,0-5.87,0c0,3.85,0,7.87,0,11.73c-1.84,0-4.03,0-5.87,0
			c0,3.85,0,7.87,0,11.73c-1.84,0-4.03,0-5.87,0c0,1.84,0,4.03,0,5.86c19.55,0,39.14,0,58.69,0
			C366.83,136.52,366.83,138.71,366.83,140.54z M466.61,128.82c-1.84,0-4.03,0-5.87,0c0,3.85,0,7.87,0,11.73c-1.84,0-4.03,0-5.87,0
			c0,1.84,0,4.03,0,5.86c-3.86,0-7.88,0-11.74,0v-1.47c0-3.35,0-6.91,0-10.26c1.84,0,4.03,0,5.87,0c0-3.85,0-7.87,0-11.73
			c-15.64,0-31.32,0-46.95,0c0,1.84,0,4.03,0,5.86c-1.84,0-4.03,0-5.87,0c0,3.85,0,7.87,0,11.73c-1.84,0-4.03,0-5.87,0
			c0,1.84,0,4.03,0,5.86c-3.86,0-7.88,0-11.74,0c0-3.85,0-7.87,0-11.73c1.84,0,4.03,0,5.87,0c0-3.85,0-7.87,0-11.73
			c1.84,0,4.03,0,5.87,0c0-3.85,0-7.87,0-11.73c1.84,0,4.03,0,5.87,0c0-3.85,0-7.87,0-11.73c1.84,0,4.03,0,5.87,0
			c0-3.85,0-7.87,0-11.73c25.42,0,50.88,0,76.3,0c0,5.82,0,11.76,0,17.59c-1.84,0-4.03,0-5.87,0c0,3.85,0,7.87,0,11.73
			c-1.84,0-4.03,0-5.87,0C466.61,120.94,466.61,124.97,466.61,128.82z M560.52,128.82c0,3.85,0,7.87,0,11.73c-1.84,0-4.03,0-5.87,0
			c0,1.84,0,4.03,0,5.86c-27.38,0-54.79,0-82.17,0v-1.47c0-3.35,0-6.91,0-10.26c1.84,0,4.03,0,5.87,0c0-3.85,0-7.87,0-11.73
			c1.84,0,4.03,0,5.87,0c0-3.85,0-7.87,0-11.73c1.84,0,4.03,0,5.87,0c0-3.85,0-7.87,0-11.73c1.84,0,4.03,0,5.87,0
			c0-3.85,0-7.87,0-11.73c23.47,0,46.96,0,70.43,0c0,5.82,0,11.76,0,17.59c-1.84,0-4.03,0-5.87,0c0,1.84,0,4.03,0,5.86
			c-1.84,0-4.03,0-5.87,0c0,1.84,0,4.03,0,5.86c3.86,0,7.88,0,11.74,0c0,3.85,0,7.87,0,11.73
			C564.55,128.82,562.36,128.82,560.52,128.82z"/>
		<path d="M507.7,105.37c-1.84,0-4.03,0-5.87,0c0,1.84,0,4.03,0,5.86c0.73,0,2.2,0,2.93,0c12.7,0,25.45,0,38.15,0
			c0-1.84,0-4.03,0-5.86c1.84,0,4.03,0,5.87,0c0-1.84,0-4.03,0-5.86c-13.68,0-27.41,0-41.09,0
			C507.7,101.34,507.7,103.53,507.7,105.37z"/>
		<path d="M413.79,105.37c-1.84,0-4.03,0-5.87,0c0,1.84,0,4.03,0,5.86c14.17,0,28.38,0,42.55,0c1.31,0,3.1,0,4.4,0
			c0-1.84,0-4.03,0-5.86c1.84,0,4.03,0,5.87,0c0-1.84,0-4.03,0-5.86c-15.64,0-31.32,0-46.95,0
			C413.79,101.34,413.79,103.53,413.79,105.37z"/>
		<path d="M176.08,108.3c-0.73,0-2.2,0-2.93,0c-0.73,0-2.2,0-2.93,0c0,1.84,0,4.03,0,5.86c1.84,0,4.03,0,5.87,0
			C176.08,112.33,176.08,110.14,176.08,108.3z"/>
		<path d="M228.9,105.37c0-0.73,0-2.2,0-2.93c-1.84,0-4.03,0-5.87,0c0,1.84,0,4.03,0,5.86c1.84,0,4.03,0,5.87,0
			C228.9,107.57,228.9,106.1,228.9,105.37z"/>
		<path d="M205.43,102.44c0.73,0,2.2,0,2.93,0c0.73,0,2.2,0,2.93,0c0-1.84,0-4.03,0-5.86c-1.84,0-4.03,0-5.87,0
			C205.43,98.41,205.43,100.6,205.43,102.44z"/>
		<path d="M234.77,99.51c0-0.73,0-2.2,0-2.93c-1.84,0-4.03,0-5.87,0c0,1.84,0,4.03,0,5.86c1.84,0,4.03,0,5.87,0
			C234.77,101.71,234.77,100.24,234.77,99.51z"/>
		<path d="M199.56,99.51c0-0.73,0-2.2,0-2.93c-1.84,0-4.03,0-5.87,0c0,1.84,0,4.03,0,5.86c1.84,0,4.03,0,5.87,0
			C199.56,101.71,199.56,100.24,199.56,99.51z"/>
		<path d="M217.16,96.57c0,0.73,0,2.2,0,2.93s0,2.2,0,2.93c1.84,0,4.03,0,5.87,0c0-1.84,0-4.03,0-5.86
			C221.2,96.57,219,96.57,217.16,96.57z"/>
		<path d="M217.16,90.71c0.73,0,2.2,0,2.93,0c0.73,0,2.2,0,2.93,0c0-1.84,0-4.03,0-5.86c-1.84,0-4.03,0-5.87,0
			C217.16,86.69,217.16,88.88,217.16,90.71z"/>
		<path d="M240.64,90.71c1.84,0,4.03,0,5.87,0c0-1.84,0-4.03,0-5.86c-1.84,0-4.03,0-5.87,0c0-1.84,0-4.03,0-5.86
			c-1.84,0-4.03,0-5.87,0c0,1.84,0,4.03,0,5.86c-1.84,0-4.03,0-5.87,0c0,0.73,0,2.2,0,2.93c0,0.73,0,2.2,0,2.93
			c1.84,0,4.03,0,5.87,0c0,1.84,0,4.03,0,5.86c1.84,0,4.03,0,5.87,0C240.64,94.74,240.64,92.55,240.64,90.71z"/>
		<path d="M211.3,84.85c-1.84,0-4.03,0-5.87,0c0,0.73,0,2.2,0,2.93c0,0.73,0,2.2,0,2.93c1.84,0,4.03,0,5.87,0
			C211.3,88.88,211.3,86.69,211.3,84.85z"/>
		<path d="M252.38,84.85c0-1.84,0-4.03,0-5.86c-1.84,0-4.03,0-5.87,0c0,1.84,0,4.03,0,5.86c0.73,0,2.2,0,2.93,0
			C250.18,84.85,251.65,84.85,252.38,84.85z"/>
		<path d="M205.43,73.12c0-1.84,0-4.03,0-5.86c1.84,0,4.03,0,5.87,0c0-3.85,0-7.87,0-11.73c1.84,0,4.03,0,5.87,0
			c0-3.85,0-7.87,0-11.73c1.84,0,4.03,0,5.87,0c0-3.85,0-7.87,0-11.73c1.84,0,4.03,0,5.87,0c0-5.82,0-11.76,0-17.59
			c-3.86,0-7.88,0-11.74,0c0,3.85,0,7.87,0,11.73c-1.84,0-4.03,0-5.87,0c0,3.85,0,7.87,0,11.73c-1.84,0-4.03,0-5.87,0
			c0,3.85,0,7.87,0,11.73c-1.84,0-4.03,0-5.87,0c0,3.85,0,7.87,0,11.73c-1.84,0-4.03,0-5.87,0c0,3.85,0,7.87,0,11.73
			c0.73,0,2.2,0,2.93,0C199.48,73.12,202.57,73.12,205.43,73.12z"/>
		<path d="M176.08,73.12c0-1.84,0-4.03,0-5.86c1.84,0,4.03,0,5.87,0c0-1.84,0-4.03,0-5.86c-19.55,0-39.14,0-58.69,0
			c0-1.84,0-4.03,0-5.86c1.84,0,4.03,0,5.87,0c0-3.85,0-7.87,0-11.73c1.84,0,4.03,0,5.87,0c0-3.85,0-7.87,0-11.73
			c1.84,0,4.03,0,5.87,0c0-5.82,0-11.76,0-17.59c-3.86,0-7.88,0-11.74,0c0,3.85,0,7.87,0,11.73c-1.84,0-4.03,0-5.87,0
			c0,3.85,0,7.87,0,11.73c-1.84,0-4.03,0-5.87,0c0,3.85,0,7.87,0,11.73c-1.84,0-4.03,0-5.87,0c0,3.85,0,7.87,0,11.73
			c-1.84,0-4.03,0-5.87,0c0,3.85,0,7.87,0,11.73c14.17,0,28.38,0,42.55,0C157.47,73.12,166.81,73.12,176.08,73.12z"/>
		<path d="M228.9,51.14c0,3.35,0,6.91,0,10.26c-1.84,0-4.03,0-5.87,0c0,3.85,0,7.87,0,11.73c3.86,0,7.88,0,11.74,0
			c0-1.84,0-4.03,0-5.86c1.84,0,4.03,0,5.87,0c0-3.85,0-7.87,0-11.73c1.84,0,4.03,0,5.87,0c0-1.84,0-4.03,0-5.86
			c19.55,0,39.14,0,58.69,0c0-1.84,0-4.03,0-5.86c1.84,0,4.03,0,5.87,0c0-1.84,0-4.03,0-5.86c1.84,0,4.03,0,5.87,0
			c0-1.84,0-4.03,0-5.86c1.84,0,4.03,0,5.87,0c0-1.84,0-4.03,0-5.86c1.84,0,4.03,0,5.87,0c0-3.85,0-7.87,0-11.73
			c-27.38,0-54.79,0-82.17,0c0,3.85,0,7.87,0,11.73c-1.84,0-4.03,0-5.87,0c0,3.85,0,7.87,0,11.73c-1.84,0-4.03,0-5.87,0
			c0,3.85,0,7.87,0,11.73c-1.84,0-4.03,0-5.87,0V51.14z M252.38,32.09c1.84,0,4.03,0,5.87,0c0-1.84,0-4.03,0-5.86
			c15.64,0,31.32,0,46.95,0c0,1.84,0,4.03,0,5.86c-1.84,0-4.03,0-5.87,0c0,1.84,0,4.03,0,5.86c-15.64,0-31.32,0-46.95,0
			C252.38,36.11,252.38,33.92,252.38,32.09z"/>
		<path d="M528.24,14.5c0,3.85,0,7.87,0,11.73c-1.84,0-4.03,0-5.87,0c0,3.85,0,7.87,0,11.73c-1.84,0-4.03,0-5.87,0v1.47
			c0,3.35,0,6.91,0,10.26c-1.84,0-4.03,0-5.87,0c0,3.85,0,7.87,0,11.73c-1.84,0-4.03,0-5.87,0c0,3.85,0,7.87,0,11.73
			c3.86,0,7.88,0,11.74,0c0-1.84,0-4.03,0-5.86c1.84,0,4.03,0,5.87,0c0-3.85,0-7.87,0-11.73c1.84,0,4.03,0,5.87,0
			c0-1.84,0-4.03,0-5.86c13.68,0,27.41,0,41.09,0c0,1.84,0,4.03,0,5.86c1.84,0,4.03,0,5.87,0c0,1.84,0,4.03,0,5.86
			c1.84,0,4.03,0,5.87,0c0,1.84,0,4.03,0,5.86c1.84,0,4.03,0,5.87,0c0,1.84,0,4.03,0,5.86c5.83,0,11.78,0,17.61,0
			c0-1.84,0-4.03,0-5.86c-1.84,0-4.03,0-5.87,0c0-1.84,0-4.03,0-5.86c-1.84,0-4.03,0-5.87,0c0-1.84,0-4.03,0-5.86
			c-1.84,0-4.03,0-5.87,0c0-3.85,0-7.87,0-11.73c1.84,0,4.03,0,5.87,0c0-1.84,0-4.03,0-5.86c1.84,0,4.03,0,5.87,0
			c0-1.84,0-4.03,0-5.86c1.84,0,4.03,0,5.87,0c0-1.84,0-4.03,0-5.86c1.84,0,4.03,0,5.87,0c0-1.84,0-4.03,0-5.86
			c1.84,0,4.03,0,5.87,0c0-1.84,0-4.03,0-5.86C586.94,14.5,557.58,14.5,528.24,14.5z M586.93,32.09c-1.84,0-4.03,0-5.87,0
			c0,1.84,0,4.03,0,5.86c-15.64,0-31.32,0-46.95,0c0-1.84,0-4.03,0-5.86c1.84,0,4.03,0,5.87,0c0-1.84,0-4.03,0-5.86
			c15.64,0,31.32,0,46.95,0C586.93,28.06,586.93,30.25,586.93,32.09z"/>
		<path d="M422.59,39.41c0,3.35,0,6.91,0,10.26c-1.84,0-4.03,0-5.87,0c0,3.85,0,7.87,0,11.73c-1.84,0-4.03,0-5.87,0
			c0,3.85,0,7.87,0,11.73c25.42,0,50.88,0,76.3,0c0-1.84,0-4.03,0-5.86c1.84,0,4.03,0,5.87,0c0-1.84,0-4.03,0-5.86
			c-21.51,0-43.05,0-64.56,0c0-1.84,0-4.03,0-5.86c1.84,0,4.03,0,5.87,0c0-1.84,0-4.03,0-5.86c17.6,0,35.23,0,52.82,0
			c0-1.84,0-4.03,0-5.86c1.84,0,4.03,0,5.87,0c0-1.84,0-4.03,0-5.86c-17.6,0-35.23,0-52.82,0c0-1.84,0-4.03,0-5.86
			c1.84,0,4.03,0,5.87,0c0-1.84,0-4.03,0-5.86c21.51,0,43.05,0,64.56,0c0-1.84,0-4.03,0-5.86c1.84,0,4.03,0,5.87,0
			c0-1.84,0-4.03,0-5.86c-27.38,0-54.79,0-82.17,0c0,3.85,0,7.87,0,11.73c-1.84,0-4.03,0-5.87,0c0,3.85,0,7.87,0,11.73
			c-1.84,0-4.03,0-5.87,0V39.41z"/>
		<path d="M328.68,39.41c0,3.35,0,6.91,0,10.26c-1.84,0-4.03,0-5.87,0c0,3.85,0,7.87,0,11.73c-1.84,0-4.03,0-5.87,0
			c0,3.85,0,7.87,0,11.73c3.86,0,7.88,0,11.74,0c0-1.84,0-4.03,0-5.86c1.84,0,4.03,0,5.87,0c0-3.85,0-7.87,0-11.73
			c1.84,0,4.03,0,5.87,0c0-1.84,0-4.03,0-5.86c19.55,0,39.14,0,58.69,0c0-1.84,0-4.03,0-5.86c1.84,0,4.03,0,5.87,0
			c0-1.84,0-4.03,0-5.86c1.84,0,4.03,0,5.87,0c0-1.84,0-4.03,0-5.86c1.84,0,4.03,0,5.87,0c0-1.84,0-4.03,0-5.86
			c1.84,0,4.03,0,5.87,0c0-3.85,0-7.87,0-11.73c-27.38,0-54.79,0-82.17,0c0,3.85,0,7.87,0,11.73c-1.84,0-4.03,0-5.87,0
			c0,3.85,0,7.87,0,11.73c-1.84,0-4.03,0-5.87,0V39.41z M346.29,32.09c1.84,0,4.03,0,5.87,0c0-1.84,0-4.03,0-5.86
			c15.64,0,31.32,0,46.95,0c0,1.84,0,4.03,0,5.86c-1.84,0-4.03,0-5.87,0c0,1.84,0,4.03,0,5.86c-15.64,0-31.32,0-46.95,0
			C346.29,36.11,346.29,33.92,346.29,32.09z"/>
		<path d="M35.22,32.09c1.84,0,4.03,0,5.87,0c0-1.84,0-4.03,0-5.86c22,0,44.03,0,66.03,0c1.31,0,3.1,0,4.4,0c0-1.84,0-4.03,0-5.86
			c1.84,0,4.03,0,5.87,0c0-1.84,0-4.03,0-5.86c-29.34,0-58.7,0-88.04,0c0,3.85,0,7.87,0,11.73c-1.84,0-4.03,0-5.87,0
			c0,3.85,0,7.87,0,11.73c-1.84,0-4.03,0-5.87,0c0,3.85,0,7.87,0,11.73c-1.84,0-4.03,0-5.87,0c0,3.85,0,7.87,0,11.73
			c-1.84,0-4.03,0-5.87,0c0,3.85,0,7.87,0,11.73c-1.84,0-4.03,0-5.87,0C0,76.97,0,81,0,84.85c3.86,0,7.88,0,11.74,0
			c0-1.84,0-4.03,0-5.86c1.84,0,4.03,0,5.87,0c0-3.85,0-7.87,0-11.73c1.84,0,4.03,0,5.87,0c0-3.85,0-7.87,0-11.73
			c1.84,0,4.03,0,5.87,0c0-1.84,0-4.03,0-5.86c17.6,0,35.23,0,52.82,0c0-1.84,0-4.03,0-5.86c1.84,0,4.03,0,5.87,0
			c0-1.84,0-4.03,0-5.86c-17.6,0-35.23,0-52.82,0C35.22,36.11,35.22,33.92,35.22,32.09z"/>
	</g>
</g>
<g id="dolph">
	<g>
		<polygon class="st0" points="611.88,153.73 611.88,152.27 611.32,152.27 610.41,152.27 610.41,153.73 610.71,153.73 		"/>
		<polygon class="st0" points="611.88,152.27 613.34,152.27 613.34,150.8 611.94,150.8 611.88,150.8 611.88,150.95 		"/>
		<polygon class="st0" points="613.34,149.34 613.34,147.87 613.26,147.87 611.88,147.87 611.88,149.34 612.6,149.34 		"/>
		<path class="st0" d="M692.58,106.83c-0.69,0-3.07,0-5.87,0c0-0.73,0-2.2,0-2.93c0-0.73,0-2.2,0-2.93c-1.84,0-4.03,0-5.87,0
			c0,1.84,0,4.03,0,5.86c-2.8,0-5.18,0-5.87,0c0-1.84,0-4.03,0-5.86c-1.84,0-5.87,0-5.87,0c0-1.84,0-4.03,0-5.86
			c-1.84,0-4.03,0-5.87,0c0,0.73,0,2.2,0,2.93s0,2.2,0,2.93c0,0-4.03,0-5.87,0c0-1.84,0-4.03,0-5.86c-1.84,0-4.03,0-5.87,0
			c0,1.84,0,4.03,0,5.86c-1.84,0-4.03,0-5.87,0c0-1.84,0-4.03,0-5.86c-1.84,0-4.03,0-5.87,0c0,1.84,0,4.03,0,5.86
			c-2.1,0-4.41,0-6.56,0c-0.01,0-0.02,0-0.04-0.01l-5.09,10.27h1.41v-1.47h1.47v-1.47c0.67,0,1.94,0,2.71,0c0.08,0,0.15,0,0.22,0
			v-0.36v-1.1c0.22,0,0.45,0,0.67,0c7.09,0,14.26,0,21.34,0v1.47c2.86,0,5.95,0,8.8,0v1.47c0.73,0,2.2,0,2.93,0v1.47
			c0.73,0,2.2,0,2.93,0v1.47c0.73,0,2.2,0,2.93,0v1.47h1.47v1.47h1.47v1.47h1.47v1.47h1.47v1.47h1.47c0,0.73,0,2.2,0,2.93h1.47
			c0,0.73,0,2.2,0,2.93c0.73,0,2.2,0,2.93,0v-1.47c0.73,0,2.2,0,2.93,0v-1.47c0.73,0,2.2,0,2.93,0v-1.47c4.19,0,8.52,0,12.72,0
			c0.16,0,0.33,0,0.49,0v1.02v0.45c0.07,0,0.14,0,0.21,0c1.28,0,2.95,0,4.19,0v1.47h1.47v1.47h1.47c0,1.31,0,3.09,0,4.4h-1.47v1.47
			h-1.36h-0.11v1.47h-1.47v1.47h-1.47v1.47h-1.47v1.47h-1.47v1.47h-1.47v1.47h-1.47v1.47h-1.47v1.47h-1.47v1.47h-1.47v1.47h-1.47
			v1.47h-1.47v1.47h-1.47v1.47h-1.47v1.47h-1.47v1.47c7.31,0,14.69,0,22.01,0c0.49,0,0.98,0,1.47,0v1.47h1.47v1.47h1.47
			c0,2.35,0,4.98,0,7.33h-1.47v1.47h-1.47v1.47h-1.47v1.47h-1.47v1.47h-1.47v1.47c-0.73,0-2.2,0-2.93,0v1.47c-1.31,0-3.1,0-4.4,0
			v1.47c-1.31,0-3.1,0-4.4,0v1.47c-1.31,0-3.1,0-4.4,0v1.02v0.45c-1.84,0-4.03,0-5.87,0c0,1.31,0,3.38,0,4.69
			c-5.34,0-10.8,0-16.14,0v-1.76h1.47v-1.47c0.73,0,2.2,0,2.93,0v-1.47c1.31,0,3.1,0,4.4,0v-0.23v-1.24c1.84,0,4.03,0,5.87,0v-1.47
			c0.37,0,0.92,0,1.47,0s1.1,0,1.47,0c0.37,0,0.92,0,1.47,0c0.55,0,1.1,0,1.47,0v-1.47c0.44,0,0.95,0,1.47,0c0.49,0,0.98,0,1.47,0
			c0.52,0,1.02,0,1.47,0v-1.47c0.44,0,0.95,0,1.47,0c0.49,0,0.98,0,1.47,0c0.52,0,1.02,0,1.47,0v-1.47c0.44,0,0.95,0,1.47,0
			c0.49,0,0.98,0,1.47,0c0.52,0,1.02,0,1.47,0v-1.47c0.37,0,0.92,0,1.47,0c0.55,0,1.1,0,1.47,0v-1.47h1.47v-1.47h1.47v-1.47h1.47
			v-1.47h1.47c0-1.31,0-3.09,0-4.4h-1.47v1.47c-0.73,0-2.2,0-2.93,0v1.47c-1.31,0-3.1,0-4.4,0v1.47c-1.84,0-4.03,0-5.87,0v1.47
			c-2.35,0-4.98,0-7.34,0v1.47c-6.35,0-12.71,0-19.08,0c-6.85,0-13.7,0-20.54,0v-1.47c-0.73,0-2.2,0-2.93,0v-1.47h-1.47v-1.47
			c0.73,0,2.2,0,2.93,0v1.47c0.73,0,2.2,0,2.93,0v1.47c1.84,0,4.03,0,5.87,0v-1.47c1.31,0,3.1,0,4.4,0v-1.47c0.73,0,2.2,0,2.93,0
			v-1.47c0.73,0,2.2,0,2.93,0v-1.47h1.47v-1.47h1.47v-1.47h1.47v-1.47h1.47v-1.47h1.47v-1.47h1.47v-1.47h1.47v-1.47h1.47v-1.47h1.47
			v-1.47h1.47v-1.47h1.47v-1.47h1.47v-1.47h1.47v-1.47h1.47v-1.47h1.47v-1.47h1.47v-1.47h1.47v-1.47c0.73,0,2.2,0,2.93,0v-1.47
			c0.73,0,2.2,0,2.93,0v-1.47c1.31,0,3.1,0,4.4,0v-1.47c1.4,0,3.01,0,4.51,0c0.47,0,0.93,0,1.36,0v-1.47h-1.47v-1.47
			c-0.4,0-0.86,0-1.32,0c-0.05,0-0.1,0-0.15,0c-0.49,0-0.98,0-1.47,0c-0.52,0-1.02,0-1.47,0v-1.47c-0.48,0-0.98,0-1.47,0
			c-0.49,0-0.97,0-1.47,0c-0.49,0-0.98,0-1.47,0s-0.98,0-1.47,0s-0.98,0-1.47,0c-0.49,0-0.98,0-1.47,0c-0.49,0-0.98,0-1.47,0v1.47
			c-0.37,0-0.92,0-1.47,0s-1.1,0-1.47,0v1.47c-0.37,0-0.92,0-1.47,0c-0.55,0-1.1,0-1.47,0v1.47c-0.37,0-0.92,0-1.47,0
			c-0.55,0-1.1,0-1.47,0v1.47c-0.73,0-2.2,0-2.93,0v1.47h-1.47v1.47c-0.73,0-2.2,0-2.93,0v1.47h-1.47v1.47c-0.73,0-2.2,0-2.93,0
			v1.47h-1.47v1.47c-0.73,0-2.2,0-2.93,0v1.47h-1.47v1.47c-0.73,0-2.2,0-2.93,0v1.47c-0.73,0-2.2,0-2.93,0v1.47
			c-0.73,0-2.2,0-2.93,0v1.47c-0.73,0-2.2,0-2.93,0v1.47c-1.31,0-3.1,0-4.4,0c0-3.35,0-6.91,0-10.26h-1.47c0-0.73,0-2.2,0-2.93
			h-1.47v-1.47h-1.47v-1.47h-1.47v-1.47c-0.73,0-2.2,0-2.93,0v-1.47c-4.35,0-8.86,0-13.21,0v1.47c-0.73,0-2.2,0-2.93,0v1.47h-1.47
			v1.47h-1.47v1.47h-1.47c0,0.73,0,2.2,0,2.93h-1.47c0,4.35,0,8.84,0,13.19h1.47c0,0.73,0,2.2,0,2.93h1.47v1.47h1.47v1.47h1.47
			c0-0.73,0-2.2,0-2.93h-1.47v-1.47h-1.47c0-0.73,0-2.2,0-2.93h-1.47c0-3.35,0-6.91,0-10.26h1.47c0-0.73,0-2.2,0-2.93h1.47v-1.47
			h1.47v-1.47h1.47v-1.47c0.73,0,2.2,0,2.93,0v-1.47c3.36,0,6.91,0,10.27,0v1.47c0.73,0,2.2,0,2.93,0v1.47h1.47v1.47h1.47v1.47h1.47
			c0,0.73,0,2.2,0,2.93h1.47c0,3.85,0,7.87,0,11.73c-0.44,0-0.95,0-1.47,0c-1.01,0-2.07,0-2.93,0v-1.47c-1.84,0-4.03,0-5.87,0v1.47
			c-1.31,0-3.1,0-4.4,0v1.47c-0.73,0-2.2,0-2.93,0v1.47h-1.47v1.47h-1.47c0,0.73,0,2.2,0,2.93h-1.47c0,0.73,0,2.2,0,2.93h-1.47
			v-1.47h-1.47v1.47h-1.47v1.47h-1.47v1.47h-1.47v-1.47h-1.47v1.47h-1.47v-1.47h-1.47v-1.47h-1.47v-1.47h-1.47v1.47h-1.47v-1.47
			h1.47v-1.47h-1.47v-1.47h-0.83h-0.63v-1.47h1.19h0.27v-0.72v-0.75h-1.47v-1.47h1.47v-1.47h1.47v-1.47h-1.47v-1.47h1.47v-1.47h1.47
			v1.27v0.19h1.47v-1.47h1.47v1.47h1.47c0-3.01,0-6.12,0-9.18c0-0.85,0-1.71,0-2.55h1.29h0.17c0-0.1,0-0.22,0-0.34
			c0-0.78,0-1.96,0-2.59h1.31h0.16v-0.31v-1.15h0.58h0.89v-1.47h1.47v-1.47c0.73,0,2.2,0,2.93,0v-1.47c5.34,0,10.8,0,16.14,0v1.47
			c0.73,0,2.2,0,2.93,0v-1.47h-1.47v-1.47h1.47v-1.47h-1.47v-1.47h1.47v-1.47h-1.47v-1.47h1.47v-1.47h1.47v-1.47
			c-0.73,0-2.2,0-2.93,0v-1.47c-1.31,0-3.1,0-4.4,0v-1.47c-3.12,0-6.28,0-9.43,0c-1.23,0-2.47,0-3.7,0l-21.78,43.95l-1.25,3.3
			c-0.52,1.37-0.7,2.86-0.52,4.31l0.23,1.86c0.17,1.37,0.65,2.7,1.38,3.87l1.02,1.63c0.78,1.24,1.76,2.33,2.9,3.25l2.83,2.26
			c2.67,2.13,6.02,3.3,9.43,3.3h39.05h12.63h39.05c3.41,0,6.76-1.17,9.43-3.3l2.83-2.26c1.15-0.92,2.12-2.01,2.91-3.25l1.02-1.62
			c0.73-1.17,1.21-2.5,1.38-3.87l0.23-1.85c0.18-1.45,0-2.94-0.52-4.31l-1.25-3.3l-28.31-57.14c-2.2,0-4.59,0-6.75,0
			C692.58,102.81,692.58,105,692.58,106.83z"/>
		<path class="st0" d="M641.22,112.7v1.47c1.31,0,3.1,0,4.4,0v1.47c1.31,0,3.1,0,4.4,0v1.47h1.47v-1.47h1.47v-1.47h1.47v-1.47h1.47
			v-1.47h-1.47v-1.47h-1.47c-0.49,0-0.98,0-1.47,0c-0.49,0-0.98,0-1.47,0s-0.98,0-1.47,0s-0.98,0-1.47,0s-0.98,0-1.47,0
			c-0.49,0-0.98,0-1.47,0c-0.49,0-0.98,0-1.47,0c-0.49,0-0.98,0-1.47,0s-0.98,0-1.47,0s-0.98,0-1.47,0s-0.98,0-1.47,0
			c-0.49,0-0.98,0-1.47,0v1.47c-0.44,0-0.95,0-1.47,0c-0.49,0-0.98,0-1.47,0c-0.16,0-0.31,0-0.46,0c-0.35,0-0.7,0-1.01,0v1.47
			c0.06,0,0.12,0,0.18,0C634.43,112.7,637.92,112.7,641.22,112.7z"/>
		<rect x="619.21" y="161.06" class="st0" width="1.47" height="1.47"/>
		<rect x="616.28" y="161.06" class="st0" width="1.47" height="1.47"/>
		<path class="st0" d="M694.05,159.6c0.73,0,2.2,0,2.93,0v1.47h1.47c0.73,0,2.2,0,2.93,0v-1.47c1.31,0,3.1,0,4.4,0v-1.47
			c0.73,0,2.2,0,2.93,0v-1.47c-0.49,0-0.98,0-1.47,0c-0.49,0-0.98,0-1.47,0s-0.98,0-1.47,0s-0.98,0-1.47,0s-0.98,0-1.47,0
			c-0.49,0-0.98,0-1.47,0c-0.49,0-0.98,0-1.47,0c-0.49,0-0.98,0-1.47,0s-0.98,0-1.47,0s-0.98,0-1.47,0s-0.98,0-1.47,0
			c-0.49,0-0.98,0-1.47,0v1.47c0.73,0,2.2,0,2.93,0V159.6z"/>
		<rect x="620.68" y="159.6" class="st0" width="1.47" height="1.47"/>
		<rect x="617.74" y="159.6" class="st0" width="1.47" height="1.47"/>
		<rect x="614.81" y="159.6" class="st0" width="1.47" height="1.47"/>
		<path class="st0" d="M685.24,158.13c-0.52,0-1.02,0-1.47,0v-1.47c-2.86,0-5.95,0-8.8,0v1.47h-1.47v1.47h-1.47v1.47h-1.47
			c0,0.73,0,2.2,0,2.93c5.83,0,11.78,0,17.61,0v-1.47c2.35,0,4.98,0,7.34,0v-1.47c-0.73,0-2.2,0-2.93,0v-1.47c-0.73,0-2.2,0-2.93,0
			v-1.47h-1.47C687.31,158.13,686.25,158.13,685.24,158.13z"/>
		<rect x="622.15" y="158.13" class="st0" width="1.47" height="1.47"/>
		<rect x="619.21" y="158.13" class="st0" width="1.47" height="1.47"/>
		<rect x="616.28" y="158.13" class="st0" width="1.47" height="1.47"/>
		<rect x="613.34" y="158.13" class="st0" width="1.47" height="1.47"/>
		<rect x="620.68" y="156.67" class="st0" width="1.47" height="1.47"/>
		<rect x="617.74" y="156.67" class="st0" width="1.47" height="1.47"/>
		<rect x="614.81" y="156.67" class="st0" width="1.47" height="1.47"/>
		<rect x="611.88" y="156.67" class="st0" width="1.47" height="1.47"/>
		<rect x="619.21" y="155.2" class="st0" width="1.47" height="1.47"/>
		<rect x="616.28" y="155.2" class="st0" width="1.47" height="1.47"/>
		<rect x="613.34" y="155.2" class="st0" width="1.47" height="1.47"/>
		<rect x="610.41" y="155.2" class="st0" width="1.47" height="1.47"/>
		<rect x="617.74" y="153.73" class="st0" width="1.47" height="1.47"/>
		<rect x="614.81" y="153.73" class="st0" width="1.47" height="1.47"/>
		<rect x="611.88" y="153.73" class="st0" width="1.47" height="1.47"/>
		<rect x="616.28" y="152.27" class="st0" width="1.47" height="1.47"/>
		<rect x="613.34" y="152.27" class="st0" width="1.47" height="1.47"/>
		<path class="st0" d="M625.08,152.27h1.47v1.47h1.47c0-0.73,0-2.2,0-2.93h-1.47c0-0.73,0-2.2,0-2.93h-1.47c0-2.35,0-4.98,0-7.33
			h1.47c0-0.73,0-2.2,0-2.93h1.47v-1.47c0.73,0,2.2,0,2.93,0v-1.47c2.35,0,4.98,0,7.34,0v1.47c0.73,0,2.2,0,2.93,0v1.47h1.47
			c0,0.73,0,2.2,0,2.93h1.47c0,2.35,0,4.98,0,7.33h1.47v1.47h1.47c0-2.85,0-5.94,0-8.79h-1.47c0-0.73,0-2.2,0-2.93h-1.47v-1.47
			h-1.47v-1.47h-1.47v-1.47c-0.73,0-2.2,0-2.93,0v-1.47c-2.35,0-4.98,0-7.34,0v1.47c-0.73,0-2.2,0-2.93,0v1.47h-1.47v1.47h-1.47
			v1.47h-1.47c0,0.73,0,2.2,0,2.93h-1.47c0,2.35,0,4.98,0,7.33h1.47c0,0.73,0,2.2,0,2.93h1.47V152.27z"/>
		<rect x="614.81" y="150.8" class="st0" width="1.47" height="1.47"/>
		<rect x="616.28" y="149.34" class="st0" width="1.47" height="1.47"/>
		<rect x="613.34" y="149.34" class="st0" width="1.47" height="1.47"/>
		<rect x="614.81" y="147.87" class="st0" width="1.47" height="1.47"/>
		<path class="st0" d="M630.95,140.54c0,1.31,0,3.09,0,4.4c1.31,0,3.1,0,4.4,0c0-1.31,0-3.09,0-4.4c-0.73,0-2.2,0-2.93,0H630.95z"/>
		<rect x="645.62" y="122.96" class="st0" width="1.47" height="1.47"/>
		<rect x="645.62" y="120.02" class="st0" width="1.47" height="1.47"/>
		<rect x="647.09" y="118.56" class="st0" width="1.47" height="1.47"/>
		<path class="st0" d="M666.17,117.09h-1.47v1.47h-1.47v1.47h-1.47v1.47h-1.47v1.47h-1.47v1.47h-1.47c0,0.73,0,2.2,0,2.93h-1.47
			c0,1.31,0,3.09,0,4.4h1.47v1.47h1.47v1.47c1.31,0,3.1,0,4.4,0v-1.47c0.73,0,2.2,0,2.93,0v-1.47c0.73,0,2.2,0,2.93,0v-1.47h1.47
			v-1.47c0.73,0,2.2,0,2.93,0v-1.47h1.47v-1.47h1.47v-1.47h1.47c0-0.36,0-0.92,0-1.47c0-0.55,0-1.1,0-1.47h-1.47v-1.47h-1.47v-1.47
			h-1.47v-1.47h-1.47v-1.47h-1.47c-0.44,0-0.95,0-1.47,0c-1.01,0-2.07,0-2.93,0V117.09z M666.17,130.28h-1.47v-1.47h-1.47v-1.47
			h-1.47v-1.47h1.47v1.47h1.47v1.47h1.47V130.28z M669.1,118.56h1.47v1.47h1.47v1.47h1.47v1.47h1.47v1.47h-1.47v-1.47h-1.47v-1.47
			h-1.47v-1.47h-1.47V118.56z M669.1,124.42v1.47h1.47v1.47h-1.47v-1.47h-1.47v-1.47h-1.47v-1.47h-1.47v-1.47h1.47v1.47h1.47v1.47
			H669.1z"/>
		<path class="st0" d="M655.9,117.09h-1.47v1.47h-1.47v1.47h-1.47v1.47h-1.47c0,0.73,0,2.2,0,2.93h-1.47c0,0.73,0,2.2,0,2.93h-1.47
			c0,1.31,0,3.09,0,4.4h1.47v1.47h1.47c0,0.73,0,2.2,0,2.93h1.47c0,3.35,0,6.91,0,10.26h1.47v-1.47c0.73,0,2.2,0,2.93,0v-1.47
			c0.73,0,2.2,0,2.93,0v-1.47c0.73,0,2.2,0,2.93,0v-1.47c0.73,0,2.2,0,2.93,0v-1.47h1.47v-1.47c0.73,0,2.2,0,2.93,0v-1.47h1.47
			v-1.47c0.73,0,2.2,0,2.93,0v-1.47h1.47v-1.47c0.73,0,2.2,0,2.93,0v-1.47h1.47v-1.47h1.47v-1.47c-0.44,0-0.95,0-1.47,0
			c-1.01,0-2.07,0-2.93,0v1.47h-1.47v1.47c-0.73,0-2.2,0-2.93,0v1.47h-1.47v1.47c-0.73,0-2.2,0-2.93,0v1.47c-0.73,0-2.2,0-2.93,0
			v1.47c-2.35,0-4.98,0-7.34,0v-1.47h-1.47v-1.47h-1.47c0-2.35,0-4.98,0-7.33h1.47c0-0.73,0-2.2,0-2.93h1.47v-1.47h1.47v-1.47h1.47
			v-1.47h1.47v-1.47h1.47v-1.47h1.47v-1.47h1.47v-1.47c-0.37,0-0.92,0-1.47,0c-0.55,0-1.1,0-1.47,0c-0.44,0-0.95,0-1.47,0
			c-1.01,0-2.07,0-2.93,0v1.47h-1.47v1.47h-1.47V117.09z"/>
		<path class="st0" d="M686.71,100.97c1.84,0,4.03,0,5.87,0c0-1.84,0-4.03,0-5.86c-1.84,0-4.03,0-5.87,0c0,0.73,0,2.2,0,2.93
			S686.71,100.24,686.71,100.97z"/>
		<path class="st0" d="M674.97,100.97c1.84,0,4.03,0,5.87,0c0-1.84,0-4.03,0-5.86c-1.84,0-4.03,0-5.87,0c0,0.73,0,2.2,0,2.93
			S674.97,100.24,674.97,100.97z"/>
		<path class="st0" d="M686.71,95.11c0-1.84,0-4.03,0-5.86c-1.84,0-4.03,0-5.87,0c0,1.84,0,4.03,0,5.86c0.73,0,2.2,0,2.93,0
			C684.51,95.11,685.98,95.11,686.71,95.11z"/>
		<path class="st0" d="M674.97,95.11c0-1.84,0-4.03,0-5.86c-1.84,0-4.03,0-5.87,0c0,1.84,0,4.03,0,5.86c0.73,0,2.2,0,2.93,0
			C672.77,95.11,674.24,95.11,674.97,95.11z"/>
		<path class="st0" d="M663.23,95.11c0-1.84,0-4.03,0-5.86c-1.84,0-4.03,0-5.87,0c0,1.84,0,4.03,0,5.86c0.73,0,2.2,0,2.93,0
			C661.03,95.11,662.5,95.11,663.23,95.11z"/>
		<path class="st0" d="M651.49,95.11c0-1.84,0-4.03,0-5.86c-1.84,0-4.03,0-5.87,0c0,1.84,0,4.03,0,5.86c0.73,0,2.2,0,2.93,0
			C649.29,95.11,650.76,95.11,651.49,95.11z"/>
		<path class="st0" d="M686.71,83.38c0-1.84,0-4.03,0-5.86c-1.84,0-4.03,0-5.87,0c0,1.84,0,4.03,0,5.86c0.73,0,2.2,0,2.93,0
			C684.51,83.38,685.98,83.38,686.71,83.38z"/>
		<path class="st0" d="M651.49,83.38c0-1.84,0-4.03,0-5.86c-1.84,0-4.03,0-5.87,0c0,1.84,0,4.03,0,5.86c0.73,0,2.2,0,2.93,0
			C649.29,83.38,650.76,83.38,651.49,83.38z"/>
		<path class="st0" d="M669.1,77.52c0,1.84,0,4.03,0,5.86c1.84,0,4.03,0,5.87,0c0-1.84,0-4.03,0-5.86c-0.73,0-2.2,0-2.93,0
			C671.3,77.52,669.83,77.52,669.1,77.52z"/>
		<path class="st0" d="M663.23,73.12c0-1.84,0-4.03,0-5.86c-1.84,0-4.03,0-5.87,0c0,1.84,0,4.03,0,5.86c0.73,0,2.2,0,2.93,0
			C661.03,73.12,662.5,73.12,663.23,73.12z"/>
		<path class="st0" d="M673.5,62.86c0-1.84,0-4.03,0-5.86c-1.84,0-4.03,0-5.87,0c0,1.84,0,4.03,0,5.86c0.73,0,2.2,0,2.93,0
			C671.3,62.86,672.77,62.86,673.5,62.86z"/>
		<path class="st0" d="M664.7,49.67c0-1.84,0-4.03,0-5.86c-1.84,0-4.03,0-5.87,0c0,1.84,0,4.03,0,5.86c0.73,0,2.2,0,2.93,0
			C662.5,49.67,663.97,49.67,664.7,49.67z"/>
		<path class="st0" d="M673.5,39.41c0-1.84,0-4.03,0-5.86c-1.84,0-4.03,0-5.87,0c0,1.84,0,4.03,0,5.86c0.73,0,2.2,0,2.93,0
			C671.3,39.41,672.77,39.41,673.5,39.41z"/>
		<path class="st0" d="M664.7,30.62c0-1.84,0-4.03,0-5.86c-1.84,0-4.03,0-5.87,0c0,1.84,0,4.03,0,5.86c0.73,0,2.2,0,2.93,0
			C662.5,30.62,663.97,30.62,664.7,30.62z"/>
		<rect x="619.21" y="162.53" width="1.47" height="1.47"/>
		<rect x="616.28" y="162.53" width="1.47" height="1.47"/>
		<rect x="620.68" y="161.06" width="1.47" height="1.47"/>
		<rect x="617.74" y="161.06" width="1.47" height="1.47"/>
		<rect x="614.81" y="161.06" width="1.47" height="1.47"/>
		<rect x="622.15" y="159.6" width="1.47" height="1.47"/>
		<rect x="619.21" y="159.6" width="1.47" height="1.47"/>
		<rect x="616.28" y="159.6" width="1.47" height="1.47"/>
		<rect x="613.34" y="159.6" width="1.47" height="1.47"/>
		<rect x="610.41" y="159.6" width="1.47" height="1.47"/>
		<rect x="620.68" y="158.13" width="1.47" height="1.47"/>
		<rect x="617.74" y="158.13" width="1.47" height="1.47"/>
		<rect x="614.81" y="158.13" width="1.47" height="1.47"/>
		<rect x="611.88" y="158.13" width="1.47" height="1.47"/>
		<rect x="619.21" y="156.67" width="1.47" height="1.47"/>
		<rect x="616.28" y="156.67" width="1.47" height="1.47"/>
		<rect x="613.34" y="156.67" width="1.47" height="1.47"/>
		<rect x="610.41" y="156.67" width="1.47" height="1.47"/>
		<path d="M639.75,114.16v1.47c1.31,0,3.1,0,4.4,0v1.47c0.73,0,2.2,0,2.93,0v1.47h1.47v1.47h-1.47v1.47h-1.47v1.47h1.47v1.47h-1.47
			v1.47h-1.47v1.47h1.47v1.47c-0.73,0-2.2,0-2.93,0v-1.47c-5.34,0-10.8,0-16.14,0v1.47c-0.73,0-2.2,0-2.93,0v1.47h-1.47v1.47h-0.89
			h-0.58v1.15v0.31h-0.16h-1.31c0,0.63,0,1.81,0,2.59c0,0.12,0,0.24,0,0.34h-0.17h-1.29c0,0.84,0,1.69,0,2.55c0,3.06,0,6.17,0,9.18
			h-1.47v1.47h1.47v1.47h-1.47v1.47h1.47v1.47h1.47v1.47h1.47v1.47h1.47v1.47h1.47v1.47h1.47v1.47h1.47c0-0.73,0-2.2,0-2.93h1.47
			c0-0.73,0-2.2,0-2.93h1.47v-1.47h1.47v-1.47c0.73,0,2.2,0,2.93,0v-1.47c1.31,0,3.1,0,4.4,0v-1.47c1.84,0,4.03,0,5.87,0v1.47
			c0.86,0,1.93,0,2.93,0c0.52,0,1.02,0,1.47,0c0-3.85,0-7.87,0-11.73h-1.47c0-0.73,0-2.2,0-2.93h-1.47v-1.47h-1.47v-1.47h-1.47
			v-1.47c-0.73,0-2.2,0-2.93,0v-1.47c-3.36,0-6.91,0-10.27,0v1.47c-0.73,0-2.2,0-2.93,0v1.47h-1.47v1.47h-1.47v1.47h-1.47
			c0,0.73,0,2.2,0,2.93h-1.47c0,3.35,0,6.91,0,10.26h1.47c0,0.73,0,2.2,0,2.93h1.47v1.47h1.47c0,0.73,0,2.2,0,2.93h-1.47v-1.47
			h-1.47v-1.47h-1.47c0-0.73,0-2.2,0-2.93h-1.47c0-4.35,0-8.84,0-13.19h1.47c0-0.73,0-2.2,0-2.93h1.47v-1.47h1.47v-1.47h1.47v-1.47
			c0.73,0,2.2,0,2.93,0v-1.47c4.35,0,8.86,0,13.21,0v1.47c0.73,0,2.2,0,2.93,0v1.47h1.47v1.47h1.47v1.47h1.47c0,0.73,0,2.2,0,2.93
			h1.47c0,3.35,0,6.91,0,10.26c1.31,0,3.1,0,4.4,0v-1.47c0.73,0,2.2,0,2.93,0v-1.47c0.73,0,2.2,0,2.93,0v-1.47c0.73,0,2.2,0,2.93,0
			v-1.47c0.73,0,2.2,0,2.93,0v-1.47h1.47v-1.47c0.73,0,2.2,0,2.93,0v-1.47h1.47v-1.47c0.73,0,2.2,0,2.93,0v-1.47h1.47v-1.47
			c0.73,0,2.2,0,2.93,0v-1.47h1.47v-1.47c0.73,0,2.2,0,2.93,0v-1.47c0.37,0,0.92,0,1.47,0c0.55,0,1.1,0,1.47,0v-1.47
			c0.37,0,0.92,0,1.47,0c0.55,0,1.1,0,1.47,0v-1.47c0.37,0,0.92,0,1.47,0s1.1,0,1.47,0v-1.47c0.48,0,0.98,0,1.47,0
			c0.49,0,0.97,0,1.47,0c0.49,0,0.98,0,1.47,0s0.98,0,1.47,0s0.98,0,1.47,0c0.49,0,0.98,0,1.47,0c0.49,0,0.98,0,1.47,0v1.47
			c0.44,0,0.95,0,1.47,0c0.49,0,0.98,0,1.47,0c0.05,0,0.1,0,0.15,0c0.47,0,0.92,0,1.32,0v1.47h1.47v1.47c-0.44,0-0.9,0-1.36,0
			c-1.5,0-3.11,0-4.51,0v1.47c-1.31,0-3.1,0-4.4,0v1.47c-0.73,0-2.2,0-2.93,0v1.47c-0.73,0-2.2,0-2.93,0v1.47h-1.47v1.47h-1.47v1.47
			h-1.47v1.47h-1.47v1.47h-1.47v1.47h-1.47v1.47h-1.47v1.47h-1.47v1.47h-1.47v1.47h-1.47v1.47h-1.47v1.47h-1.47v1.47h-1.47v1.47
			h-1.47v1.47h-1.47v1.47h-1.47v1.47h-1.47v1.47c-0.73,0-2.2,0-2.93,0v1.47c-0.73,0-2.2,0-2.93,0v1.47c-1.31,0-3.1,0-4.4,0v1.47
			c-1.84,0-4.03,0-5.87,0v-1.47c-0.73,0-2.2,0-2.93,0v-1.47c-0.73,0-2.2,0-2.93,0v1.47h1.47v1.47c0.73,0,2.2,0,2.93,0v1.47
			c6.84,0,13.69,0,20.54,0c6.36,0,12.72,0,19.08,0v-1.47c2.35,0,4.98,0,7.34,0v-1.47c1.84,0,4.03,0,5.87,0v-1.47c1.31,0,3.1,0,4.4,0
			v-1.47c0.73,0,2.2,0,2.93,0v-1.47h1.47c0,1.31,0,3.09,0,4.4h-1.47v1.47h-1.47v1.47h-1.47v1.47h-1.47v1.47c-0.37,0-0.92,0-1.47,0
			c-0.55,0-1.1,0-1.47,0v1.47c-0.44,0-0.95,0-1.47,0c-0.49,0-0.98,0-1.47,0c-0.52,0-1.02,0-1.47,0v1.47c-0.44,0-0.95,0-1.47,0
			c-0.49,0-0.98,0-1.47,0c-0.52,0-1.02,0-1.47,0v1.47c-0.44,0-0.95,0-1.47,0c-0.49,0-0.98,0-1.47,0c-0.52,0-1.02,0-1.47,0v1.47
			c-0.37,0-0.92,0-1.47,0c-0.55,0-1.1,0-1.47,0c-0.37,0-0.92,0-1.47,0s-1.1,0-1.47,0v1.47c-1.84,0-4.03,0-5.87,0v1.24v0.23
			c-1.31,0-3.1,0-4.4,0v1.47c-0.73,0-2.2,0-2.93,0v1.47h-1.47v1.76c5.34,0,10.8,0,16.14,0c0-1.31,0-3.38,0-4.69
			c1.84,0,4.03,0,5.87,0v-0.45v-1.02c1.31,0,3.1,0,4.4,0v-1.47c1.31,0,3.1,0,4.4,0v-1.47c1.31,0,3.1,0,4.4,0v-1.47
			c0.73,0,2.2,0,2.93,0v-1.47h1.47v-1.47h1.47v-1.47h1.47v-1.47h1.47v-1.47h1.47c0-2.35,0-4.98,0-7.33h-1.47v-1.47h-1.47v-1.47
			c-0.49,0-0.98,0-1.47,0c-7.32,0-14.7,0-22.01,0v-1.47h1.47v-1.47h1.47v-1.47h1.47v-1.47h1.47v-1.47h1.47v-1.47h1.47v-1.47h1.47
			v-1.47h1.47v-1.47h1.47v-1.47h1.47v-1.47h1.47v-1.47h1.47v-1.47h1.47v-1.47h1.47v-1.47h0.11h1.36v-1.47h1.47c0-1.31,0-3.09,0-4.4
			h-1.47v-1.47h-1.47v-1.47c-1.24,0-2.9,0-4.19,0c-0.07,0-0.15,0-0.21,0v-0.45v-1.02c-0.16,0-0.33,0-0.49,0c-4.2,0-8.53,0-12.72,0
			v1.47c-0.73,0-2.2,0-2.93,0v1.47c-0.73,0-2.2,0-2.93,0v1.47c-0.73,0-2.2,0-2.93,0c0-0.73,0-2.2,0-2.93h-1.47c0-0.73,0-2.2,0-2.93
			h-1.47v-1.47h-1.47v-1.47h-1.47v-1.47h-1.47v-1.47h-1.47v-1.47c-0.73,0-2.2,0-2.93,0v-1.47c-0.73,0-2.2,0-2.93,0v-1.47
			c-0.73,0-2.2,0-2.93,0v-1.47c-2.86,0-5.95,0-8.8,0v-1.47c-7.08,0-14.25,0-21.34,0c-0.22,0-0.45,0-0.67,0v1.1v0.36
			c-0.07,0-0.14,0-0.22,0c-0.78,0-2.05,0-2.71,0v1.47h-1.47v1.47h-1.41l-1.45,2.93c1.23,0,2.46,0,3.7,0
			C633.47,114.16,636.64,114.16,639.75,114.16z M635.35,144.94c-1.31,0-3.1,0-4.4,0c0-1.31,0-3.09,0-4.4h1.47c0.73,0,2.2,0,2.93,0
			C635.35,141.85,635.35,143.64,635.35,144.94z M623.61,150.8c0-0.73,0-2.2,0-2.93h-1.47c0-2.35,0-4.98,0-7.33h1.47
			c0-0.73,0-2.2,0-2.93h1.47v-1.47h1.47v-1.47h1.47v-1.47c0.73,0,2.2,0,2.93,0v-1.47c2.35,0,4.98,0,7.34,0v1.47c0.73,0,2.2,0,2.93,0
			v1.47h1.47v1.47h1.47v1.47h1.47c0,0.73,0,2.2,0,2.93h1.47c0,2.85,0,5.94,0,8.79h-1.47v-1.47h-1.47c0-2.35,0-4.98,0-7.33h-1.47
			c0-0.73,0-2.2,0-2.93h-1.47v-1.47c-0.73,0-2.2,0-2.93,0v-1.47c-2.35,0-4.98,0-7.34,0v1.47c-0.73,0-2.2,0-2.93,0v1.47h-1.47
			c0,0.73,0,2.2,0,2.93h-1.47c0,2.35,0,4.98,0,7.33h1.47c0,0.73,0,2.2,0,2.93h1.47c0,0.73,0,2.2,0,2.93h-1.47v-1.47h-1.47v-1.47
			H623.61z M691.11,156.67c0.49,0,0.98,0,1.47,0c0.49,0,0.98,0,1.47,0s0.98,0,1.47,0s0.98,0,1.47,0s0.98,0,1.47,0
			c0.49,0,0.98,0,1.47,0c0.49,0,0.98,0,1.47,0c0.49,0,0.98,0,1.47,0s0.98,0,1.47,0s0.98,0,1.47,0s0.98,0,1.47,0
			c0.49,0,0.98,0,1.47,0v1.47c-0.73,0-2.2,0-2.93,0v1.47c-1.31,0-3.1,0-4.4,0v1.47c-0.73,0-2.2,0-2.93,0h-1.47v-1.47
			c-0.73,0-2.2,0-2.93,0v-1.47c-0.73,0-2.2,0-2.93,0V156.67z M689.64,158.13v1.47c0.73,0,2.2,0,2.93,0v1.47c0.73,0,2.2,0,2.93,0
			v1.47c-2.35,0-4.98,0-7.34,0v1.47c-5.83,0-11.78,0-17.61,0c0-0.73,0-2.2,0-2.93h1.47v-1.47h1.47v-1.47h1.47v-1.47
			c2.86,0,5.95,0,8.8,0v1.47c0.44,0,0.95,0,1.47,0c1.01,0,2.07,0,2.93,0H689.64z M669.1,115.63c0.52,0,1.02,0,1.47,0h1.47v1.47h1.47
			v1.47h1.47v1.47h1.47v1.47h1.47c0,0.36,0,0.92,0,1.47c0,0.55,0,1.1,0,1.47h-1.47v1.47h-1.47v1.47h-1.47v1.47c-0.73,0-2.2,0-2.93,0
			v1.47h-1.47v1.47c-0.73,0-2.2,0-2.93,0v1.47c-0.73,0-2.2,0-2.93,0v1.47c-1.31,0-3.1,0-4.4,0v-1.47h-1.47v-1.47h-1.47
			c0-1.31,0-3.09,0-4.4h1.47c0-0.73,0-2.2,0-2.93h1.47v-1.47h1.47v-1.47h1.47v-1.47h1.47v-1.47h1.47v-1.47h1.47v-1.47
			C667.03,115.63,668.1,115.63,669.1,115.63z M657.36,115.63v-1.47h1.47v-1.47c0.86,0,1.93,0,2.93,0c0.52,0,1.02,0,1.47,0
			c0.37,0,0.92,0,1.47,0c0.55,0,1.1,0,1.47,0v1.47h-1.47v1.47h-1.47v1.47h-1.47v1.47h-1.47v1.47h-1.47v1.47h-1.47v1.47h-1.47
			c0,0.73,0,2.2,0,2.93h-1.47c0,2.35,0,4.98,0,7.33h1.47v1.47h1.47v1.47c2.35,0,4.98,0,7.34,0v-1.47c0.73,0,2.2,0,2.93,0v-1.47
			c0.73,0,2.2,0,2.93,0v-1.47h1.47v-1.47c0.73,0,2.2,0,2.93,0v-1.47h1.47v-1.47c0.86,0,1.93,0,2.93,0c0.52,0,1.02,0,1.47,0v1.47
			h-1.47v1.47h-1.47v1.47c-0.73,0-2.2,0-2.93,0v1.47h-1.47v1.47c-0.73,0-2.2,0-2.93,0v1.47h-1.47v1.47c-0.73,0-2.2,0-2.93,0v1.47
			h-1.47v1.47c-0.73,0-2.2,0-2.93,0v1.47c-0.73,0-2.2,0-2.93,0v1.47c-0.73,0-2.2,0-2.93,0v1.47c-0.73,0-2.2,0-2.93,0v1.47h-1.47
			c0-3.35,0-6.91,0-10.26h-1.47c0-0.73,0-2.2,0-2.93h-1.47v-1.47h-1.47c0-1.31,0-3.09,0-4.4h1.47c0-0.73,0-2.2,0-2.93h1.47
			c0-0.73,0-2.2,0-2.93h1.47v-1.47h1.47v-1.47h1.47v-1.47h1.47v-1.47H657.36z M630.95,111.23c0.31,0,0.66,0,1.01,0
			c0.15,0,0.3,0,0.46,0c0.49,0,0.98,0,1.47,0c0.52,0,1.02,0,1.47,0v-1.47c0.49,0,0.98,0,1.47,0c0.49,0,0.98,0,1.47,0s0.98,0,1.47,0
			s0.98,0,1.47,0s0.98,0,1.47,0c0.49,0,0.98,0,1.47,0c0.49,0,0.98,0,1.47,0c0.49,0,0.98,0,1.47,0s0.98,0,1.47,0s0.98,0,1.47,0
			s0.98,0,1.47,0c0.49,0,0.98,0,1.47,0h1.47v1.47h1.47v1.47h-1.47v1.47h-1.47v1.47h-1.47v1.47h-1.47v-1.47c-1.31,0-3.1,0-4.4,0
			v-1.47c-1.31,0-3.1,0-4.4,0v-1.47c-3.3,0-6.79,0-10.09,0c-0.06,0-0.12,0-0.18,0V111.23z"/>
		<rect x="617.74" y="155.2" width="1.47" height="1.47"/>
		<rect x="614.81" y="155.2" width="1.47" height="1.47"/>
		<rect x="611.88" y="155.2" width="1.47" height="1.47"/>
		<polygon points="610.13,155.2 608.94,155.2 608.94,156.67 609.57,156.67 610.41,156.67 610.41,155.2 		"/>
		<rect x="616.28" y="153.73" width="1.47" height="1.47"/>
		<rect x="613.34" y="153.73" width="1.47" height="1.47"/>
		<polygon points="611.88,153.73 610.71,153.73 610.41,153.73 610.41,154.48 610.41,155.2 611.88,155.2 		"/>
		<rect x="614.81" y="152.27" width="1.47" height="1.47"/>
		<rect x="611.88" y="152.27" width="1.47" height="1.47"/>
		<rect x="608.94" y="152.27" width="1.47" height="1.47"/>
		<rect x="613.34" y="150.8" width="1.47" height="1.47"/>
		<polygon points="611.88,152.27 611.88,150.95 611.88,150.8 610.41,150.8 610.41,152.27 611.32,152.27 		"/>
		<rect x="614.81" y="149.34" width="1.47" height="1.47"/>
		<polygon points="613.34,150.8 613.34,149.34 612.6,149.34 611.88,149.34 611.88,150.8 611.94,150.8 		"/>
		<rect x="613.34" y="147.87" width="1.47" height="1.47"/>
		<rect x="610.41" y="147.87" width="1.47" height="1.47"/>
		<rect x="614.81" y="146.41" width="1.47" height="1.47"/>
		<polygon points="613.34,147.87 613.34,147.68 613.34,146.41 611.88,146.41 611.88,147.87 613.26,147.87 		"/>
		<rect x="664.7" y="128.82" width="1.47" height="1.47"/>
		<rect x="663.23" y="127.35" width="1.47" height="1.47"/>
		<rect x="669.1" y="125.89" width="1.47" height="1.47"/>
		<rect x="661.76" y="125.89" width="1.47" height="1.47"/>
		<rect x="667.63" y="124.42" width="1.47" height="1.47"/>
		<rect x="673.5" y="122.96" width="1.47" height="1.47"/>
		<rect x="666.17" y="122.96" width="1.47" height="1.47"/>
		<rect x="644.16" y="122.96" width="1.47" height="1.47"/>
		<rect x="672.04" y="121.49" width="1.47" height="1.47"/>
		<rect x="664.7" y="121.49" width="1.47" height="1.47"/>
		<rect x="670.57" y="120.02" width="1.47" height="1.47"/>
		<rect x="644.16" y="120.02" width="1.47" height="1.47"/>
		<rect x="669.1" y="118.56" width="1.47" height="1.47"/>
		<rect x="645.62" y="118.56" width="1.47" height="1.47"/>
		<path d="M738.4,157.76l-1.43-3.77L685.16,49.41v-31.8h2.73c4.85,0,8.8-3.95,8.8-8.8s-3.95-8.8-8.8-8.8h-43.51
			c-4.85,0-8.8,3.95-8.8,8.8s3.95,8.8,8.8,8.8h2.73v31.8l-51.76,104.46l-1.49,3.89c-1.11,2.93-1.49,6.12-1.11,9.22l0.23,1.86
			c0.36,2.86,1.35,5.66,2.89,8.09l1.02,1.63c1.4,2.22,3.15,4.17,5.19,5.81l2.83,2.26c4.48,3.58,10.11,5.54,15.84,5.54h39.05h12.63
			h39.05c5.73,0,11.36-1.97,15.84-5.54l2.83-2.26c2.05-1.63,3.8-3.59,5.19-5.8l1.03-1.63c1.53-2.44,2.53-5.23,2.89-8.09l0.23-1.86
			C739.9,163.87,739.51,160.69,738.4,157.76z M644.38,11.94c-1.73,0-3.13-1.41-3.13-3.13s1.41-3.13,3.13-3.13h43.51
			c1.73,0,3.13,1.41,3.13,3.13s-1.41,3.13-3.13,3.13h-2.73h-38.04H644.38z M672.56,186.49h-0.11h-12.52h-0.11h-38.95h-0.11
			c-4.46,0-8.83-1.53-12.31-4.31l-2.83-2.26c-1.55-1.24-2.88-2.72-3.93-4.4l-1.02-1.63c-1.09-1.73-1.81-3.73-2.06-5.76l-0.23-1.86
			c-0.27-2.2,0-4.45,0.78-6.52l1.33-3.51l52.28-105.52v-0.66V17.61h0.11h26.59v32.47v0.66l52.29,105.52l1.33,3.51
			c0.78,2.07,1.06,4.32,0.78,6.52l-0.23,1.85c-0.25,2.04-0.96,4.03-2.06,5.77l-1.03,1.63c-1.06,1.68-2.38,3.16-3.93,4.4l-2.83,2.26
			c-3.48,2.78-7.85,4.31-12.31,4.31H672.56z"/>
	</g>
</g>
</svg>
