<?xml version="1.0" encoding="UTF-8"?>
<svg id="print" xmlns="http://www.w3.org/2000/svg" viewBox="0 0 2552.75 729.2">
<style type="text/css">
	path,polygon,rect{fill:#FFFFFF}
</style>
  <path d="M760.35,618.43v19.36h58.15v-19.36h-58.15Z"/>
  <path d="M721.58,618.43v19.36h19.38v-19.36h-19.38Z"/>
  <path d="M682.82,618.43v19.36h19.38v-19.36h-19.38Z"/>
  <path d="M779.73,599.07v-19.36h-19.38v19.36h19.38Z"/>
  <path d="M721.58,579.71v19.36h19.38v-19.36h-19.38Z"/>
  <path d="M682.82,579.71v19.36h19.38v-19.36h-19.38Z"/>
  <path d="M644.05,579.71v19.36h19.38v-19.36h-19.38Z"/>
  <path d="M1918.52,579.71H799.12v19.36H1927.16l9.59-19.36h-18.23Z"/>
  <polygon points="1896.67 618.43 837.88 618.43 837.88 637.79 1887.08 637.79 1905.31 637.79 1907.97 637.79 1917.57 618.43 1903.27 618.43 1896.67 618.43"/>
  <path d="M760.35,540.99v19.36h19.38v-19.36h-19.38Z"/>
  <path d="M721.58,540.99v19.36h19.38v-19.36h-19.38Z"/>
  <path d="M682.82,540.99v19.36h19.38v-19.36h-19.38Z"/>
  <path d="M644.05,540.99v19.36h19.38v-19.36h-19.38Z"/>
  <path d="M760.35,521.62h-19.38v19.36h19.38v-19.36Z"/>
  <path d="M721.58,521.62h-19.38v19.36h19.38v-19.36Z"/>
  <path d="M682.82,521.62h-19.38v19.36h19.38v-19.36Z"/>
  <path d="M644.05,521.62h-19.38v19.36h19.38v-19.36Z"/>
  <path d="M547.14,540.99h19.38v-19.36h-19.38v19.36Z"/>
  <path d="M585.9,521.62v19.36h19.38v-19.36h-19.38Z"/>
  <path d="M740.97,511.94v-9.68h-19.38v19.36h19.38v-9.68Z"/>
  <path d="M702.2,511.94v-9.68h-19.38v19.36h19.38v-9.68Z"/>
  <path d="M624.67,502.26h-19.38v19.36h19.38v-19.36Z"/>
  <path d="M1700.43,473.22h-19.38v19.36h174.45v-19.36h19.38v-19.36h-174.45v19.36Z"/>
  <path d="M721.58,482.9h19.38v-19.36h-19.38v19.36Z"/>
  <path d="M770.04,463.54h-9.69v19.36h19.38v-19.36h-9.69Z"/>
  <path d="M799.12,482.9h-19.38v19.36h19.38v-19.36Z"/>
  <path d="M779.73,502.26h-19.38v19.36h19.38v-19.36Z"/>
  <path d="M663.43,463.54h19.38v-19.36h-19.38v19.36Z"/>
  <path d="M547.14,463.54h19.38v-19.36h-19.38v19.36Z"/>
  <path d="M721.58,444.18h-19.38v19.36h19.38v-19.36Z"/>
  <path d="M624.67,463.54h19.38v-19.36h-19.38v19.36Z"/>
  <path d="M750.66,444.18h-9.69v19.36h19.38v-19.36h-9.69Z"/>
  <path d="M585.9,463.54h19.38v-19.36h-19.38v19.36Z"/>
  <path d="M469.6,444.18v19.36h19.38v-19.36h-19.38Z"/>
  <path d="M682.82,424.82v19.36h19.38v-19.36h-19.38Z"/>
  <path d="M779.73,444.18v-19.36h-19.38v19.36h19.38Z"/>
  <path d="M740.97,444.18v-19.36h-19.38v19.36h19.38Z"/>
  <path d="M721.58,424.82v-19.36h-19.38v19.36h19.38Z"/>
  <path d="M605.28,419.98v-14.52h-19.38v19.36h19.38v-4.84Z"/>
  <path d="M799.12,415.14v-9.68h-19.38v19.36h19.38v-9.68Z"/>
  <path d="M760.35,415.14v-9.68h-19.38v19.36h19.38v-9.68Z"/>
  <path d="M682.82,405.46h-19.38v19.36h19.38v-19.36Z"/>
  <path d="M2063.86,308.65h-993.38v19.36h-19.38v-19.36h-58.15v19.36h-19.38v-19.36h-19.38v19.36h-19.38v-19.36h-19.38v19.36h-19.38v19.36h19.38v19.36h-19.38v-19.36h-19.38v19.36h-19.38v19.36h19.38v19.36h-19.38v-19.36h-19.38v19.36h-19.38v19.36h19.38v19.36h-19.38v-19.36h-19.38v19.36h-19.38v19.36h19.38v19.36h19.38v-19.36h19.38v19.36h-19.38v19.36h19.38v19.36h-19.38v-19.36h-19.38v19.36h-19.38v19.36h19.38v19.36h19.38v-19.36h19.38v19.36h19.38v-19.36h19.38v19.36h19.38v-19.36h19.38v19.36H1946.26l88.8-179.09,35.95-72.5h-7.15v-.1Zm-1187.22,212.97h-19.38v-19.36h19.38v19.36Zm0-38.72h-19.38v19.31h-19.31v-19.31h19.31v-19.36h19.38v19.36Zm0-38.72h-19.38v-19.36h19.38v19.36Zm19.34,58.03h-19.31v-19.31h19.31v19.31Zm19.43-19.31h-19.38v-19.36h19.38v19.36Zm0-38.72h-19.38v-19.36h19.38v19.36Zm0-38.72h-19.38v-19.36h19.38v19.36Zm38.77,116.17h-19.38v-19.36h19.38v19.36Zm0-77.44h-19.38v-19.36h19.38v19.36Zm0-38.72h-19.38v-19.36h19.38v19.36Zm0-38.72h-19.38v-19.36h19.38v19.36Zm38.77,116.17h-19.38v-19.36h19.38v19.36Zm0-77.44h-19.38v-19.36h19.38v19.36Zm19.38-58.08h19.38v19.36h-19.38v-19.36Zm261.67,164.57h-19.38v19.36h-227.75v-38.72h14.54v-38.72h19.38v-38.72h19.38v-38.72h19.38v-38.72h38.77v58.08h-19.38v38.72h-19.38v38.72h-19.38v19.36h193.83v19.36Zm329.51-38.72h-19.38v38.72h-19.38v19.36h-38.77v-38.72h19.38v-38.72h-155.06v19.36h-19.38v38.72h-19.38v19.36h-38.77v-38.72h19.38v-38.72h19.38v-38.72h19.38v-38.72h19.38v-38.72h251.98v58.08h-19.38v38.72h-19.38v38.72Zm310.13,0v38.72h-19.38v19.36h-271.36v-38.72h19.38v-38.72h19.38v-38.72h19.38v-38.72h19.38v-38.72h232.6v58.08h-19.38v19.36h-19.38v19.36h38.77v38.72h-19.38Z"/>
  <path d="M1739.2,395.78h-19.38v19.36h135.68v-19.36h19.38v-19.36h-135.68v19.36Z"/>
  <path d="M1429.07,395.78h-19.38v19.36h155.06v-19.36h19.38v-19.36h-155.06v19.36Z"/>
  <path d="M644.05,405.46h-19.38v19.36h19.38v-19.36Z"/>
  <path d="M818.5,395.78v-9.68h-19.38v19.36h19.38v-9.68Z"/>
  <path d="M740.97,386.1h19.38v-19.36h-19.38v19.36Z"/>
  <path d="M837.88,376.42v-9.68h-19.38v19.36h19.38v-9.68Z"/>
  <path d="M721.58,376.42v-9.68h-19.38v19.36h19.38v-9.68Z"/>
  <path d="M779.73,366.74v19.36h19.38v-19.36h-19.38Z"/>
  <path d="M779.73,347.38h19.38v-19.36h-19.38v19.36Z"/>
  <path d="M857.27,347.38h19.38v-19.36h-19.38v-19.36h-19.38v19.36h-19.38v19.36h19.38v19.36h19.38v-19.36Z"/>
  <path d="M760.35,328.01h-19.38v19.36h19.38v-19.36Z"/>
  <path d="M896.03,328.01v-19.36h-19.38v19.36h19.38Z"/>
  <path d="M740.97,289.29v-19.36h19.38v-38.72h19.38v-38.72h19.38v-38.72h19.38v-58.08h-38.77v38.72h-19.38v38.72h-19.38v38.72h-19.38v38.72h-19.38v38.72h38.77Z"/>
  <path d="M644.05,289.29v-19.36h19.38v-19.36h-193.83v-19.36h19.38v-38.72h19.38v-38.72h19.38v-58.08h-38.77v38.72h-19.38v38.72h-19.38v38.72h-19.38v38.72h-19.38v38.72h232.6Z"/>
  <path d="M818.5,216.69v33.88h-19.38v38.72h38.77v-19.36h19.38v-38.72h19.38v-19.36h193.83v-19.36h19.38v-19.36h19.38v-19.36h19.38v-19.36h19.38v-38.72h-271.36v38.72h-19.38v38.72h-19.38v38.72h-19.38v4.84Zm77.53-62.92h19.38v-19.36h155.06v19.36h-19.38v19.36h-155.06v-19.36Z"/>
  <path d="M1807.04,95.68v38.72h-19.38v38.72h-19.38v38.72h-19.38v38.72h-19.38v38.72h38.77v-19.36h19.38v-38.72h19.38v-19.36h135.68v19.36h19.38v19.36h19.38v19.36h19.38v19.36h58.15v-19.36h-19.38v-19.36h-19.38v-19.36h-19.38v-38.72h19.38v-19.36h19.38v-19.36h19.38v-19.36h19.38v-19.36h19.38v-19.36h-290.75Zm193.83,58.08h-19.38v19.36h-155.06v-19.36h19.38v-19.36h155.06v19.36Z"/>
  <path d="M1458.14,177.97v33.88h-19.38v38.72h-19.38v38.72h251.98v-19.36h19.38v-19.36h-213.21v-19.36h19.38v-19.36h174.45v-19.36h19.38v-19.36h-174.45v-19.36h19.38v-19.36h213.21v-19.36h19.38v-19.36h-271.36v38.72h-19.38v38.72h-19.38v4.84Z"/>
  <path d="M1148.01,177.97v33.88h-19.38v38.72h-19.38v38.72h38.77v-19.36h19.38v-38.72h19.38v-19.36h193.83v-19.36h19.38v-19.36h19.38v-19.36h19.38v-19.36h19.38v-38.72h-271.36v38.72h-19.38v38.72h-19.38v4.84Zm58.15-24.2h19.38v-19.36h155.06v19.36h-19.38v19.36h-155.06v-19.36Z"/>
  <path d="M178.86,153.77h19.38v-19.36h232.6v-19.36h19.38v-19.36H159.47v38.72h-19.38v38.72h-19.38v38.72h-19.38v38.72h-19.38v38.72h-19.38v38.72h38.77v-19.36h19.38v-38.72h19.38v-38.72h19.38v-19.36h174.45v-19.36h19.38v-19.36H178.86v-19.36Z"/>
  <polygon points="2083.25 555.51 2083.25 550.67 2081.42 550.67 2078.4 550.67 2078.4 555.51 2079.39 555.51 2083.25 555.51"/>
  <polygon points="2083.25 550.67 2088.09 550.67 2088.09 545.83 2083.45 545.83 2083.25 545.83 2083.25 546.3 2083.25 550.67"/>
  <polygon points="2088.09 540.99 2088.09 536.14 2087.81 536.14 2083.25 536.14 2083.25 540.99 2085.63 540.99 2088.09 540.99"/>
  <path d="M2349.76,400.62h-19.38v-19.36h-19.38v19.36h-19.38v-19.36h-19.38v-19.36h-19.38v19.36h-19.38v-19.36h-19.38v19.36h-19.38v-19.36h-19.38v19.36h-21.65s-.08-.02-.12-.03l-16.8,33.91h4.65v-4.84h4.85v-4.84h9.69v-4.84h72.69v4.84h29.07v4.84h9.69v4.84h9.69v4.84h9.69v4.84h4.85v4.84h4.85v4.84h4.85v4.84h4.85v4.84h4.85v9.68h4.85v9.68h9.69v-4.84h9.69v-4.84h9.69v-4.84h43.61v4.84h14.54v4.84h4.85v4.84h4.85v14.52h-4.85v4.84h-4.85v4.84h-4.85v4.84h-4.85v4.84h-4.85v4.84h-4.85v4.84h-4.85v4.84h-4.85v4.84h-4.85v4.84h-4.85v4.84h-4.85v4.84h-4.85v4.84h-4.85v4.84h-4.85v4.84h-4.85v4.84h-4.85v4.84h77.53v4.84h4.85v4.84h4.85v24.2h-4.85v4.84h-4.85v4.84h-4.85v4.84h-4.85v4.84h-4.85v4.84h-9.69v4.84h-14.54v4.84h-14.54v4.84h-14.54v4.84h-19.38v15.48h-53.3v-5.8h4.85v-4.84h9.69v-4.84h14.54v-4.84h19.38v-4.84h19.38v-4.84h14.54v-4.84h14.54v-4.84h14.54v-4.84h9.69v-4.84h4.85v-4.84h4.85v-4.84h4.85v-4.84h4.85v-14.52h-4.85v4.84h-9.69v4.84h-14.54v4.84h-19.38v4.84h-24.23v4.84h-130.84v-4.84h-9.69v-4.84h-4.85v-4.84h9.69v4.84h9.69v4.84h19.38v-4.84h14.54v-4.84h9.69v-4.84h9.69v-4.84h4.85v-4.84h4.85v-4.84h4.85v-4.84h4.85v-4.84h4.85v-4.84h4.85v-4.84h4.85v-4.84h4.85v-4.84h4.85v-4.84h4.85v-4.84h4.85v-4.84h4.85v-4.84h4.85v-4.84h4.85v-4.84h4.85v-4.84h4.85v-4.84h4.85v-4.84h9.69v-4.84h9.69v-4.84h14.54v-4.84h19.38v-4.84h-4.85v-4.84h-14.54v-4.84h-33.92v4.84h-9.69v4.84h-9.69v4.84h-9.69v4.84h-9.69v4.84h-4.85v4.84h-9.69v4.84h-4.85v4.84h-9.69v4.84h-4.85v4.84h-9.69v4.84h-4.85v4.84h-9.69v4.84h-9.69v4.84h-9.69v4.84h-9.69v4.84h-14.54v-33.88h-4.85v-9.68h-4.85v-4.84h-4.85v-4.84h-4.85v-4.84h-9.69v-4.84h-43.61v4.84h-9.69v4.84h-4.85v4.84h-4.85v4.84h-4.85v9.68h-4.85v43.56h4.85v9.68h4.85v4.84h4.85v4.84h4.85v-9.68h-4.85v-4.84h-4.85v-9.68h-4.85v-33.88h4.85v-9.68h4.85v-4.84h4.85v-4.84h4.85v-4.84h9.69v-4.84h33.92v4.84h9.69v4.84h4.85v4.84h4.85v4.84h4.85v9.68h4.85v38.72h-14.54v-4.84h-19.38v4.84h-14.54v4.84h-9.69v4.84h-4.85v4.84h-4.85v9.68h-4.85v9.68h-4.85v-4.84h-4.85v4.84h-4.85v4.84h-4.85v4.84h-4.85v-4.84h-4.85v4.84h-4.85v-4.84h-4.85v-4.84h-4.85v-4.84h-4.85v4.84h-4.85v-4.84h4.85v-4.84h-4.85v-4.84h-4.85v-4.84h4.85v-4.84h-4.85v-4.84h4.85v-4.84h4.85v-4.84h-4.85v-4.84h4.85v-4.84h4.85v4.84h4.85v-4.84h4.85v4.84h4.85v-38.72h4.85v-9.68h4.85v-4.84h4.85v-4.84h4.85v-4.84h9.69v-4.84h53.3v4.84h9.69v-4.84h-4.85v-4.84h4.85v-4.84h-4.85v-4.84h4.85v-4.84h-4.85v-4.84h4.85v-4.84h4.85v-4.84h-9.69v-4.84h-14.54v-4.84h-43.36l-71.91,145.14-4.13,10.89c-1.71,4.52-2.31,9.44-1.71,14.24l.76,6.13c.56,4.51,2.13,8.93,4.56,12.78l3.38,5.37c2.58,4.09,5.81,7.7,9.59,10.72l9.35,7.46c8.81,7.02,19.86,10.89,31.13,10.89h299.65c11.27,0,22.33-3.87,31.13-10.89l9.35-7.46c3.79-3.02,7.02-6.63,9.6-10.74l3.38-5.35c2.42-3.85,4-8.27,4.56-12.79l.76-6.12c.59-4.8,0-9.72-1.71-14.24l-4.13-10.89-93.5-188.7h-22.29v19.36Z"/>
  <path d="M2180.16,419.98v4.84h14.54v4.84h14.54v4.84h4.85v-4.84h4.85v-4.84h4.85v-4.84h4.85v-4.84h-4.85v-4.84h-63v4.84h-14.54v4.84h33.92Z"/>
  <rect x="2107.48" y="579.71" width="4.85" height="4.84"/>
  <rect x="2097.78" y="579.71" width="4.85" height="4.84"/>
  <path d="M2354.61,574.87h9.69v4.84h14.54v-4.84h14.54v-4.84h9.69v-4.84h-58.15v4.84h9.69v4.84Z"/>
  <rect x="2112.32" y="574.87" width="4.85" height="4.84"/>
  <rect x="2102.63" y="574.87" width="4.85" height="4.84"/>
  <rect x="2092.94" y="574.87" width="4.85" height="4.84"/>
  <path d="M2325.54,570.03h-4.85v-4.84h-29.07v4.84h-4.85v4.84h-4.85v4.84h-4.85v9.68h58.15v-4.84h24.23v-4.84h-9.69v-4.84h-9.69v-4.84h-14.54Z"/>
  <rect x="2117.17" y="570.03" width="4.85" height="4.84"/>
  <rect x="2107.48" y="570.03" width="4.85" height="4.84"/>
  <rect x="2097.78" y="570.03" width="4.85" height="4.84"/>
  <rect x="2088.09" y="570.03" width="4.85" height="4.84"/>
  <rect x="2112.32" y="565.19" width="4.85" height="4.84"/>
  <rect x="2102.63" y="565.19" width="4.85" height="4.84"/>
  <rect x="2092.94" y="565.19" width="4.85" height="4.84"/>
  <rect x="2083.25" y="565.19" width="4.85" height="4.84"/>
  <rect x="2107.48" y="560.35" width="4.85" height="4.84"/>
  <rect x="2097.78" y="560.35" width="4.85" height="4.84"/>
  <rect x="2088.09" y="560.35" width="4.85" height="4.84"/>
  <rect x="2078.4" y="560.35" width="4.85" height="4.84"/>
  <rect x="2102.63" y="555.51" width="4.85" height="4.84"/>
  <rect x="2092.94" y="555.51" width="4.85" height="4.84"/>
  <rect x="2083.25" y="555.51" width="4.85" height="4.84"/>
  <rect x="2097.78" y="550.67" width="4.85" height="4.84"/>
  <rect x="2088.09" y="550.67" width="4.85" height="4.84"/>
  <path d="M2126.86,550.67h4.85v4.84h4.85v-9.68h-4.85v-9.68h-4.85v-24.2h4.85v-9.68h4.85v-4.84h9.69v-4.84h24.23v4.84h9.69v4.84h4.85v9.68h4.85v24.2h4.85v4.84h4.85v-29.04h-4.85v-9.68h-4.85v-4.84h-4.85v-4.84h-4.85v-4.84h-9.69v-4.84h-24.23v4.84h-9.69v4.84h-4.85v4.84h-4.85v4.84h-4.85v9.68h-4.85v24.2h4.85v9.68h4.85v4.84Z"/>
  <rect x="2092.94" y="545.83" width="4.85" height="4.84"/>
  <rect x="2097.78" y="540.99" width="4.85" height="4.84"/>
  <rect x="2088.09" y="540.99" width="4.85" height="4.84"/>
  <rect x="2092.94" y="536.14" width="4.85" height="4.84"/>
  <path d="M2146.24,511.94v14.52h14.54v-14.52h-14.54Z"/>
  <rect x="2194.7" y="453.86" width="4.85" height="4.84"/>
  <rect x="2194.7" y="444.18" width="4.85" height="4.84"/>
  <rect x="2199.55" y="439.34" width="4.85" height="4.84"/>
  <path d="M2262.54,434.5h-4.85v4.84h-4.85v4.84h-4.85v4.84h-4.85v4.84h-4.85v4.84h-4.85v9.68h-4.85v14.52h4.85v4.84h4.85v4.84h14.54v-4.84h9.69v-4.84h9.69v-4.84h4.85v-4.84h9.69v-4.84h4.85v-4.84h4.85v-4.84h4.85v-9.68h-4.85v-4.84h-4.85v-4.84h-4.85v-4.84h-4.85v-4.84h-19.38v4.84Zm0,43.56h-4.85v-4.84h-4.85v-4.84h-4.85v-4.84h4.85v4.84h4.85v4.84h4.85v4.84Zm9.69-38.72h4.85v4.84h4.85v4.84h4.85v4.84h4.85v4.84h-4.85v-4.84h-4.85v-4.84h-4.85v-4.84h-4.85v-4.84Zm0,19.36v4.84h4.85v4.84h-4.85v-4.84h-4.85v-4.84h-4.85v-4.84h-4.85v-4.84h4.85v4.84h4.85v4.84h4.85Z"/>
  <path d="M2228.62,434.5h-4.85v4.84h-4.85v4.84h-4.85v4.84h-4.85v9.68h-4.85v9.68h-4.85v14.52h4.85v4.84h4.85v9.68h4.85v33.88h4.85v-4.84h9.69v-4.84h9.69v-4.84h9.69v-4.84h9.69v-4.84h4.85v-4.84h9.69v-4.84h4.85v-4.84h9.69v-4.84h4.85v-4.84h9.69v-4.84h4.85v-4.84h4.85v-4.84h-14.54v4.84h-4.85v4.84h-9.69v4.84h-4.85v4.84h-9.69v4.84h-9.69v4.84h-24.23v-4.84h-4.85v-4.84h-4.85v-24.2h4.85v-9.68h4.85v-4.84h4.85v-4.84h4.85v-4.84h4.85v-4.84h4.85v-4.84h4.85v-4.84h4.85v-4.84h-24.23v4.84h-4.85v4.84h-4.85v4.84Z"/>
  <path d="M2330.38,381.26h19.38v-19.36h-19.38v19.36Z"/>
  <path d="M2291.62,381.26h19.38v-19.36h-19.38v19.36Z"/>
  <path d="M2330.38,361.9v-19.36h-19.38v19.36h19.38Z"/>
  <path d="M2291.62,361.9v-19.36h-19.38v19.36h19.38Z"/>
  <path d="M2252.85,361.9v-19.36h-19.38v19.36h19.38Z"/>
  <path d="M2214.08,361.9v-19.36h-19.38v19.36h19.38Z"/>
  <path d="M2330.38,323.17v-19.36h-19.38v19.36h19.38Z"/>
  <path d="M2214.08,323.17v-19.36h-19.38v19.36h19.38Z"/>
  <path d="M2272.23,303.81v19.36h19.38v-19.36h-19.38Z"/>
  <path d="M2252.85,289.29v-19.36h-19.38v19.36h19.38Z"/>
  <path d="M2286.77,255.41v-19.36h-19.38v19.36h19.38Z"/>
  <path d="M2257.69,211.85v-19.36h-19.38v19.36h19.38Z"/>
  <path d="M2286.77,177.97v-19.36h-19.38v19.36h19.38Z"/>
  <path d="M2257.69,148.93v-19.36h-19.38v19.36h19.38Z"/>
  <path d="M2501.1,568.79l-4.72-12.44-171.13-345.37V105.95h9.02c16.03,0,29.07-13.04,29.07-29.07s-13.04-29.07-29.07-29.07h-143.68c-16.03,0-29.07,13.04-29.07,29.07s13.04,29.07,29.07,29.07h9.02v105.03l-170.92,344.96-4.92,12.85c-3.67,9.67-4.93,20.2-3.67,30.46l.76,6.13c1.17,9.44,4.47,18.68,9.54,26.72l3.38,5.37c4.62,7.32,10.39,13.77,17.15,19.17l9.35,7.46c14.8,11.81,33.39,18.31,52.32,18.31h299.65c18.94,0,37.52-6.5,52.32-18.31l9.35-7.46c6.77-5.4,12.54-11.85,17.15-19.17l3.39-5.37c5.06-8.04,8.36-17.28,9.53-26.72l.76-6.13c1.27-10.26,0-20.79-3.67-30.46Zm-310.5-481.57c-5.71,0-10.35-4.64-10.35-10.35s4.64-10.35,10.35-10.35h143.68c5.71,0,10.35,4.64,10.35,10.35s-4.64,10.35-10.35,10.35h-143.68Zm93.05,576.47h-171.03c-14.71,0-29.15-5.05-40.65-14.22l-9.35-7.46c-5.12-4.09-9.49-8.97-12.99-14.52l-3.38-5.37c-3.61-5.73-5.96-12.31-6.8-19.04l-.76-6.13c-.9-7.25,0-14.69,2.59-21.52l4.4-11.59,172.67-348.48V105.95h88.18v109.41l172.67,348.48,4.4,11.59c2.59,6.83,3.49,14.27,2.59,21.52l-.76,6.12c-.83,6.73-3.18,13.31-6.79,19.04l-3.39,5.37c-3.49,5.55-7.86,10.43-12.99,14.52l-9.35,7.46c-11.5,9.17-25.94,14.22-40.65,14.22h-128.61Z"/>
</svg>