<svg width="138" height="60" viewBox="0 0 138 60" fill="none" xmlns="http://www.w3.org/2000/svg">
<g clip-path="url(#clip0_853_33331)">
<path d="M115.471 0.460938C115.471 0.460938 31.1963 0.460938 27.4405 0.460938C23.6848 0.460938 20.9254 4.41994 20.9254 4.41994C20.9254 4.41994 2.03166 28.9811 1.22685 30.0958C0.0771272 31.6333 0.422044 35.5154 1.22685 36.6301C3.48797 39.705 14.4487 54.7338 14.9469 55.3873C15.4834 56.0407 17.8978 59.6538 21.2703 59.6538C24.6429 59.6538 128.08 59.6538 129.919 59.6538C133.253 59.6538 137.431 51.8895 137.431 49.9677C137.431 48.0458 137.316 27.3283 137.316 25.1759C137.316 23.7537 136.319 21.9472 135.361 20.7556C134.48 19.6794 121.833 3.84338 120.721 2.49809C119.763 1.38342 117.579 0.460938 115.471 0.460938Z" fill="#4F4A54"/>
<path d="M115.74 1.15311C117.465 1.15311 119.572 2.42152 120.339 3.34401C121.45 4.65086 133.867 20.2562 134.902 21.5631C136.09 23.0621 136.78 24.4459 136.78 25.2915V50.0833C136.78 51.6208 132.641 58.8085 130.188 58.8085H21.1179C19.3933 58.8085 17.5537 57.5016 15.5609 54.9648C15.4842 54.8879 15.4459 54.811 15.4076 54.7726C15.1393 54.4266 11.5369 49.5067 8.35596 45.1634C5.5583 41.3581 2.68399 37.4375 1.64924 36.0154C1.15103 35.3619 0.806114 32.0179 1.64924 30.9033C2.45405 29.827 21.2329 5.49648 21.4245 5.26585L21.4628 5.22742L21.5011 5.18898C21.5011 5.15054 24.2221 1.15311 27.3264 1.15311H115.74ZM115.74 0C115.74 0 31.1588 0 27.3264 0C23.5323 0 20.5047 4.53555 20.5047 4.53555C20.5047 4.53555 1.5726 29.0967 0.729466 30.2114C-0.381933 31.7489 -0.0753398 35.631 0.729466 36.7457C3.02891 39.8206 13.9896 54.8495 14.5261 55.5029C15.0627 56.1563 17.7837 60 21.1562 60C24.5287 60 128.425 60 130.265 60C133.637 60 138.006 52.0051 138.006 50.1217C138.006 48.2383 138.006 27.4824 138.006 25.3299C138.006 23.9078 136.818 22.1012 135.86 20.9097C134.979 19.8334 122.37 3.99744 121.259 2.65215C120.301 1.49904 117.886 0 115.74 0Z" fill="black"/>
<path d="M84.8159 37.6679H35.5311C34.1131 37.6679 32.9634 36.5148 32.9634 35.0926V9.87801C32.9634 8.45584 34.1131 7.30273 35.5311 7.30273H84.8159C86.2339 7.30273 87.3836 8.45584 87.3836 9.87801V35.0926C87.3836 36.5148 86.2339 37.6679 84.8159 37.6679ZM35.5311 7.6871C34.343 7.6871 33.3466 8.68646 33.3466 9.87801V35.0926C33.3466 36.2842 34.343 37.2835 35.5311 37.2835H84.8159C86.0039 37.2835 87.0003 36.2842 87.0003 35.0926V9.87801C87.0003 8.68646 86.0039 7.6871 84.8159 7.6871H35.5311Z" fill="black"/>
<path d="M105.201 36.13C97.6897 36.13 91.5962 30.0186 91.5962 22.4849C91.5962 14.9513 97.6897 8.83984 105.201 8.83984C112.713 8.83984 118.806 14.9513 118.806 22.4849C118.806 30.0186 112.713 36.13 105.201 36.13ZM105.201 9.22421C97.9197 9.22421 91.9794 15.1819 91.9794 22.4849C91.9794 29.788 97.9197 35.7457 105.201 35.7457C112.483 35.7457 118.423 29.788 118.423 22.4849C118.423 15.1819 112.483 9.22421 105.201 9.22421Z" fill="black"/>
<path d="M125.165 36.1315C122.75 36.1315 120.757 34.1328 120.757 31.7113C120.757 29.2897 122.712 27.291 125.165 27.291C127.617 27.291 129.572 29.2897 129.572 31.7113C129.572 34.1328 127.579 36.1315 125.165 36.1315ZM125.126 27.6754C122.903 27.6754 121.102 29.4819 121.102 31.7113C121.102 33.9406 122.903 35.7471 125.126 35.7471C127.349 35.7471 129.15 33.9406 129.15 31.7113C129.15 29.4819 127.349 27.6754 125.126 27.6754Z" fill="black"/>
<path d="M125.128 35.7475C127.35 35.7475 129.152 33.9406 129.152 31.7117C129.152 29.4827 127.35 27.6758 125.128 27.6758C122.905 27.6758 121.104 29.4827 121.104 31.7117C121.104 33.9406 122.905 35.7475 125.128 35.7475Z" fill="#FE8A2C"/>
<path d="M126.009 33.8249H123.556C123.441 33.8249 123.364 33.748 123.364 33.6327V32.864C123.364 32.7487 123.441 32.6718 123.556 32.6718H125.818C126.048 32.6718 126.201 32.5949 126.316 32.4412C126.431 32.2874 126.508 32.0953 126.508 31.9031C126.508 31.5187 126.316 31.1728 125.856 31.1728H124.169V31.7493C124.169 31.8262 124.131 31.9031 124.054 31.9415C123.978 31.9799 123.901 31.9415 123.863 31.9031L122.751 30.75C122.674 30.6731 122.674 30.5578 122.751 30.4809L123.824 29.3278C123.863 29.2894 123.978 29.2509 124.016 29.2894C124.093 29.3278 124.131 29.4047 124.131 29.4815V29.9812H126.009C127.083 29.9812 127.619 30.9421 127.619 31.9031C127.619 32.4027 127.466 32.864 127.236 33.2099C126.929 33.5943 126.508 33.8249 126.009 33.8249ZM123.748 33.4405H126.009C126.393 33.4405 126.699 33.2868 126.929 32.9793C127.121 32.7102 127.236 32.3259 127.236 31.9031C127.236 31.1728 126.853 30.3656 126.009 30.3656H123.939C123.824 30.3656 123.748 30.2887 123.748 30.1734V29.8659L123.096 30.5578L123.748 31.2496V30.9421C123.748 30.8268 123.824 30.75 123.939 30.75H125.818C126.508 30.75 126.853 31.3265 126.853 31.8646C126.853 32.1721 126.776 32.4412 126.584 32.6334C126.393 32.864 126.086 33.0177 125.779 33.0177H123.709V33.4405H123.748Z" fill="black"/>
<path d="M105.202 35.7461C112.504 35.7461 118.424 29.809 118.424 22.4853C118.424 15.1616 112.504 9.22461 105.202 9.22461C97.8996 9.22461 91.98 15.1616 91.98 22.4853C91.98 29.809 97.8996 35.7461 105.202 35.7461Z" fill="#FE8A2C"/>
<path d="M105.202 26.9049C102.788 26.9049 100.795 24.9062 100.795 22.4847C100.795 20.0632 102.788 18.0645 105.202 18.0645C107.617 18.0645 109.609 20.0632 109.609 22.4847C109.609 24.9062 107.617 26.9049 105.202 26.9049ZM105.202 18.4488C102.979 18.4488 101.178 20.2554 101.178 22.4847C101.178 24.714 102.979 26.5206 105.202 26.5206C107.425 26.5206 109.226 24.714 109.226 22.4847C109.226 20.2554 107.425 18.4488 105.202 18.4488Z" fill="black"/>
<path d="M107.003 15.3748H103.438C103.284 15.3748 103.131 15.2979 103.093 15.1826C103.016 15.0673 103.016 14.9135 103.093 14.7598L104.894 11.7233C105.048 11.4542 105.469 11.4542 105.623 11.7233L107.424 14.7598C107.501 14.8751 107.501 15.0289 107.424 15.1826C107.271 15.2979 107.118 15.3748 107.003 15.3748ZM105.201 11.877C105.163 11.9155 105.201 11.877 105.201 11.877L103.399 14.9135V14.952C103.399 14.952 103.399 14.952 103.438 14.952H107.003H107.041V14.9135L105.201 11.877C105.239 11.9155 105.201 11.877 105.201 11.877Z" fill="black"/>
<path d="M105.201 33.4394C105.048 33.4394 104.895 33.3625 104.818 33.2472L103.016 30.2107C102.94 30.0954 102.94 29.9416 103.016 29.7879C103.093 29.6726 103.246 29.5957 103.361 29.5957H106.926C107.08 29.5957 107.233 29.6726 107.271 29.7879C107.348 29.9032 107.348 30.0569 107.271 30.2107L105.47 33.2472C105.508 33.3625 105.355 33.4394 105.201 33.4394ZM103.438 29.9801C103.4 29.9801 103.4 29.9801 103.438 29.9801C103.4 30.0185 103.4 30.0185 103.4 30.0569L105.201 33.1703C105.201 33.2088 105.24 33.2088 105.278 33.1703L107.08 30.0569V30.0185C107.08 30.0185 107.08 29.9801 107.041 29.9801H103.438Z" fill="black"/>
<path d="M112.715 24.677C112.639 24.677 112.562 24.677 112.524 24.6386C112.409 24.5617 112.332 24.408 112.332 24.2927V20.718C112.332 20.5643 112.409 20.4105 112.524 20.3721C112.639 20.2952 112.792 20.2952 112.945 20.3721L115.974 22.1786C116.089 22.2555 116.165 22.4093 116.165 22.563C116.165 22.7168 116.089 22.8705 115.974 22.9474L112.945 24.7539C112.83 24.677 112.792 24.677 112.715 24.677ZM112.715 20.6412C112.677 20.6412 112.677 20.6796 112.715 20.6412C112.677 20.6412 112.677 20.6796 112.677 20.6796V24.2542V24.2927H112.715L115.744 22.4861C115.744 22.4861 115.744 22.4861 115.744 22.4477V22.4093L112.715 20.6412C112.715 20.6796 112.715 20.6412 112.715 20.6412Z" fill="black"/>
<path d="M97.6885 24.6771C97.6119 24.6771 97.5352 24.6771 97.4969 24.6387L94.4685 22.8321C94.3535 22.7553 94.2769 22.6015 94.2769 22.4478C94.2769 22.294 94.3535 22.1403 94.4685 22.0634L97.4969 20.2569C97.6119 20.18 97.7652 20.18 97.9185 20.2569C98.0335 20.3337 98.1102 20.4875 98.1102 20.6028V24.1774C98.1102 24.3312 98.0335 24.4849 97.9185 24.5234C97.8419 24.6771 97.7652 24.6771 97.6885 24.6771ZM97.6885 20.6412C97.6885 20.6412 97.6885 20.6797 97.6885 20.6412L94.6602 22.4478C94.6602 22.4478 94.6602 22.4478 94.6602 22.4862V22.5247L97.6885 24.3312H97.7269C97.7269 24.3312 97.7269 24.3312 97.7269 24.2927V20.7181C97.7269 20.6797 97.7269 20.6797 97.6885 20.6412C97.7269 20.6797 97.7269 20.6412 97.6885 20.6412Z" fill="black"/>
<path d="M125.512 37.6679H105.392C96.8075 37.6679 90.0625 31.0952 90.0625 22.6775C90.0625 14.2214 96.9225 7.30273 105.392 7.30273C109.646 7.30273 113.708 9.07083 116.621 12.2227L129.613 27.9049C131.146 29.5577 131.108 31.2489 131.108 32.2483V32.4789C131.069 34.862 128.042 37.6679 125.512 37.6679ZM105.392 7.6871C97.1525 7.6871 90.4457 14.4136 90.4457 22.6775C90.4457 30.8646 96.9992 37.2835 105.392 37.2835H125.512C127.812 37.2835 130.686 34.6314 130.686 32.4405V32.2098C130.686 31.2489 130.724 29.673 129.306 28.1355L116.315 12.4533C113.479 9.41676 109.493 7.6871 105.392 7.6871Z" fill="black"/>
<path d="M130.112 46.1243H26.9433C23.4558 46.1243 22.1528 44.6637 20.16 42.4728L19.93 42.2038C18.0521 40.0897 15.4461 37.0148 13.8748 34.9776C12.4185 33.0942 12.9933 32.1717 14.1047 30.3652L14.1814 30.2499C14.7946 29.289 18.4354 24.1 21.9612 19.0648C25.487 14.068 29.1278 8.87898 29.8176 7.80275C31.6189 5.03529 33.9183 3.84375 37.5591 3.84375H114.054C115.434 3.84375 117.426 4.49718 118.653 5.95778L118.959 6.30371C126.854 15.7592 131.338 21.1788 132.335 22.4088C133.944 24.4459 134.174 25.3684 134.174 26.7906V42.05C134.136 43.9719 132.488 46.1243 130.112 46.1243ZM37.5591 4.22812C34.0716 4.22812 31.8488 5.34279 30.2009 7.99493C29.511 9.07117 25.8319 14.2601 22.3061 19.2954C18.7803 24.3306 15.1395 29.5196 14.5263 30.4805L14.4497 30.5958C13.2999 32.4024 12.8784 33.0942 14.1814 34.747C15.7144 36.7457 18.3204 39.8207 20.1983 41.9347L20.4282 42.2038C22.3827 44.3947 23.6091 45.74 26.905 45.74H130.073C132.22 45.74 133.714 43.7797 133.714 42.05V26.7906C133.714 25.4068 133.446 24.5997 131.951 22.6394C130.993 21.4094 126.509 15.9898 118.615 6.53433L118.308 6.1884C117.197 4.84311 115.28 4.22812 114.016 4.22812H37.5591Z" fill="black"/>
<path d="M36.0271 8.8418H84.3155C85.1586 8.8418 85.8484 9.5721 85.8484 10.4561V34.1333C85.8484 35.0173 85.1586 35.7476 84.3155 35.7476H36.0271C35.184 35.7476 34.4941 35.0173 34.4941 34.1333V10.4561C34.4941 9.5721 35.184 8.8418 36.0271 8.8418Z" fill="#FE8A2C"/>
<path d="M84.3166 35.9386H36.0283C35.0702 35.9386 34.3037 35.1315 34.3037 34.1321V10.455C34.3037 9.45561 35.0702 8.64844 36.0283 8.64844H84.3166C85.2747 8.64844 86.0412 9.45561 86.0412 10.455V34.1321C86.0412 35.1315 85.2747 35.9386 84.3166 35.9386ZM36.0283 9.03281C35.3001 9.03281 34.687 9.68623 34.687 10.455V34.1321C34.687 34.9008 35.3001 35.5543 36.0283 35.5543H84.3166C85.0448 35.5543 85.658 34.9008 85.658 34.1321V10.455C85.658 9.68623 85.0448 9.03281 84.3166 9.03281H36.0283Z" fill="black"/>
<path d="M61.1028 54.1662C59.5329 54.1662 57.8918 54.1662 56.322 54.1662V53.6042H56.8928C56.8928 53.3231 56.8928 52.6908 56.8928 52.4098H57.4636C57.4636 52.1288 57.4636 51.4965 57.4636 51.2154H58.0345C58.0345 50.7236 58.0345 49.9508 58.0345 49.459C57.7491 49.459 57.1069 49.459 56.8214 49.459C56.8214 49.74 56.8214 50.3723 56.8214 50.6534H56.2506C56.2506 50.9344 56.2506 51.5667 56.2506 51.8477H55.6798C55.6798 52.1288 55.6798 52.7611 55.6798 53.0421H55.1089C55.1089 53.3232 55.1089 53.9555 55.1089 54.2365H54.5381C54.5381 54.5175 54.5381 55.1499 54.5381 55.4309C56.8928 55.4309 59.3189 55.4309 61.6736 55.4309V54.8688H62.2444V54.1662C62.0304 54.1662 61.4595 54.1662 61.1028 54.1662Z" fill="#FF8200"/>
<path d="M66.5257 51.8478V51.2857H67.0965C67.0965 50.7939 67.0965 50.0211 67.0965 49.5293C66.8111 49.5293 66.1689 49.5293 65.8835 49.5293C65.8835 49.8103 65.8835 50.4426 65.8835 50.7237H65.3126C65.3126 51.0047 65.3126 51.637 65.3126 51.9181H64.7418C64.7418 52.1991 64.7418 52.8314 64.7418 53.1124H64.1709C64.1709 53.3935 64.1709 54.0258 64.1709 54.3068H63.6001C63.6001 54.5878 63.6001 55.2202 63.6001 55.5012C63.8855 55.5012 64.5277 55.5012 64.8131 55.5012V54.9391H65.384C65.384 54.6581 65.384 54.0258 65.384 53.7448H65.9548C65.9548 53.4637 65.9548 52.8314 65.9548 52.5504H66.5257V51.8478Z" fill="#FF8200"/>
<path d="M85.649 51.2154H86.2198V50.6534H86.7907C86.7907 50.3723 86.7907 49.74 86.7907 49.459C84.0078 49.459 81.225 49.459 78.4421 49.459C78.4421 49.74 78.4421 50.3723 78.4421 50.6534H77.8713C77.8713 50.9344 77.8713 51.5667 77.8713 51.8477H77.3004C77.3004 52.1288 77.3004 52.7611 77.3004 53.0421H76.6582C76.6582 53.3232 76.6582 53.9555 76.6582 54.2365H76.0874C76.0874 54.5175 76.0874 55.1499 76.0874 55.4309C76.3728 55.4309 77.015 55.4309 77.3004 55.4309V54.8688H77.8713C77.8713 54.5878 77.8713 53.9555 77.8713 53.6744H78.4421V53.1124C80.4401 53.1124 82.438 53.1124 84.436 53.1124V52.5503H85.0068V51.9883H85.5776V51.2154H85.649ZM84.436 51.2154H83.8651V51.7775C82.2953 51.7775 80.6541 51.7775 79.0843 51.7775V51.2154H79.6552V50.6534C81.225 50.6534 82.8661 50.6534 84.436 50.6534V51.2154Z" fill="#FF8200"/>
<path d="M76.0874 51.2154H76.6582V50.6534H77.2291C77.2291 50.3723 77.2291 49.74 77.2291 49.459C74.4462 49.459 71.6634 49.459 68.8805 49.459C68.8805 49.74 68.8805 50.3723 68.8805 50.6534H68.3097C68.3097 50.9344 68.3097 51.5667 68.3097 51.8477H67.7388C67.7388 52.1288 67.7388 52.7611 67.7388 53.0421H67.168C67.168 53.3232 67.168 53.9555 67.168 54.2365H66.5972C66.5972 54.5175 66.5972 55.1499 66.5972 55.4309C66.8826 55.4309 67.5248 55.4309 67.8102 55.4309V54.8688H68.381C68.381 54.5878 68.381 53.9555 68.381 53.6744H68.9519V53.1124C70.9498 53.1124 72.9478 53.1124 74.9457 53.1124V52.5503H75.5166V51.9883H76.0874V51.2154ZM74.8744 51.2154H74.3035V51.7775C72.7337 51.7775 71.0925 51.7775 69.5227 51.7775V51.2154H70.0936V50.6534C71.6634 50.6534 73.3045 50.6534 74.8744 50.6534V51.2154Z" fill="#FF8200"/>
<path d="M95.7813 50.6534V50.0914H96.3521V49.5293C93.5693 49.5293 90.7864 49.5293 88.0036 49.5293C88.0036 49.8103 88.0036 50.4426 88.0036 50.7237H87.4327C87.4327 51.0047 87.4327 51.637 87.4327 51.9181H86.8619C86.8619 52.1991 86.8619 52.8314 86.8619 53.1124H86.2911C86.2911 53.3935 86.2911 54.0258 86.2911 54.3068H85.7202C85.7202 54.5878 85.7202 55.2202 85.7202 55.5012C88.289 55.5012 90.9291 55.5012 93.4979 55.5012V54.9391H94.0688V54.1663C91.9281 54.1663 89.6447 54.1663 87.5041 54.1663V53.6042H88.0749V53.0422C89.8588 53.0422 91.6427 53.0422 93.4266 53.0422V52.4801H93.9974V51.9181C92.2135 51.9181 90.4297 51.9181 88.6458 51.9181V51.356H89.2166V50.6534C91.4286 50.6534 93.6406 50.6534 95.7813 50.6534Z" fill="#FF8200"/>
<path d="M55.1804 50.6534V50.0914H55.7513V49.5293C52.7543 49.5293 49.7574 49.5293 46.7605 49.5293C46.7605 49.8103 46.7605 50.4426 46.7605 50.7237H46.1897C46.1897 51.0047 46.1897 51.637 46.1897 51.9181H45.6188C45.6188 52.1991 45.6188 52.8314 45.6188 53.1124H45.048C45.048 53.3935 45.048 54.0258 45.048 54.3068H44.4772C44.4772 54.5878 44.4772 55.2202 44.4772 55.5012H43.835C43.835 55.7822 43.835 56.4145 43.835 56.6956C44.1204 56.6956 44.7626 56.6956 45.048 56.6956V56.1335H45.6188C45.6188 55.8525 45.6188 55.2202 45.6188 54.9391H46.1897C46.1897 54.6581 46.1897 54.0258 46.1897 53.7448H46.7605V53.1827C48.5444 53.1827 50.3283 53.1827 52.1122 53.1827V52.6206H52.683V52.0586C50.8991 52.0586 49.1152 52.0586 47.3314 52.0586V51.4965H47.9022V50.6534C50.3996 50.6534 52.8257 50.6534 55.1804 50.6534Z" fill="#FF8200"/>
<path d="M105.985 49.459C103.202 49.459 100.419 49.459 97.6365 49.459C97.6365 49.74 97.6365 50.3723 97.6365 50.6534H97.0657C97.0657 50.9344 97.0657 51.5667 97.0657 51.8477H96.4948C96.4948 52.1288 96.4948 52.7611 96.4948 53.0421H95.924C95.924 53.3232 95.924 53.9555 95.924 54.2365H95.2104C95.2104 54.5175 95.2104 55.1499 95.2104 55.4309C95.4959 55.4309 96.1381 55.4309 96.4235 55.4309V54.8688H96.9943C96.9943 54.5878 96.9943 53.9555 96.9943 53.6744H97.5652V53.1124C98.9209 53.1124 100.348 53.1124 101.775 53.1124V53.6744H102.346V54.1662H102.917V54.7283H103.488V55.2904H104.058V55.8524H104.629V56.4145C104.915 56.4145 105.557 56.4145 105.842 56.4145C105.842 56.1335 105.842 55.5011 105.842 55.2201H105.272V54.658H104.701V54.1662H104.13V53.6042H103.559C103.559 53.3231 103.559 52.6908 103.559 52.4098H104.13V51.8477H104.701V51.2857H105.272V50.6534H105.842V50.0913H106.413V49.5292H105.985V49.459ZM103.559 51.2154H102.988V51.7775C101.418 51.7775 99.7772 51.7775 98.2074 51.7775V51.2154H98.7782V50.6534C100.348 50.6534 101.989 50.6534 103.559 50.6534V51.2154Z" fill="#FF8200"/>
</g>
<defs>
<clipPath id="clip0_853_33331">
<rect width="138" height="60" fill="white"/>
</clipPath>
</defs>
</svg>
