<?xml version="1.0" encoding="utf-8"?>
<!-- Generator: Adobe Illustrator 27.0.1, SVG Export Plug-In . SVG Version: 6.00 Build 0)  -->
<svg version="1.1" id="Layer_1" xmlns="http://www.w3.org/2000/svg" xmlns:xlink="http://www.w3.org/1999/xlink" x="0px" y="0px"
	 viewBox="0 0 70 70" style="enable-background:new 0 0 70 70;" xml:space="preserve">
<path d="M40,60v5h5v5c2.49,0,7.51,0,10,0v-5h5v-5h5c0-2.49,0-7.51,0-10c-2.49,0-7.51,0-10,0c0-16.51,0-33.49,0-50
	c-2.49,0-7.51,0-10,0c0,16.51,0,33.49,0,50c-2.49,0-7.51,0-10,0c0,2.49,0,7.51,0,10H40z"/>
</svg>
