<?xml version="1.0" encoding="utf-8"?>
<!-- Generator: Adobe Illustrator 27.0.0, SVG Export Plug-In . SVG Version: 6.00 Build 0)  -->
<svg version="1.1" id="Layer_2" xmlns="http://www.w3.org/2000/svg" xmlns:xlink="http://www.w3.org/1999/xlink" x="0px" y="0px"
	 viewBox="0 0 512 512" style="enable-background:new 0 0 512 512;" xml:space="preserve">
<style type="text/css">
	.st0{fill:#FFFFFF;}
	.st1{fill:#FF8603;}
</style>
<g>
	<path class="st0" d="M279.54,269.03c0-1.94,0-5.86,0-7.81s0-5.87,0-7.81c-1.95,0-5.87,0-7.82,0c-1.95,0-5.87,0-7.82,0
		c0,4.89,0,10.73,0,15.62C263.9,269.03,274.64,269.03,279.54,269.03z"/>
	<path class="st0" d="M279.54,284.65c1.83,0,8.17,0,15.64,0c0-4.89,0-10.73,0-15.62c-4.9,0-10.74,0-15.64,0
		C279.54,273.92,279.54,279.75,279.54,284.65z"/>
	<path class="st0" d="M248.26,269.03c0-1.94,0-5.86,0-7.81s0-5.87,0-7.81c-1.95,0-5.87,0-7.82,0c-1.95,0-5.87,0-7.82,0
		c0,4.89,0,10.73,0,15.62C237.53,269.03,248.26,269.03,248.26,269.03z"/>
	<path class="st0" d="M216.99,269.03c0-4.89,0-10.73,0-15.62c-1.95,0-5.87,0-7.82,0c-1.95,0-5.87,0-7.82,0c0,4.89,0,10.73,0,15.62
		C206.25,269.03,212.09,269.03,216.99,269.03z"/>
	<path class="st0" d="M310.82,269.03c0-1.94,0-5.86,0-7.81s0-5.87,0-7.81c-1.95,0-5.87,0-7.82,0c-1.95,0-5.87,0-7.82,0
		c0,4.89,0,10.73,0,15.62C300.08,269.03,305.92,269.03,310.82,269.03z"/>
	<path class="st0" d="M310.82,276.84c0,1.94,0,5.86,0,7.81c7.47,0,13.81,0,15.64,0c0-4.89,0-10.73,0-15.62c-4.9,0-10.74,0-15.64,0
		C310.82,270.97,310.82,274.89,310.82,276.84z"/>
	<path class="st0" d="M427.69,467.69l2.73-4.33c2.91-4.62,4.81-9.93,5.48-15.36l0.61-4.94c0.72-5.85,0-11.85-2.09-17.37l-3.55-9.35
		L291.57,135.18v-1.77V46.91h-70.86h-0.29v86.51v1.77L81.12,416.34l-3.55,9.35c-2.09,5.51-2.81,11.51-2.09,17.36L76.1,448
		c0.67,5.42,2.57,10.74,5.48,15.36l2.73,4.33c2.82,4.47,6.34,8.41,10.48,11.71l7.54,6.02c9.28,7.4,20.92,11.47,32.79,11.47h0.29
		h103.77h0.29h33.36h0.29h103.77c11.87,0,23.52-4.07,32.79-11.47l7.54-6.02C421.35,476.1,424.88,472.16,427.69,467.69z
		 M295.18,206.55c4.9,0,10.74,0,15.64,0c0,4.89,0,10.73,0,15.62c-1.95,0-5.87,0-7.82,0c-1.95,0-5.87,0-7.82,0
		C295.18,217.27,295.18,211.44,295.18,206.55z M259.99,89.39c4.9,0,10.74,0,15.64,0c0,4.89,0,10.73,0,15.62c-1.95,0-5.87,0-7.82,0
		c-1.95,0-5.87,0-7.82,0C259.99,100.12,259.99,94.29,259.99,89.39z M279.54,206.55c0,4.89,0,10.73,0,15.62c-4.9,0-10.74,0-15.64,0
		c0-4.89,0-10.73,0-15.62c1.95,0,5.87,0,7.82,0C273.67,206.55,277.59,206.55,279.54,206.55z M259.99,151.87c4.9,0,10.74,0,15.64,0
		c0,4.89,0,10.73,0,15.62c-1.95,0-5.87,0-7.82,0c-1.95,0-5.87,0-7.82,0C259.99,162.6,259.99,156.77,259.99,151.87z M236.54,65.96
		c4.9,0,10.74,0,15.64,0c0,4.89,0,10.73,0,15.62c-1.95,0-5.87,0-7.82,0c-1.95,0-5.87,0-7.82,0
		C236.54,76.69,236.54,70.86,236.54,65.96z M236.54,116.73c4.9,0,10.74,0,15.64,0c0,4.89,0,10.73,0,15.62c-1.95,0-5.87,0-7.82,0
		c-1.95,0-5.87,0-7.82,0C236.54,127.46,236.54,121.62,236.54,116.73z M232.63,179.21c4.9,0,10.74,0,15.64,0c0,4.89,0,10.73,0,15.62
		c-1.95,0-5.87,0-7.82,0c-1.95,0-5.87,0-7.82,0C232.63,189.94,232.63,184.1,232.63,179.21z M201.35,206.55c4.9,0,10.74,0,15.64,0
		c0,4.89,0,10.73,0,15.62c-1.95,0-5.87,0-7.82,0c-1.95,0-5.87,0-7.82,0C201.35,217.27,201.35,211.44,201.35,206.55z M417.57,461.11
		c-2.09,3.31-4.69,6.22-7.75,8.66l-7.54,6.02c-7.1,5.67-16.02,8.79-25.12,8.79h-70.26c-11.17,0-22.54,0-33.8,0
		c-3.08,0-6.15,0-9.21,0h-24.44H135.41c-9.09,0-18.01-3.12-25.12-8.79l-7.54-6.02c-3.06-2.44-5.66-5.35-7.74-8.65l-2.73-4.33
		c-1.96-3.11-3.23-6.67-3.68-10.31l-0.61-4.94c-0.48-3.87,0-7.84,1.38-11.49l3.33-8.78l58.02-117.1l3.87-7.81L168.15,269
		c0.03,0.01,0.06,0.01,0.09,0.02c5.72,0,11.88,0,17.47,0c0-4.89,0-10.73,0-15.62c4.9,0,10.74,0,15.64,0c0-4.89,0-10.73,0-15.62
		c4.9,0,10.74,0,15.64,0c0,4.89,0,10.73,0,15.62c4.9,0,10.74,0,15.64,0c0-4.89,0-10.73,0-15.62c4.9,0,10.74,0,15.64,0
		c0,4.89,0,10.73,0,15.62c4.9,0,10.74,0,15.64,0c0-4.89,0-10.73,0-15.62c4.9,0,10.74,0,15.64,0c0,4.89,0,10.73,0,15.62
		c4.9,0,10.74,0,15.64,0c0-4.89,0-10.73,0-15.62c4.9,0,10.74,0,15.64,0c0,4.89,0,10.73,0,15.62c4.9,0,10.74,0,15.64,0
		c0,4.89,0,10.73,0,15.62c5.76,0,12.12,0,17.98,0l75.43,152.24l3.33,8.79c1.38,3.65,1.86,7.62,1.38,11.49l-0.61,4.94
		c-0.45,3.64-1.72,7.21-3.68,10.32L417.57,461.11z"/>
	<path class="st0" d="M306.68,31.8h7.28c4.61,0,8.35-3.75,8.35-8.35c0-4.6-3.74-8.35-8.35-8.35H198.04c-4.6,0-8.35,3.75-8.35,8.35
		c0,4.6,3.74,8.35,8.35,8.35h7.28H306.68z"/>
	<polygon class="st1" points="111.43,409.61 111.43,405.7 109.95,405.7 107.52,405.7 107.52,409.61 108.32,409.61 	"/>
	<polygon class="st1" points="111.43,405.7 115.34,405.7 115.34,401.8 111.59,401.8 111.43,401.8 111.43,402.18 	"/>
	<polygon class="st1" points="115.34,397.89 115.34,393.99 115.11,393.99 111.43,393.99 111.43,397.89 113.35,397.89 	"/>
	<path class="st1" d="M267.81,479.9v-3.91c1.95,0,5.87,0,7.82,0v-3.91c3.48,0,8.25,0,11.73,0v-0.61v-3.3c4.9,0,10.74,0,15.64,0
		v-3.91c0.97,0,2.44,0,3.91,0c1.47,0,2.94,0,3.91,0c0.97,0,2.44,0,3.91,0c1.47,0,2.94,0,3.91,0v-3.91c1.18,0,2.53,0,3.91,0
		c1.3,0,2.61,0,3.91,0c1.38,0,2.73,0,3.91,0v-3.91c1.18,0,2.53,0,3.91,0c1.3,0,2.61,0,3.91,0c1.38,0,2.73,0,3.91,0v-3.91
		c1.18,0,2.53,0,3.91,0c1.3,0,2.61,0,3.91,0c1.38,0,2.73,0,3.91,0v-3.91c0.97,0,2.44,0,3.91,0c1.47,0,2.94,0,3.91,0v-3.91h3.91
		v-3.91h3.91v-3.91h3.91v-3.91h3.91c0-3.48,0-8.24,0-11.72h-3.91v3.91c-1.95,0-5.87,0-7.82,0v3.91c-3.48,0-8.25,0-11.73,0v3.91
		c-4.9,0-10.74,0-15.64,0v3.91c-6.27,0-13.28,0-19.55,0v3.91c-16.92,0-33.87,0-50.82,0c-18.26,0-36.51,0-54.73,0v-3.91
		c-1.95,0-5.87,0-7.82,0v-3.91h-3.91v-3.91c1.95,0,5.87,0,7.82,0v3.91c1.95,0,5.87,0,7.82,0v3.91c4.9,0,10.74,0,15.64,0v-3.91
		c3.48,0,8.25,0,11.73,0v-3.91c1.95,0,5.87,0,7.82,0v-3.91c1.95,0,5.87,0,7.82,0v-3.91h3.91v-3.91h3.91v-3.91h3.91v-3.91h3.91v-3.91
		h3.91v-3.91h3.91v-3.91h3.91v-3.91h3.91v-3.91h3.91v-3.91h3.91v-3.91H303v-3.91h3.91v-3.91h3.91v-3.91h3.91v-3.91h3.91v-3.91h3.91
		v-3.91h3.91v-3.91c1.95,0,5.87,0,7.82,0v-3.91c1.95,0,5.87,0,7.82,0v-3.91c3.48,0,8.25,0,11.73,0v-3.91c3.74,0,8.01,0,12.01,0
		c1.24,0,2.47,0,3.63,0v-3.91h-3.91v-3.91c-1.07,0-2.28,0-3.52,0c-0.13,0-0.26,0-0.39,0c-1.3,0-2.61,0-3.91,0c-1.38,0-2.73,0-3.91,0
		v-3.91c-1.29,0-2.6,0-3.91,0c-1.3,0-2.6,0-3.91,0c-1.3,0-2.6,0-3.91,0c-1.31,0-2.6,0-3.91,0s-2.61,0-3.91,0c-1.31,0-2.61,0-3.91,0
		c-1.31,0-2.62,0-3.91,0v3.91c-0.97,0-2.44,0-3.91,0c-1.47,0-2.94,0-3.91,0v3.91c-0.97,0-2.44,0-3.91,0c-1.47,0-2.94,0-3.91,0v3.91
		c-0.97,0-2.44,0-3.91,0c-1.47,0-2.94,0-3.91,0v3.91c-1.95,0-5.87,0-7.82,0v3.91h-3.91v3.91c-1.95,0-5.87,0-7.82,0v3.91h-3.91v3.91
		c-1.95,0-5.87,0-7.82,0v3.91h-3.91v3.91c-1.95,0-5.87,0-7.82,0v3.91h-3.91v3.91c-1.95,0-5.87,0-7.82,0v3.91c-1.95,0-5.87,0-7.82,0
		v3.91c-1.95,0-5.87,0-7.82,0v3.91c-1.95,0-5.87,0-7.82,0v3.91c-3.48,0-8.25,0-11.73,0c0-8.94,0-18.4,0-27.34h-3.91
		c0-1.95,0-5.87,0-7.81h-3.91v-3.91h-3.91v-3.91h-3.91v-3.91c-1.95,0-5.87,0-7.82,0v-3.91c-11.59,0-23.59,0-35.19,0v3.91
		c-1.95,0-5.87,0-7.82,0v3.91h-3.91v3.91h-3.91v3.91h-3.91c0,1.95,0,5.87,0,7.81h-3.91c0,11.58,0,23.57,0,35.15h3.91
		c0,1.95,0,5.87,0,7.81h3.91v3.91h3.91v3.91h3.91c0-1.95,0-5.87,0-7.81h-3.91v-3.91h-3.91c0-1.95,0-5.87,0-7.81h-3.91
		c0-8.94,0-18.4,0-27.34h3.91c0-1.95,0-5.87,0-7.81h3.91v-3.91h3.91v-3.91h3.91v-3.91c1.95,0,5.87,0,7.82,0v-3.91
		c8.95,0,18.42,0,27.37,0v3.91c1.95,0,5.87,0,7.82,0v3.91h3.91v3.91h3.91v3.91h3.91c0,1.95,0,5.87,0,7.81h3.91
		c0,10.26,0,20.98,0,31.24c-1.18,0-2.53,0-3.91,0c-2.68,0-5.52,0-7.82,0v-3.91c-4.9,0-10.74,0-15.64,0v3.91c-3.48,0-8.25,0-11.73,0
		v3.91c-1.95,0-5.87,0-7.82,0v3.91h-3.91v3.91h-3.91c0,1.95,0,5.87,0,7.81h-3.91c0,1.95,0,5.87,0,7.81h-3.91v-3.91h-3.91v3.91h-3.91
		v3.91h-3.91v3.91h-3.91v-3.91h-3.91v3.91h-3.91v-3.91h-3.91v-3.91h-3.91v-3.91h-3.91v3.91h-3.91v-3.91h3.91v-3.91h-3.91v-3.91
		h-2.22h-1.69v-3.91h3.18h0.73v-1.91v-2h-3.91v-3.91h3.91v-3.91h3.91v-3.91h-3.91v-3.91h3.91v-3.91h3.91v3.39v0.51h3.91v-3.91h3.91
		v3.91h3.91c0-8.02,0-16.31,0-24.45c0-2.28,0-4.55,0-6.79h3.45h0.46c0-0.27,0-0.58,0-0.91c0-2.08,0-5.22,0-6.9h3.49h0.42v-0.83
		v-3.07h1.55h2.36v-3.91h3.91v-3.91c1.95,0,5.87,0,7.82,0v-3.91c14.22,0,28.78,0,43,0v3.91c1.95,0,5.87,0,7.82,0v-3.91h-3.91v-3.91
		h3.91v-3.91h-3.91v-3.91h3.91v-3.91h-3.91v-3.91h3.91v-3.91h3.91v-3.91c-1.95,0-5.87,0-7.82,0v-3.91c-3.48,0-8.25,0-11.73,0v-3.91
		c-8.3,0-16.73,0-25.14,0c-3.29,0-6.58,0-9.85,0l-58.02,117.1l-3.33,8.78c-1.38,3.65-1.86,7.62-1.38,11.49l0.61,4.94
		c0.45,3.64,1.72,7.2,3.68,10.31l2.73,4.33c2.08,3.3,4.68,6.21,7.74,8.65l7.54,6.02c7.11,5.67,16.03,8.79,25.12,8.79h104.05h24.44
		v-4.68H267.81z"/>
	<path class="st1" d="M424.59,441.54c0.48-3.87,0-7.84-1.38-11.49l-3.33-8.79l-75.43-152.24c-5.86,0-12.23,0-17.98,0
		c0,4.89,0,10.73,0,15.62c-1.83,0-8.17,0-15.64,0c0-1.95,0-5.87,0-7.81c0-1.95,0-5.87,0-7.81c-4.9,0-10.74,0-15.64,0
		c0,4.89,0,10.73,0,15.62c-7.47,0-13.81,0-15.64,0c0-4.89,0-10.73,0-15.62c-4.9,0-15.64,0-15.64,0c0-4.89,0-10.73,0-15.62
		c-4.9,0-10.74,0-15.64,0c0,1.95,0,5.87,0,7.81s0,5.87,0,7.81c0,0-10.74,0-15.64,0c0-4.89,0-10.73,0-15.62c-4.9,0-10.74,0-15.64,0
		c0,4.89,0,10.73,0,15.62c-4.9,0-10.74,0-15.64,0c0-4.89,0-10.73,0-15.62c-4.9,0-10.74,0-15.64,0c0,4.89,0,10.73,0,15.62
		c-5.59,0-11.75,0-17.47,0c-0.03-0.01-0.06-0.01-0.09-0.02l-13.55,27.36h3.75v-3.91h3.91v-3.91c1.77,0,5.17,0,7.23,0
		c0.2,0,0.41,0,0.59,0v-0.97v-2.94c0.59,0,1.19,0,1.78,0c18.89,0,37.99,0,56.87,0v3.91c7.61,0,15.84,0,23.46,0v3.91
		c1.95,0,5.87,0,7.82,0v3.91c1.95,0,5.87,0,7.82,0v3.91c1.95,0,5.87,0,7.82,0v3.91h3.91v3.91h3.91v3.91h3.91v3.91h3.91v3.91h3.91
		c0,1.95,0,5.87,0,7.81h3.91c0,1.95,0,5.87,0,7.81c1.95,0,5.87,0,7.82,0v-3.91c1.95,0,5.87,0,7.82,0v-3.91c1.95,0,5.87,0,7.82,0
		v-3.91c11.16,0,22.7,0,33.89,0c0.43,0,0.87,0,1.3,0v2.72v1.19c0.18,0,0.39,0,0.57,0c3.42,0,7.86,0,11.16,0v3.91h3.91v3.91h3.91
		c0,3.48,0,8.24,0,11.72h-3.91v3.91h-3.62h-0.29v3.91h-3.91v3.91h-3.91v3.91h-3.91v3.91h-3.91v3.91h-3.91v3.91H346v3.91h-3.91v3.91
		h-3.91v3.91h-3.91v3.91h-3.91v3.91h-3.91v3.91h-3.91v3.91h-3.91v3.91h-3.91v3.91c19.48,0,39.14,0,58.64,0c1.3,0,2.61,0,3.91,0v3.91
		h3.91v3.91h3.91c0,6.26,0,13.27,0,19.53h-3.91v3.91h-3.91v3.91h-3.91v3.91h-3.91v3.91h-3.91v3.91c-1.95,0-5.87,0-7.82,0v3.91
		c-3.48,0-8.25,0-11.73,0v3.91c-3.48,0-8.25,0-11.73,0v3.91c-3.48,0-8.25,0-11.73,0v2.71v1.2c-4.9,0-10.74,0-15.64,0
		c0,3.48,0,9.02,0,12.49h70.26c9.09,0,18.01-3.12,25.12-8.79l7.54-6.02c3.06-2.44,5.66-5.35,7.75-8.66l2.73-4.32
		c1.96-3.11,3.23-6.67,3.68-10.32L424.59,441.54z"/>
	<path class="st1" d="M213.08,311.98h3.91v-3.91h3.91v-3.91h3.91v-3.91h3.91v-3.91h-3.91v-3.91h-3.91c-1.29,0-2.61,0-3.91,0
		c-1.3,0-2.61,0-3.91,0c-1.3,0-2.61,0-3.91,0c-1.3,0-2.6,0-3.91,0s-2.6,0-3.91,0c-1.31,0-2.6,0-3.91,0c-1.31,0-2.6,0-3.91,0
		c-1.31,0-2.6,0-3.91,0c-1.31,0-2.61,0-3.91,0c-1.3,0-2.61,0-3.91,0c-1.3,0-2.61,0-3.91,0c-1.3,0-2.61,0-3.91,0v3.91
		c-1.18,0-2.53,0-3.91,0c-1.3,0-2.61,0-3.91,0c-0.42,0-0.82,0-1.22,0c-0.94,0-1.86,0-2.69,0v3.91c0.16,0,0.32,0,0.47,0
		c8.81,0,18.1,0,26.89,0v3.91c3.48,0,8.25,0,11.73,0v3.91c3.48,0,8.25,0,11.73,0V311.98z"/>
	<rect x="130.98" y="429.13" class="st1" width="3.91" height="3.91"/>
	<rect x="123.16" y="429.13" class="st1" width="3.91" height="3.91"/>
	<path class="st1" d="M361.64,417.42c-1.3,0-2.61,0-3.91,0c-1.3,0-2.6,0-3.91,0s-2.6,0-3.91,0c-1.31,0-2.6,0-3.91,0
		c-1.31,0-2.6,0-3.91,0c-1.31,0-2.6,0-3.91,0s-2.61,0-3.91,0c-1.3,0-2.61,0-3.91,0c-1.3,0-2.61,0-3.91,0c-1.3,0-2.61,0-3.91,0v3.91
		c1.95,0,5.87,0,7.82,0v3.91c1.95,0,5.87,0,7.82,0v3.91h3.91c1.95,0,5.87,0,7.82,0v-3.91c3.48,0,8.25,0,11.73,0v-3.91
		c1.95,0,5.87,0,7.82,0v-3.91c-1.29,0-2.61,0-3.91,0C364.25,417.42,362.94,417.42,361.64,417.42z"/>
	<rect x="134.89" y="425.23" class="st1" width="3.91" height="3.91"/>
	<rect x="127.07" y="425.23" class="st1" width="3.91" height="3.91"/>
	<rect x="119.25" y="425.23" class="st1" width="3.91" height="3.91"/>
	<path class="st1" d="M326.46,425.23c-1.95,0-5.87,0-7.82,0v-3.91h-3.91c-2.3,0-5.14,0-7.82,0c-1.38,0-2.73,0-3.91,0v-3.91
		c-7.61,0-15.84,0-23.46,0v3.91h-3.91v3.91h-3.91v3.91h-3.91c0,1.95,0,5.87,0,7.81c15.54,0,31.38,0,46.91,0v-3.91
		c6.27,0,13.28,0,19.55,0v-3.91c-1.95,0-5.87,0-7.82,0V425.23z"/>
	<rect x="138.8" y="421.32" class="st1" width="3.91" height="3.91"/>
	<rect x="130.98" y="421.32" class="st1" width="3.91" height="3.91"/>
	<rect x="123.16" y="421.32" class="st1" width="3.91" height="3.91"/>
	<rect x="115.34" y="421.32" class="st1" width="3.91" height="3.91"/>
	<rect x="134.89" y="417.42" class="st1" width="3.91" height="3.91"/>
	<rect x="127.07" y="417.42" class="st1" width="3.91" height="3.91"/>
	<rect x="119.25" y="417.42" class="st1" width="3.91" height="3.91"/>
	<rect x="111.43" y="417.42" class="st1" width="3.91" height="3.91"/>
	<rect x="130.98" y="413.51" class="st1" width="3.91" height="3.91"/>
	<rect x="123.16" y="413.51" class="st1" width="3.91" height="3.91"/>
	<rect x="115.34" y="413.51" class="st1" width="3.91" height="3.91"/>
	<rect x="107.52" y="413.51" class="st1" width="3.91" height="3.91"/>
	<rect x="127.07" y="409.61" class="st1" width="3.91" height="3.91"/>
	<rect x="119.25" y="409.61" class="st1" width="3.91" height="3.91"/>
	<rect x="111.43" y="409.61" class="st1" width="3.91" height="3.91"/>
	<rect x="123.16" y="405.7" class="st1" width="3.91" height="3.91"/>
	<rect x="115.34" y="405.7" class="st1" width="3.91" height="3.91"/>
	<path class="st1" d="M146.62,405.7h3.91v3.91h3.91c0-1.95,0-5.87,0-7.81h-3.91c0-1.95,0-5.87,0-7.81h-3.91c0-6.26,0-13.27,0-19.53
		h3.91c0-1.95,0-5.87,0-7.81h3.91v-3.91c1.95,0,5.87,0,7.82,0v-3.91c6.27,0,13.28,0,19.55,0v3.91c1.95,0,5.87,0,7.82,0v3.91h3.91
		c0,1.95,0,5.87,0,7.81h3.91c0,6.26,0,13.27,0,19.53h3.91v3.91h3.91c0-7.6,0-15.83,0-23.43h-3.91c0-1.95,0-5.87,0-7.81h-3.91v-3.91
		h-3.91v-3.91h-3.91v-3.91c-1.95,0-5.87,0-7.82,0v-3.91c-6.27,0-13.28,0-19.55,0v3.91c-1.95,0-5.87,0-7.82,0v3.91h-3.91v3.91h-3.91
		v3.91h-3.91c0,1.95,0,5.87,0,7.81h-3.91c0,6.26,0,13.27,0,19.53h3.91c0,1.95,0,5.87,0,7.81h3.91V405.7z"/>
	<rect x="119.25" y="401.8" class="st1" width="3.91" height="3.91"/>
	<rect x="123.16" y="397.89" class="st1" width="3.91" height="3.91"/>
	<rect x="115.34" y="397.89" class="st1" width="3.91" height="3.91"/>
	<rect x="119.25" y="393.99" class="st1" width="3.91" height="3.91"/>
	<path class="st1" d="M162.25,374.46c0,3.48,0,8.24,0,11.72c3.48,0,8.25,0,11.73,0c0-3.48,0-8.24,0-11.72c-1.95,0-5.87,0-7.82,0
		H162.25z"/>
	<rect x="201.35" y="327.6" class="st1" width="3.91" height="3.91"/>
	<rect x="201.35" y="319.79" class="st1" width="3.91" height="3.91"/>
	<rect x="205.26" y="315.89" class="st1" width="3.91" height="3.91"/>
	<path class="st1" d="M256.08,311.98h-3.91v3.91h-3.91v3.91h-3.91v3.91h-3.91v3.91h-3.91v3.91h-3.91c0,1.95,0,5.87,0,7.81h-3.91
		c0,3.48,0,8.24,0,11.72h3.91v3.91h3.91v3.91c3.48,0,8.25,0,11.73,0v-3.91c1.95,0,5.87,0,7.82,0v-3.91c1.95,0,5.87,0,7.82,0v-3.91
		h3.91v-3.91c1.95,0,5.87,0,7.82,0v-3.91h3.91v-3.91h3.91v-3.91h3.91c0-0.97,0-2.44,0-3.91c0-1.47,0-2.93,0-3.91h-3.91v-3.91h-3.91
		v-3.91h-3.91v-3.91h-3.91v-3.91h-3.91c-1.18,0-2.53,0-3.91,0c-2.68,0-5.52,0-7.82,0V311.98z M256.08,347.13h-3.91v-3.91h-3.91
		v-3.91h-3.91v-3.91h3.91v3.91h3.91v3.91h3.91V347.13z M263.9,315.89h3.91v3.91h3.91v3.91h3.91v3.91h3.91v3.91h-3.91v-3.91h-3.91
		v-3.91h-3.91v-3.91h-3.91V315.89z M263.9,331.51v3.91h3.91v3.91h-3.91v-3.91h-3.91v-3.91h-3.91v-3.91h-3.91v-3.91h3.91v3.91h3.91
		v3.91H263.9z"/>
	<path class="st1" d="M283.45,339.32v3.91h-3.91v3.91c-1.95,0-5.87,0-7.82,0v3.91h-3.91v3.91c-1.95,0-5.87,0-7.82,0v3.91
		c-1.95,0-5.87,0-7.82,0v3.91c-6.27,0-13.28,0-19.55,0v-3.91h-3.91v-3.91h-3.91c0-6.26,0-13.27,0-19.53h3.91c0-1.95,0-5.87,0-7.81
		h3.91v-3.91h3.91v-3.91h3.91v-3.91h3.91v-3.91h3.91v-3.91h3.91v-3.91h3.91v-3.91c-0.97,0-2.44,0-3.91,0c-1.47,0-2.94,0-3.91,0
		c-1.18,0-2.53,0-3.91,0c-2.68,0-5.52,0-7.82,0v3.91h-3.91v3.91h-3.91v3.91h-3.91v3.91h-3.91v3.91h-3.91v3.91h-3.91
		c0,1.95,0,5.87,0,7.81h-3.91c0,1.95,0,5.87,0,7.81h-3.91c0,3.48,0,8.24,0,11.72h3.91v3.91h3.91c0,1.95,0,5.87,0,7.81h3.91
		c0,8.94,0,18.4,0,27.34h3.91v-3.91c1.95,0,5.87,0,7.82,0v-3.91c1.95,0,5.87,0,7.82,0v-3.91c1.95,0,5.87,0,7.82,0v-3.91
		c1.95,0,5.87,0,7.82,0v-3.91h3.91v-3.91c1.95,0,5.87,0,7.82,0v-3.91h3.91v-3.91c1.95,0,5.87,0,7.82,0v-3.91h3.91v-3.91
		c1.95,0,5.87,0,7.82,0v-3.91h3.91v-3.91h3.91v-3.91c-1.18,0-2.53,0-3.91,0C288.59,339.32,285.75,339.32,283.45,339.32z"/>
	<path class="st1" d="M310.82,269.03c4.9,0,10.74,0,15.64,0c0-4.89,0-10.73,0-15.62c-4.9,0-10.74,0-15.64,0c0,1.95,0,5.87,0,7.81
		S310.82,267.08,310.82,269.03z"/>
	<path class="st1" d="M279.54,269.03c4.9,0,10.74,0,15.64,0c0-4.89,0-10.73,0-15.62c-4.9,0-10.74,0-15.64,0c0,1.95,0,5.87,0,7.81
		S279.54,267.08,279.54,269.03z"/>
	<path class="st1" d="M310.82,253.41c0-4.89,0-10.73,0-15.62c-4.9,0-10.74,0-15.64,0c0,4.89,0,10.73,0,15.62c1.95,0,5.87,0,7.82,0
		C304.95,253.41,308.87,253.41,310.82,253.41z"/>
	<path class="st1" d="M279.54,253.41c0-4.89,0-10.73,0-15.62c-4.9,0-10.74,0-15.64,0c0,4.89,0,10.73,0,15.62c1.95,0,5.87,0,7.82,0
		C273.67,253.41,277.59,253.41,279.54,253.41z"/>
	<path class="st1" d="M248.26,253.41c0-4.89,0-10.73,0-15.62c-4.9,0-10.74,0-15.64,0c0,4.89,0,10.73,0,15.62c1.95,0,5.87,0,7.82,0
		C242.39,253.41,246.32,253.41,248.26,253.41z"/>
	<path class="st1" d="M216.99,253.41c0-4.89,0-10.73,0-15.62c-4.9,0-10.74,0-15.64,0c0,4.89,0,10.73,0,15.62c1.95,0,5.87,0,7.82,0
		C211.12,253.41,215.04,253.41,216.99,253.41z"/>
	<path class="st1" d="M310.82,222.17c0-4.89,0-10.73,0-15.62c-4.9,0-10.74,0-15.64,0c0,4.89,0,10.73,0,15.62c1.95,0,5.87,0,7.82,0
		C304.95,222.17,308.87,222.17,310.82,222.17z"/>
	<path class="st1" d="M216.99,222.17c0-4.89,0-10.73,0-15.62c-4.9,0-10.74,0-15.64,0c0,4.89,0,10.73,0,15.62c1.95,0,5.87,0,7.82,0
		C211.12,222.17,215.04,222.17,216.99,222.17z"/>
	<path class="st1" d="M263.9,206.55c0,4.89,0,10.73,0,15.62c4.9,0,10.74,0,15.64,0c0-4.89,0-10.73,0-15.62c-1.95,0-5.87,0-7.82,0
		C269.77,206.55,265.85,206.55,263.9,206.55z"/>
	<path class="st1" d="M248.26,194.83c0-4.89,0-10.73,0-15.62c-4.9,0-10.74,0-15.64,0c0,4.89,0,10.73,0,15.62c1.95,0,5.87,0,7.82,0
		C242.39,194.83,246.32,194.83,248.26,194.83z"/>
	<path class="st1" d="M275.63,167.49c0-4.89,0-10.73,0-15.62c-4.9,0-10.74,0-15.64,0c0,4.89,0,10.73,0,15.62c1.95,0,5.87,0,7.82,0
		C269.76,167.49,273.68,167.49,275.63,167.49z"/>
	<path class="st1" d="M252.17,132.35c0-4.89,0-10.73,0-15.62c-4.9,0-10.74,0-15.64,0c0,4.89,0,10.73,0,15.62c1.95,0,5.87,0,7.82,0
		C246.3,132.35,250.23,132.35,252.17,132.35z"/>
	<path class="st1" d="M275.63,105.01c0-4.89,0-10.73,0-15.62c-4.9,0-10.74,0-15.64,0c0,4.89,0,10.73,0,15.62c1.95,0,5.87,0,7.82,0
		C269.76,105.01,273.68,105.01,275.63,105.01z"/>
	<path class="st1" d="M252.17,81.58c0-4.89,0-10.73,0-15.62c-4.9,0-10.74,0-15.64,0c0,4.89,0,10.73,0,15.62c1.95,0,5.87,0,7.82,0
		C246.3,81.58,250.23,81.58,252.17,81.58z"/>
	<rect x="130.98" y="433.04" width="3.91" height="3.91"/>
	<rect x="123.16" y="433.04" width="3.91" height="3.91"/>
	<rect x="134.89" y="429.13" width="3.91" height="3.91"/>
	<rect x="127.07" y="429.13" width="3.91" height="3.91"/>
	<rect x="119.25" y="429.13" width="3.91" height="3.91"/>
	<rect x="138.8" y="425.23" width="3.91" height="3.91"/>
	<rect x="130.98" y="425.23" width="3.91" height="3.91"/>
	<rect x="123.16" y="425.23" width="3.91" height="3.91"/>
	<rect x="115.34" y="425.23" width="3.91" height="3.91"/>
	<rect x="107.52" y="425.23" width="3.91" height="3.91"/>
	<rect x="134.89" y="421.32" width="3.91" height="3.91"/>
	<rect x="127.07" y="421.32" width="3.91" height="3.91"/>
	<rect x="119.25" y="421.32" width="3.91" height="3.91"/>
	<rect x="111.43" y="421.32" width="3.91" height="3.91"/>
	<rect x="130.98" y="417.42" width="3.91" height="3.91"/>
	<rect x="123.16" y="417.42" width="3.91" height="3.91"/>
	<rect x="115.34" y="417.42" width="3.91" height="3.91"/>
	<rect x="107.52" y="417.42" width="3.91" height="3.91"/>
	<path d="M322.55,472.09v-1.2v-2.71c3.48,0,8.25,0,11.73,0v-3.91c3.48,0,8.25,0,11.73,0v-3.91c3.48,0,8.25,0,11.73,0v-3.91
		c1.95,0,5.87,0,7.82,0v-3.91h3.91v-3.91h3.91v-3.91h3.91v-3.91h3.91v-3.91h3.91c0-6.26,0-13.27,0-19.53h-3.91v-3.91h-3.91v-3.91
		c-1.3,0-2.61,0-3.91,0c-19.5,0-39.17,0-58.64,0v-3.91h3.91v-3.91h3.91v-3.91h3.91v-3.91h3.91v-3.91h3.91v-3.91h3.91v-3.91h3.91
		v-3.91H346v-3.91h3.91v-3.91h3.91v-3.91h3.91v-3.91h3.91v-3.91h3.91v-3.91h3.91v-3.91h0.29h3.62v-3.91h3.91c0-3.48,0-8.24,0-11.72
		h-3.91v-3.91h-3.91v-3.91c-3.31,0-7.74,0-11.16,0c-0.18,0-0.39,0-0.57,0v-1.19v-2.72c-0.43,0-0.87,0-1.3,0
		c-11.19,0-22.72,0-33.89,0v3.91c-1.95,0-5.87,0-7.82,0v3.91c-1.95,0-5.87,0-7.82,0v3.91c-1.95,0-5.87,0-7.82,0
		c0-1.94,0-5.86,0-7.81h-3.91c0-1.94,0-5.86,0-7.81h-3.91v-3.91h-3.91v-3.91h-3.91v-3.91h-3.91v-3.91h-3.91v-3.91
		c-1.95,0-5.87,0-7.82,0v-3.91c-1.95,0-5.87,0-7.82,0v-3.91c-1.95,0-5.87,0-7.82,0v-3.91c-7.61,0-15.84,0-23.46,0v-3.91
		c-18.88,0-37.98,0-56.87,0c-0.59,0-1.19,0-1.78,0v2.94v0.97c-0.17,0-0.38,0-0.59,0c-2.07,0-5.46,0-7.23,0v3.91h-3.91v3.91h-3.75
		l-3.87,7.81c3.26,0,6.56,0,9.85,0c8.41,0,16.83,0,25.14,0v3.91c3.48,0,8.25,0,11.73,0v3.91c1.95,0,5.87,0,7.82,0v3.91h3.91v3.91
		h-3.91v3.91h-3.91v3.91h3.91v3.91h-3.91v3.91h-3.91v3.91h3.91v3.91c-1.95,0-5.87,0-7.82,0v-3.91c-14.22,0-28.78,0-43,0v3.91
		c-1.95,0-5.87,0-7.82,0v3.91h-3.91v3.91h-2.36h-1.55v3.07v0.83h-0.42h-3.49c0,1.68,0,4.82,0,6.9c0,0.33,0,0.64,0,0.91h-0.46h-3.45
		c0,2.24,0,4.51,0,6.79c0,8.14,0,16.43,0,24.45h-3.91v3.91h3.91v3.91h-3.91v3.91h3.91v3.91h3.91v3.91h3.91v3.91h3.91v3.91h3.91v3.91
		h3.91v3.91h3.91c0-1.94,0-5.87,0-7.81h3.91c0-1.94,0-5.86,0-7.81h3.91v-3.91h3.91v-3.91c1.95,0,5.87,0,7.82,0v-3.91
		c3.48,0,8.25,0,11.73,0v-3.91c4.9,0,10.74,0,15.64,0v3.91c2.3,0,5.14,0,7.82,0c1.38,0,2.73,0,3.91,0c0-10.26,0-20.98,0-31.24h-3.91
		c0-1.94,0-5.86,0-7.81h-3.91v-3.91h-3.91v-3.91h-3.91v-3.91c-1.95,0-5.87,0-7.82,0v-3.91c-8.95,0-18.42,0-27.37,0v3.91
		c-1.95,0-5.87,0-7.82,0v3.91h-3.91v3.91h-3.91v3.91h-3.91c0,1.94,0,5.86,0,7.81h-3.91c0,8.94,0,18.4,0,27.34h3.91
		c0,1.94,0,5.87,0,7.81h3.91v3.91h3.91c0,1.94,0,5.86,0,7.81h-3.91v-3.91h-3.91v-3.91h-3.91c0-1.94,0-5.86,0-7.81h-3.91
		c0-11.58,0-23.57,0-35.15h3.91c0-1.94,0-5.87,0-7.81h3.91v-3.91h3.91v-3.91h3.91v-3.91c1.95,0,5.87,0,7.82,0v-3.91
		c11.59,0,23.59,0,35.19,0v3.91c1.95,0,5.87,0,7.82,0v3.91h3.91v3.91h3.91v3.91h3.91c0,1.94,0,5.87,0,7.81h3.91
		c0,8.94,0,18.4,0,27.34c3.48,0,8.25,0,11.73,0v-3.91c1.95,0,5.87,0,7.82,0v-3.91c1.95,0,5.87,0,7.82,0v-3.91c1.95,0,5.87,0,7.82,0
		v-3.91c1.95,0,5.87,0,7.82,0v-3.91h3.91v-3.91c1.95,0,5.87,0,7.82,0v-3.91h3.91v-3.91c1.95,0,5.87,0,7.82,0v-3.91h3.91v-3.91
		c1.95,0,5.87,0,7.82,0v-3.91h3.91v-3.91c1.95,0,5.87,0,7.82,0v-3.91c0.97,0,2.44,0,3.91,0c1.47,0,2.94,0,3.91,0v-3.91
		c0.97,0,2.44,0,3.91,0c1.47,0,2.94,0,3.91,0v-3.91c0.97,0,2.44,0,3.91,0c1.47,0,2.94,0,3.91,0v-3.91c1.29,0,2.6,0,3.91,0
		c1.3,0,2.6,0,3.91,0c1.3,0,2.6,0,3.91,0s2.6,0,3.91,0c1.31,0,2.61,0,3.91,0c1.31,0,2.61,0,3.91,0c1.31,0,2.62,0,3.91,0v3.91
		c1.18,0,2.53,0,3.91,0c1.3,0,2.61,0,3.91,0c0.13,0,0.26,0,0.39,0c1.24,0,2.45,0,3.52,0v3.91h3.91v3.91c-1.16,0-2.39,0-3.63,0
		c-4,0-8.27,0-12.01,0v3.91c-3.48,0-8.25,0-11.73,0v3.91c-1.95,0-5.87,0-7.82,0v3.91c-1.95,0-5.87,0-7.82,0v3.91h-3.91v3.91h-3.91
		v3.91h-3.91v3.91h-3.91v3.91h-3.91v3.91H303v3.91h-3.91v3.91h-3.91v3.91h-3.91v3.91h-3.91v3.91h-3.91v3.91h-3.91v3.91h-3.91v3.91
		h-3.91v3.91h-3.91v3.91h-3.91v3.91h-3.91v3.91c-1.95,0-5.87,0-7.82,0v3.91c-1.95,0-5.87,0-7.82,0v3.91c-3.48,0-8.25,0-11.73,0v3.91
		c-4.9,0-10.74,0-15.64,0v-3.91c-1.95,0-5.87,0-7.82,0v-3.91c-1.95,0-5.87,0-7.82,0v3.91h3.91v3.91c1.95,0,5.87,0,7.82,0v3.91
		c18.22,0,36.48,0,54.73,0c16.95,0,33.9,0,50.82,0v-3.91c6.27,0,13.28,0,19.55,0v-3.91c4.9,0,10.74,0,15.64,0v-3.91
		c3.48,0,8.25,0,11.73,0v-3.91c1.95,0,5.87,0,7.82,0v-3.91h3.91c0,3.48,0,8.24,0,11.72h-3.91v3.91h-3.91v3.91h-3.91v3.91h-3.91v3.91
		c-0.97,0-2.44,0-3.91,0c-1.47,0-2.94,0-3.91,0v3.91c-1.18,0-2.53,0-3.91,0c-1.3,0-2.61,0-3.91,0c-1.38,0-2.73,0-3.91,0v3.91
		c-1.18,0-2.53,0-3.91,0c-1.3,0-2.61,0-3.91,0c-1.38,0-2.73,0-3.91,0v3.91c-1.18,0-2.53,0-3.91,0c-1.3,0-2.61,0-3.91,0
		c-1.38,0-2.73,0-3.91,0v3.91c-0.97,0-2.44,0-3.91,0c-1.47,0-2.94,0-3.91,0c-0.97,0-2.44,0-3.91,0c-1.47,0-2.94,0-3.91,0v3.91
		c-4.9,0-10.74,0-15.64,0v3.3v0.61c-3.48,0-8.25,0-11.73,0v3.91c-1.95,0-5.87,0-7.82,0v3.91h-3.91v4.68c3.05,0,6.13,0,9.21,0
		c11.26,0,22.63,0,33.8,0c0-3.48,0-9.02,0-12.49C311.81,472.09,317.65,472.09,322.55,472.09z M173.98,386.18c-3.48,0-8.25,0-11.73,0
		c0-3.48,0-8.24,0-11.72h3.91c1.95,0,5.87,0,7.82,0C173.98,377.94,173.98,382.7,173.98,386.18z M142.71,401.8c0-1.94,0-5.87,0-7.81
		h-3.91c0-6.26,0-13.27,0-19.53h3.91c0-1.94,0-5.86,0-7.81h3.91v-3.91h3.91v-3.91h3.91v-3.91c1.95,0,5.87,0,7.82,0v-3.91
		c6.27,0,13.28,0,19.55,0v3.91c1.95,0,5.87,0,7.82,0v3.91h3.91v3.91h3.91v3.91h3.91c0,1.94,0,5.86,0,7.81h3.91
		c0,7.6,0,15.83,0,23.43h-3.91v-3.91h-3.91c0-6.26,0-13.27,0-19.53h-3.91c0-1.94,0-5.86,0-7.81h-3.91v-3.91c-1.95,0-5.87,0-7.82,0
		v-3.91c-6.27,0-13.28,0-19.55,0v3.91c-1.95,0-5.87,0-7.82,0v3.91h-3.91c0,1.94,0,5.86,0,7.81h-3.91c0,6.26,0,13.27,0,19.53h3.91
		c0,1.94,0,5.87,0,7.81h3.91c0,1.94,0,5.86,0,7.81h-3.91v-3.91h-3.91v-3.91H142.71z M263.9,308.08c1.38,0,2.73,0,3.91,0h3.91v3.91
		h3.91v3.91h3.91v3.91h3.91v3.91h3.91c0,0.97,0,2.44,0,3.91c0,1.47,0,2.93,0,3.91h-3.91v3.91h-3.91v3.91h-3.91v3.91
		c-1.95,0-5.87,0-7.82,0v3.91h-3.91v3.91c-1.95,0-5.87,0-7.82,0v3.91c-1.95,0-5.87,0-7.82,0v3.91c-3.48,0-8.25,0-11.73,0v-3.91
		h-3.91v-3.91h-3.91c0-3.48,0-8.24,0-11.72h3.91c0-1.94,0-5.86,0-7.81h3.91v-3.91h3.91v-3.91h3.91v-3.91h3.91v-3.91h3.91v-3.91h3.91
		v-3.91C258.38,308.08,261.22,308.08,263.9,308.08z M201.35,308.08v-3.91c-3.48,0-8.25,0-11.73,0v-3.91c-8.79,0-18.09,0-26.89,0
		c-0.16,0-0.32,0-0.47,0v-3.91c0.83,0,1.75,0,2.69,0c0.41,0,0.81,0,1.22,0c1.3,0,2.61,0,3.91,0c1.38,0,2.73,0,3.91,0v-3.91
		c1.29,0,2.61,0,3.91,0c1.3,0,2.61,0,3.91,0c1.3,0,2.61,0,3.91,0c1.3,0,2.6,0,3.91,0c1.31,0,2.6,0,3.91,0c1.31,0,2.6,0,3.91,0
		c1.31,0,2.6,0,3.91,0c1.31,0,2.6,0,3.91,0s2.61,0,3.91,0c1.3,0,2.61,0,3.91,0c1.3,0,2.61,0,3.91,0c1.3,0,2.61,0,3.91,0h3.91v3.91
		h3.91v3.91h-3.91v3.91h-3.91v3.91h-3.91v3.91h-3.91v-3.91C209.6,308.08,204.83,308.08,201.35,308.08z M295.18,343.22h-3.91v3.91
		h-3.91v3.91c-1.95,0-5.87,0-7.82,0v3.91h-3.91v3.91c-1.95,0-5.87,0-7.82,0v3.91h-3.91v3.91c-1.95,0-5.87,0-7.82,0v3.91h-3.91v3.91
		c-1.95,0-5.87,0-7.82,0v3.91c-1.95,0-5.87,0-7.82,0v3.91c-1.95,0-5.87,0-7.82,0v3.91c-1.95,0-5.87,0-7.82,0v3.91h-3.91
		c0-8.94,0-18.4,0-27.34h-3.91c0-1.94,0-5.87,0-7.81h-3.91v-3.91h-3.91c0-3.48,0-8.24,0-11.72h3.91c0-1.94,0-5.86,0-7.81h3.91
		c0-1.94,0-5.86,0-7.81h3.91v-3.91h3.91v-3.91h3.91v-3.91h3.91v-3.91h3.91v-3.91h3.91v-3.91c2.3,0,5.14,0,7.82,0
		c1.38,0,2.73,0,3.91,0c0.97,0,2.44,0,3.91,0c1.47,0,2.94,0,3.91,0v3.91h-3.91v3.91h-3.91v3.91h-3.91v3.91h-3.91v3.91h-3.91v3.91
		h-3.91v3.91h-3.91c0,1.94,0,5.86,0,7.81h-3.91c0,6.26,0,13.27,0,19.53h3.91v3.91h3.91v3.91c6.27,0,13.28,0,19.55,0v-3.91
		c1.95,0,5.87,0,7.82,0v-3.91c1.95,0,5.87,0,7.82,0v-3.91h3.91v-3.91c1.95,0,5.87,0,7.82,0v-3.91h3.91v-3.91c2.3,0,5.14,0,7.82,0
		c1.38,0,2.73,0,3.91,0V343.22z M334.27,433.04c-6.27,0-13.28,0-19.55,0v3.91c-15.54,0-31.38,0-46.91,0c0-1.94,0-5.86,0-7.81h3.91
		v-3.91h3.91v-3.91h3.91v-3.91c7.61,0,15.84,0,23.46,0v3.91c1.18,0,2.53,0,3.91,0c2.68,0,5.52,0,7.82,0h3.91v3.91
		c1.95,0,5.87,0,7.82,0v3.91c1.95,0,5.87,0,7.82,0V433.04z M369.46,421.32c-1.95,0-5.87,0-7.82,0v3.91c-3.48,0-8.25,0-11.73,0v3.91
		c-1.95,0-5.87,0-7.82,0h-3.91v-3.91c-1.95,0-5.87,0-7.82,0v-3.91c-1.95,0-5.87,0-7.82,0v-3.91c1.29,0,2.61,0,3.91,0
		c1.3,0,2.61,0,3.91,0c1.3,0,2.61,0,3.91,0c1.3,0,2.6,0,3.91,0s2.6,0,3.91,0c1.31,0,2.6,0,3.91,0c1.31,0,2.6,0,3.91,0
		c1.31,0,2.6,0,3.91,0s2.61,0,3.91,0c1.3,0,2.61,0,3.91,0c1.3,0,2.61,0,3.91,0c1.3,0,2.61,0,3.91,0V421.32z"/>
	<rect x="127.07" y="413.51" width="3.91" height="3.91"/>
	<rect x="119.25" y="413.51" width="3.91" height="3.91"/>
	<rect x="111.43" y="413.51" width="3.91" height="3.91"/>
	<polygon points="106.79,413.51 103.61,413.51 103.61,417.42 105.3,417.42 107.52,417.42 107.52,413.51 	"/>
	<rect x="123.16" y="409.61" width="3.91" height="3.91"/>
	<rect x="115.34" y="409.61" width="3.91" height="3.91"/>
	<polygon points="111.43,409.61 108.32,409.61 107.52,409.61 107.52,411.61 107.52,413.51 111.43,413.51 	"/>
	<rect x="119.25" y="405.7" width="3.91" height="3.91"/>
	<rect x="111.43" y="405.7" width="3.91" height="3.91"/>
	<rect x="103.61" y="405.7" width="3.91" height="3.91"/>
	<rect x="115.34" y="401.8" width="3.91" height="3.91"/>
	<polygon points="111.43,405.7 111.43,402.18 111.43,401.8 107.52,401.8 107.52,405.7 109.95,405.7 	"/>
	<rect x="119.25" y="397.89" width="3.91" height="3.91"/>
	<polygon points="115.34,401.8 115.34,397.89 113.35,397.89 111.43,397.89 111.43,401.8 111.59,401.8 	"/>
	<rect x="115.34" y="393.99" width="3.91" height="3.91"/>
	<rect x="107.52" y="393.99" width="3.91" height="3.91"/>
	<rect x="119.25" y="390.08" width="3.91" height="3.91"/>
	<polygon points="115.34,393.99 115.34,393.48 115.34,390.08 111.43,390.08 111.43,393.99 115.11,393.99 	"/>
	<rect x="252.17" y="343.22" width="3.91" height="3.91"/>
	<rect x="248.26" y="339.32" width="3.91" height="3.91"/>
	<rect x="263.9" y="335.41" width="3.91" height="3.91"/>
	<rect x="244.36" y="335.41" width="3.91" height="3.91"/>
	<rect x="259.99" y="331.51" width="3.91" height="3.91"/>
	<rect x="275.63" y="327.6" width="3.91" height="3.91"/>
	<rect x="256.08" y="327.6" width="3.91" height="3.91"/>
	<rect x="197.44" y="327.6" width="3.91" height="3.91"/>
	<rect x="271.72" y="323.7" width="3.91" height="3.91"/>
	<rect x="252.17" y="323.7" width="3.91" height="3.91"/>
	<rect x="267.81" y="319.79" width="3.91" height="3.91"/>
	<rect x="197.44" y="319.79" width="3.91" height="3.91"/>
	<rect x="263.9" y="315.89" width="3.91" height="3.91"/>
	<rect x="201.35" y="315.89" width="3.91" height="3.91"/>
	<path d="M426.63,491.21c5.46-4.36,10.12-9.56,13.84-15.47l2.73-4.33c4.09-6.49,6.74-13.94,7.69-21.56l0.61-4.95
		c1.02-8.28,0-16.78-2.96-24.58l-3.81-10.04L306.68,131.65V46.91h7.28c12.93,0,23.46-10.52,23.46-23.45
		C337.42,10.52,326.89,0,313.96,0H198.04c-12.93,0-23.45,10.52-23.45,23.46c0,12.93,10.52,23.45,23.45,23.45h7.28v84.74
		L67.42,409.96l-3.97,10.37c-2.96,7.8-3.98,16.3-2.96,24.58l0.61,4.95c0.95,7.62,3.61,15.07,7.69,21.55l2.73,4.33
		c3.72,5.91,8.38,11.11,13.84,15.47l7.54,6.02c11.94,9.53,26.94,14.77,42.21,14.77h104.05h33.65h104.05
		c15.28,0,30.27-5.25,42.21-14.77L426.63,491.21z M198.04,31.8c-4.6,0-8.35-3.75-8.35-8.35c0-4.6,3.74-8.35,8.35-8.35h115.92
		c4.61,0,8.35,3.75,8.35,8.35c0,4.6-3.74,8.35-8.35,8.35h-7.28H205.32H198.04z M409.67,485.42c-9.28,7.4-20.92,11.47-32.79,11.47
		H273.11h-0.29h-33.36h-0.29H135.41h-0.29c-11.87,0-23.52-4.07-32.79-11.47l-7.54-6.02c-4.13-3.3-7.66-7.24-10.48-11.71l-2.73-4.33
		c-2.91-4.62-4.81-9.93-5.48-15.36l-0.61-4.95c-0.72-5.85,0-11.85,2.09-17.36l3.55-9.35l139.31-281.15v-1.77V46.91h0.29h70.86v86.51
		v1.77l139.31,281.15l3.55,9.35c2.09,5.51,2.81,11.51,2.09,17.37l-0.61,4.94c-0.67,5.43-2.57,10.74-5.48,15.36l-2.73,4.33
		c-2.82,4.48-6.34,8.41-10.48,11.71L409.67,485.42z"/>
</g>
</svg>
