<?xml version="1.0" encoding="utf-8"?>
<!-- Generator: Adobe Illustrator 27.0.1, SVG Export Plug-In . SVG Version: 6.00 Build 0)  -->
<svg version="1.1" id="Layer_1" xmlns="http://www.w3.org/2000/svg" xmlns:xlink="http://www.w3.org/1999/xlink" x="0px" y="0px"
	 viewBox="0 0 70 70" style="enable-background:new 0 0 70 70;" xml:space="preserve">
<g>
	<path d="M60,65h5v-5c-2.49,0-7.51,0-10,0v5H60z"/>
	<path d="M5,60c0-4.45,0-10.55,0-15c2.49,0,7.51,0,10,0v-5c-4.45,0-10.55,0-15,0c0,8.02,0,16.98,0,25c4.45,0,10.55,0,15,0v-5
		C12.51,60,7.49,60,5,60z"/>
	<rect x="65" y="55" width="5" height="5"/>
	<rect x="65" y="45" width="5" height="5"/>
	<path d="M50,50c0,2.49,0,7.51,0,10h5c0-4.45,0-10.55,0-15h-5V50z"/>
	<path d="M15,50c0,2.49,0,7.51,0,10h5c0-4.45,0-10.55,0-15h-5V50z"/>
	<path d="M60,40h-5v5c2.49,0,7.51,0,10,0v-5H60z"/>
	<path d="M35,40c-2.49,0-7.51,0-10,0c0,8.02,0,16.98,0,25c6.27,0,13.73,0,20,0v-5c-4.45,0-10.55,0-15,0v-5c2.49,0,7.51,0,10,0v-5
		c-2.49,0-7.51,0-10,0v-5c4.45,0,10.55,0,15,0v-5C42.51,40,37.49,40,35,40z"/>
	<path d="M5,25v5c2.49,0,7.51,0,10,0v-5C12.51,25,7.49,25,5,25z"/>
	<rect y="20" width="5" height="5"/>
	<path d="M55,10V5h-5c0,8.02,0,16.98,0,25h5c0-4.45,0-10.55,0-15h5v-5H55z"/>
	<path d="M40,15c-2.49,0-7.51,0-10,0v-5h-5c0,6.27,0,13.73,0,20h5c0-2.49,0-7.51,0-10c2.49,0,7.51,0,10,0c0,2.49,0,7.51,0,10h5
		c0-6.27,0-13.73,0-20h-5V15z"/>
	<path d="M65,5c0,2.49,0,7.51,0,10h-5v5h5c0,2.49,0,7.51,0,10h5c0-8.02,0-16.98,0-25H65z"/>
	<path d="M40,10V5c-2.49,0-7.51,0-10,0v5C32.49,10,37.51,10,40,10z"/>
	<path d="M10,5H5v5c2.49,0,7.51,0,10,0c0,4.45,0,10.55,0,15h5c0-6.27,0-13.73,0-20C17.51,5,12.49,5,10,5z"/>
</g>
</svg>
