<svg xmlns="http://www.w3.org/2000/svg">
	<symbol id="games" viewBox="0 0 70 70">
		<g>
			<path d="M35,60v5h5c0-4.45,0-10.55,0-15h-5C35,52.49,35,57.51,35,60z"/>
			<path d="M55,50v5c2.49,0,7.51,0,10,0v-5C62.51,50,57.49,50,55,50z"/>
			<path d="M5,50v5c2.49,0,7.51,0,10,0v-5C12.51,50,7.49,50,5,50z"/>
			<rect x="50" y="45" width="5" height="5"/>
			<rect x="15" y="45" width="5" height="5"/>
			<rect x="45" y="40" width="5" height="5"/>
			<rect x="20" y="40" width="5" height="5"/>
			<path d="M5,40c0-6.27,0-13.73,0-20H0c0,9.74,0,20.26,0,30h5C5,47.51,5,42.49,5,40z"/>
			<path d="M40,35c-4.45,0-10.55,0-15,0v5h5c0,2.49,0,7.51,0,10h5c0-2.49,0-7.51,0-10c2.49,0,7.51,0,10,0v-5H40z"/>
			<rect x="50" y="30" width="5" height="5"/>
			<rect x="55" y="25" width="5" height="5"/>
			<rect x="45" y="25" width="5" height="5"/>
			<path d="M65,20c0,9.74,0,20.26,0,30h5c0-9.74,0-20.26,0-30H65z"/>
			<rect x="50" y="20" width="5" height="5"/>
			<polygon points="20,20 15,20 15,25 10,25 10,30 15,30 15,35 20,35 20,30 25,30 25,25 20,25 	"/>
			<rect x="60" y="15" width="5" height="5"/>
			<rect x="5" y="15" width="5" height="5"/>
			<path d="M20,15c13.14,0,26.86,0,40,0v-5h-5V5c-2.49,0-7.51,0-10,0v5c-6.27,0-13.73,0-20,0V5c-2.49,0-7.51,0-10,0v5h-5v5
				C12.49,15,17.51,15,20,15z"/>
		</g>
	</symbol>
	<symbol id="gpio" viewBox="0 0 70 70">
		<g>
			<rect x="50" y="60" width="5" height="5"/>
			<rect x="30" y="60" width="5" height="5"/>
			<rect x="10" y="60" width="5" height="5"/>
			<path d="M60,50c-19.87,0-40.13,0-60,0c0,6.27,0,13.73,0,20h5c0-4.45,0-10.55,0-15c4.45,0,10.55,0,15,0c0,4.45,0,10.55,0,15h5
				c0-4.45,0-10.55,0-15c4.45,0,10.55,0,15,0c0,4.45,0,10.55,0,15h5c0-4.45,0-10.55,0-15c4.45,0,10.55,0,15,0c0,4.45,0,10.55,0,15h5
				c0-6.27,0-13.73,0-20H60z"/>
			<path d="M50,35c0,2.49,0,7.51,0,10h5c0-4.45,0-10.55,0-15h5c0-6.27,0-13.73,0-20h-5c0-2.49,0-7.51,0-10h-5c0,2.49,0,7.51,0,10h-5
				c0,6.27,0,13.73,0,20h5V35z"/>
			<path d="M30,35c0,2.49,0,7.51,0,10h5c0-4.45,0-10.55,0-15h5c0-6.27,0-13.73,0-20h-5c0-2.49,0-7.51,0-10h-5c0,2.49,0,7.51,0,10h-5
				c0,6.27,0,13.73,0,20h5V35z"/>
			<path d="M10,35c0,2.49,0,7.51,0,10h5c0-4.45,0-10.55,0-15h5c0-6.27,0-13.73,0-20h-5c0-2.49,0-7.51,0-10h-5c0,2.49,0,7.51,0,10H5
				c0,6.27,0,13.73,0,20h5V35z"/>
		</g>
	</symbol>
	<symbol id="ibutton" viewBox="0 0 70 70">
		<g>
			<path d="M25,65c-2.49,0-7.51,0-10,0v5c6.27,0,13.73,0,20,0v-5C32.51,65,27.49,65,25,65z"/>
			<rect x="35" y="60" width="5" height="5"/>
			<rect x="10" y="60" width="5" height="5"/>
			<rect x="40" y="55" width="5" height="5"/>
			<path d="M20,55v5c2.49,0,7.51,0,10,0v-5C27.51,55,22.49,55,20,55z"/>
			<rect x="5" y="55" width="5" height="5"/>
			<rect x="30" y="50" width="5" height="5"/>
			<rect x="15" y="50" width="5" height="5"/>
			<path d="M5,45c0-2.49,0-7.51,0-10H0c0,6.27,0,13.73,0,20h5C5,52.51,5,47.49,5,45z"/>
			<path d="M35,45v5h5c0-2.49,0-7.51,0-10h-5V45z"/>
			<path d="M15,40h-5c0,2.49,0,7.51,0,10h5C15,47.51,15,42.49,15,40z"/>
			<path d="M45,40c0,4.45,0,10.55,0,15h5c0-6.27,0-13.73,0-20h-5V40z"/>
			<rect x="30" y="35" width="5" height="5"/>
			<rect x="15" y="35" width="5" height="5"/>
			<rect x="50" y="30" width="5" height="5"/>
			<rect x="40" y="30" width="5" height="5"/>
			<path d="M30,35v-5c-2.49,0-7.51,0-10,0v5C22.49,35,27.51,35,30,35z"/>
			<rect x="5" y="30" width="5" height="5"/>
			<rect x="55" y="25" width="5" height="5"/>
			<rect x="45" y="25" width="5" height="5"/>
			<rect x="35" y="25" width="5" height="5"/>
			<rect x="10" y="25" width="5" height="5"/>
			<rect x="50" y="20" width="5" height="5"/>
			<rect x="40" y="20" width="5" height="5"/>
			<path d="M25,25c2.49,0,7.51,0,10,0v-5c-6.27,0-13.73,0-20,0v5C17.49,25,22.51,25,25,25z"/>
			<rect x="45" y="15" width="5" height="5"/>
			<rect x="35" y="15" width="5" height="5"/>
			<rect x="40" y="10" width="5" height="5"/>
			<path d="M65,5V0c-4.45,0-10.55,0-15,0v5h-5v5h5v5h5v-5h5v5h-5v5h5v5h5v-5h5c0-4.45,0-10.55,0-15H65z"/>
		</g>
	</symbol>
	<symbol id="infrared" viewBox="0 0 70 70">
		<g>
			<path d="M60,65h-5c0-2.49,0-7.51,0-10h-5v-5h-5v-5c-6.27,0-13.73,0-20,0v5h-5v5h-5c0,2.49,0,7.51,0,10c-4.45,0-10.55,0-15,0v5
				c23.22,0,46.78,0,70,0v-5C67.51,65,62.49,65,60,65z"/>
			<path d="M35,35c2.49,0,7.51,0,10,0v-5c-6.27,0-13.73,0-20,0v5C27.49,35,32.51,35,35,35z"/>
			<rect x="50" y="20" width="5" height="5"/>
			<rect x="15" y="20" width="5" height="5"/>
			<path d="M30,20c6.27,0,13.73,0,20,0v-5c-9.74,0-20.26,0-30,0v5C22.49,20,27.51,20,30,20z"/>
			<rect x="65" y="10" width="5" height="5"/>
			<rect y="10" width="5" height="5"/>
			<path d="M60,10h5V5c-2.49,0-7.51,0-10,0v5H60z"/>
			<path d="M5,5v5c2.49,0,7.51,0,10,0V5C12.51,5,7.49,5,5,5z"/>
			<path d="M20,5c11.44,0,23.56,0,35,0V0C41.86,0,28.14,0,15,0v5H20z"/>
		</g>
	</symbol>
	<symbol id="media" viewBox="0 0 70 70">
		<g>
			<path d="M40,20h-5v5c4.45,0,10.55,0,15,0v-5C47.51,20,42.49,20,40,20z"/>
			<path d="M60,0c-2.49,0-7.51,0-10,0v5c-4.45,0-10.55,0-15,0v5c-4.45,0-10.55,0-15,0c0,13.14,0,26.86,0,40c-2.49,0-7.51,0-10,0v5H5
				c0,2.49,0,7.51,0,10h5v5c2.49,0,7.51,0,10,0v-5h5c0-11.44,0-23.56,0-35c2.49,0,7.51,0,10,0v-5c-2.49,0-7.51,0-10,0v-5
				c2.49,0,7.51,0,10,0v-5c4.45,0,10.55,0,15,0v-5c2.49,0,7.51,0,10,0v5c-2.49,0-7.51,0-10,0v5c2.49,0,7.51,0,10,0
				c0,6.27,0,13.73,0,20c-2.49,0-7.51,0-10,0v5h-5c0,2.49,0,7.51,0,10h5v5c2.49,0,7.51,0,10,0v-5h5c0-18.19,0-36.81,0-55H60z"/>
		</g>
	</symbol>
	<symbol id="nfc" viewBox="0 0 70 70">
		<g>
			<rect x="55" y="65" width="5" height="5"/>
			<path d="M60,60v5h5c0-2.49,0-7.51,0-10h-5V60z"/>
			<path d="M45,55v5h5c0-2.49,0-7.51,0-10h-5V55z"/>
			<path d="M55,45c0-8.02,0-16.98,0-25h-5c0,9.74,0,20.26,0,30h5V45z"/>
			<rect x="5" y="45" width="5" height="5"/>
			<path d="M35,30c0,2.49,0,7.51,0,10c-2.49,0-7.51,0-10,0v-5h-5v-5h-5v-5h-5v-5H5v5H0c0,6.27,0,13.73,0,20h5c0-4.45,0-10.55,0-15h5v5
				h5v5h5v5h5v5c2.49,0,7.51,0,10,0v-5h5c0-6.27,0-13.73,0-20h-5V30z"/>
			<rect x="30" y="20" width="5" height="5"/>
			<path d="M65,15c0,13.14,0,26.86,0,40h5c0-13.14,0-26.86,0-40H65z"/>
			<path d="M50,10h-5c0,2.49,0,7.51,0,10h5C50,17.51,50,12.49,50,10z"/>
			<path d="M65,5h-5c0,2.49,0,7.51,0,10h5C65,12.51,65,7.49,65,5z"/>
			<rect x="55" width="5" height="5"/>
		</g>
	</symbol>
	<symbol id="rfid" viewBox="0 0 70 70">
		<g>
			<path d="M30,65c-4.45,0-10.55,0-15,0v5c8.02,0,16.98,0,25,0v-5C37.51,65,32.49,65,30,65z"/>
			<rect x="40" y="60" width="5" height="5"/>
			<path d="M25,55v5c2.49,0,7.51,0,10,0v-5C32.51,55,27.49,55,25,55z"/>
			<path d="M15,55h-5c0,2.49,0,7.51,0,10h5C15,62.51,15,57.49,15,55z"/>
			<path d="M35,50v5h5c0-2.49,0-7.51,0-10h-5V50z"/>
			<path d="M25,45h-5c0,2.49,0,7.51,0,10h5C25,52.51,25,47.49,25,45z"/>
			<path d="M10,45v-5H5c0,4.45,0,10.55,0,15h5C10,52.51,10,47.49,10,45z"/>
			<path d="M35,45v-5c-2.49,0-7.51,0-10,0v5C27.49,45,32.51,45,35,45z"/>
			<path d="M45,40c0,6.27,0,13.73,0,20h5c0-8.02,0-16.98,0-25h-5V40z"/>
			<path d="M40,35h5v-5c-2.49,0-7.51,0-10,0v5H40z"/>
			<rect x="10" y="30" width="5" height="5"/>
			<path d="M5,30v-5H0c0,4.45,0,10.55,0,15h5C5,37.51,5,32.49,5,30z"/>
			<path d="M25,30c2.49,0,7.51,0,10,0v-5c-4.45,0-10.55,0-15,0v5H25z"/>
			<path d="M55,25v5h5c0-2.49,0-7.51,0-10h-5V25z"/>
			<path d="M15,25h5v-5c-4.45,0-10.55,0-15,0v5C7.49,25,12.51,25,15,25z"/>
			<path d="M65,15c0,6.27,0,13.73,0,20h5c0-6.27,0-13.73,0-20H65z"/>
			<rect x="50" y="15" width="5" height="5"/>
			<rect x="60" y="10" width="5" height="5"/>
			<path d="M45,10h-5v5c2.49,0,7.51,0,10,0v-5H45z"/>
			<rect x="55" y="5" width="5" height="5"/>
			<path d="M50,0c-4.45,0-10.55,0-15,0v5c6.27,0,13.73,0,20,0V0H50z"/>
		</g>
	</symbol>
	<symbol id="subghz" viewBox="0 0 70 70">
		<g>
			<rect x="55" y="45" width="5" height="5"/>
			<rect x="10" y="45" width="5" height="5"/>
			<rect x="60" y="40" width="5" height="5"/>
			<rect x="5" y="40" width="5" height="5"/>
			<rect x="50" y="35" width="5" height="5"/>
			<path d="M30,35c0,11.44,0,23.56,0,35c2.49,0,7.51,0,10,0c0-11.44,0-23.56,0-35C37.51,35,32.49,35,30,35z"/>
			<rect x="15" y="35" width="5" height="5"/>
			<path d="M60,30c0-4.45,0-10.55,0-15h-5c0,6.27,0,13.73,0,20h5V30z"/>
			<path d="M5,30c0-6.27,0-13.73,0-20H0c0,9.74,0,20.26,0,30h5C5,37.51,5,32.49,5,30z"/>
			<path d="M50,25v-5h-5c0,2.49,0,7.51,0,10h5V25z"/>
			<path d="M15,25c0-2.49,0-7.51,0-10h-5c0,6.27,0,13.73,0,20h5C15,32.51,15,27.49,15,25z"/>
			<path d="M30,20c0,2.49,0,7.51,0,10c2.49,0,7.51,0,10,0c0-2.49,0-7.51,0-10C37.51,20,32.49,20,30,20z"/>
			<path d="M20,25v5h5c0-2.49,0-7.51,0-10h-5V25z"/>
			<path d="M65,10c0,9.74,0,20.26,0,30h5c0-9.74,0-20.26,0-30H65z"/>
			<rect x="50" y="10" width="5" height="5"/>
			<rect x="15" y="10" width="5" height="5"/>
			<rect x="60" y="5" width="5" height="5"/>
			<rect x="5" y="5" width="5" height="5"/>
			<rect x="55" width="5" height="5"/>
			<rect x="10" width="5" height="5"/>
		</g>
	</symbol>
	<symbol id="tools" viewBox="0 0 70 70">
		<g>
			<path d="M65,20c-4.45,0-10.55,0-15,0c0-2.49,0-7.51,0-10h-5c0,2.49,0,7.51,0,10c-6.27,0-13.73,0-20,0c0-2.49,0-7.51,0-10h-5
				c0,2.49,0,7.51,0,10c-6.27,0-13.73,0-20,0c0,16.51,0,33.49,0,50c23.22,0,46.78,0,70,0c0-16.51,0-33.49,0-50H65z M65,50
				c0,4.45,0,10.55,0,15c-19.87,0-40.13,0-60,0c0-6.27,0-13.73,0-20c2.49,0,7.51,0,10,0v5c2.49,0,7.51,0,10,0v-5c6.27,0,13.73,0,20,0
				v5c2.49,0,7.51,0,10,0v-5c2.49,0,7.51,0,10,0V50z M65,30c0,2.49,0,7.51,0,10c-2.49,0-7.51,0-10,0v-5c-2.49,0-7.51,0-10,0v5
				c-6.27,0-13.73,0-20,0v-5c-2.49,0-7.51,0-10,0v5c-2.49,0-7.51,0-10,0c0-4.45,0-10.55,0-15c19.87,0,40.13,0,60,0V30z"/>
			<path d="M35,10c2.49,0,7.51,0,10,0V5c-6.27,0-13.73,0-20,0v5C27.49,10,32.51,10,35,10z"/>
		</g>
	</symbol>
	<symbol id="usb" viewBox="0 0 70 70">
		<g>
			<path d="M48,15c-8.02,0-16.98,0-25,0v5h-5c0,6.27,0,13.73,0,20h5c0,2.49,0,7.51,0,10h5v-5h5v5h5v-5h5v5h5c0-2.49,0-7.51,0-10h5
				c0-6.27,0-13.73,0-20h-5V15z M23,30v-5h5v5h5v5c-2.49,0-7.51,0-10,0V30z M48,30v5c-2.49,0-7.51,0-10,0v-5h5v-5h5V30z"/>
			<path d="M63,0C43.13,0,22.87,0,3,0c0,19.87,0,40.13,0,60h5c0,2.49,0,7.51,0,10c18.19,0,36.81,0,55,0c0-2.49,0-7.51,0-10h5
				c0-19.87,0-40.13,0-60H63z M63,10c0,14.83,0,30.17,0,45c-18.19,0-36.81,0-55,0C8,38.49,8,21.51,8,5c18.19,0,36.81,0,55,0V10z"/>
		</g>
	</symbol>
</svg>
