<svg xmlns="http://www.w3.org/2000/svg">
	<!-- Navigation -->
	<symbol id="device" viewBox="0 0 75 75">
		<g>
			<path d="M60,55c-14.83,0-30.17,0-45,0v5c18.19,0,36.81,0,55,0v-5C67.51,55,62.49,55,60,55z"/>
			<rect x="10" y="50" width="5" height="5"/>
			<rect x="5" y="45" width="5" height="5"/>
			<rect x="60" y="40" width="5" height="5"/>
			<polygon points="55,35 55,30 50,30 50,35 45,35 45,40 50,40 50,45 55,45 55,40 60,40 60,35 	"/>
			<path d="M5,35H0c0,2.49,0,7.51,0,10h5C5,42.51,5,37.49,5,35z"/>
			<path d="M70,30c0,8.02,0,16.98,0,25h5c0-8.02,0-16.98,0-25H70z"/>
			<path d="M30,30c-2.49,0-7.51,0-10,0c0,4.45,0,10.55,0,15c6.27,0,13.73,0,20,0c0-4.45,0-10.55,0-15C37.51,30,32.49,30,30,30z"/>
			<rect x="5" y="30" width="5" height="5"/>
			<rect x="65" y="25" width="5" height="5"/>
			<rect x="10" y="25" width="5" height="5"/>
			<path d="M25,25c13.14,0,26.86,0,40,0v-5c-16.51,0-33.49,0-50,0v5C17.49,25,22.51,25,25,25z"/>
		</g>
	</symbol>
	<symbol id="apps" viewBox="0 0 75 75">
		<g>
			<path d="M15,60v5c2.49,0,7.51,0,10,0v-5C22.51,60,17.49,60,15,60z"/>
			<path d="M60,50c-6.27,0-13.73,0-20,0v-5h5v-5c-2.49,0-7.51,0-10,0c0,2.49,0,7.51,0,10c-2.49,0-7.51,0-10,0c0,2.49,0,7.51,0,10h5v-5
				c13.14,0,26.86,0,40,0v-5C67.51,50,62.49,50,60,50z"/>
			<path d="M15,50c-2.49,0-7.51,0-10,0c0-9.74,0-20.26,0-30h5v5h5c0-2.49,0-7.51,0-10c-4.45,0-10.55,0-15,0c0,13.14,0,26.86,0,40
				c2.49,0,7.51,0,10,0v5h5C15,57.51,15,52.49,15,50z"/>
			<path d="M45,40h5c0-2.49,0-7.51,0-10h-5C45,32.49,45,37.51,45,40z"/>
			<path d="M20,30h5v-5c-2.49,0-7.51,0-10,0v5H20z"/>
			<path d="M70,20c0,9.74,0,20.26,0,30h5c0-9.74,0-20.26,0-30H70z"/>
			<path d="M30,20h5c0,2.49,0,7.51,0,10c2.49,0,7.51,0,10,0v-5h-5v-5c2.49,0,7.51,0,10,0c0-2.49,0-7.51,0-10h-5v5
				c-6.27,0-13.73,0-20,0c0,2.49,0,7.51,0,10h5V20z"/>
			<path d="M60,20c2.49,0,7.51,0,10,0v-5h-5v-5h-5C60,12.49,60,17.51,60,20z"/>
			<path d="M60,10V5c-2.49,0-7.51,0-10,0v5C52.49,10,57.51,10,60,10z"/>
		</g>
	</symbol>
	<symbol id="files" viewBox="0 0 75 75">
		<g>
			<path d="M50,45c-4.45,0-10.55,0-15,0v5c8.02,0,16.98,0,25,0v-5C57.51,45,52.49,45,50,45z"/>
			<path d="M50,35c-4.45,0-10.55,0-15,0v5c8.02,0,16.98,0,25,0v-5C57.51,35,52.49,35,50,35z"/>
			<path d="M70,20c0,13.14,0,26.86,0,40c-21.55,0-43.45,0-65,0c0-11.44,0-23.56,0-35c6.27,0,13.73,0,20,0v-5c-6.27,0-13.73,0-20,0v-5
				H0c0,16.51,0,33.49,0,50c24.9,0,50.1,0,75,0c0-14.83,0-30.17,0-45H70z"/>
			<path d="M30,20c13.14,0,26.86,0,40,0v-5c-14.83,0-30.17,0-45,0v5H30z"/>
			<path d="M15,15c2.49,0,7.51,0,10,0v-5c-6.27,0-13.73,0-20,0v5C7.49,15,12.51,15,15,15z"/>
		</g>
	</symbol>
	<symbol id="cli" viewBox="0 0 30 30">
		<g>
			<rect y="4" width="2" height="23"/>
			<rect x="28" y="4" width="2" height="23"/>
			<rect x="29" y="25" width="2" height="28" transform="rotate(90 29 25)"/>
			<rect x="29" y="8" width="2" height="28" transform="rotate(90 29 8)"/>
			<rect x="29" y="4" width="2" height="28" transform="rotate(90 29 4)"/>
			<rect x="29" y="6" width="2" height="17" transform="rotate(90 29 6)"/>
			<rect x="6" y="6" width="2" height="2" transform="rotate(90 6 6)"/>
			<rect x="10" y="6" width="2" height="2" transform="rotate(90 10 6)"/>
			<rect x="6" y="12" width="2" height="2" transform="rotate(90 6 12)"/>
			<rect x="8" y="14" width="2" height="2" transform="rotate(90 8 14)"/>
			<rect x="10" y="16" width="2" height="2" transform="rotate(90 10 16)"/>
			<rect x="8" y="18" width="2" height="2" transform="rotate(90 8 18)"/>
			<rect x="6" y="20" width="2" height="2" transform="rotate(90 6 20)"/>
			<rect x="18" y="20" width="2" height="6" transform="rotate(90 18 20)"/>
		</g>
	</symbol>
	<symbol id="nfctools" viewBox="0 0 75 75">
		<g>
			<rect x="60" y="65" width="5" height="5"/>
			<path d="M65,60v5h5c0-2.49,0-7.51,0-10h-5V60z"/>
			<rect x="45" y="55" width="5" height="5"/>
			<rect x="50" y="50" width="5" height="5"/>
			<path d="M60,45c0-6.27,0-13.73,0-20h-5c0,8.02,0,16.98,0,25h5V45z"/>
			<rect x="5" y="45" width="5" height="5"/>
			<path d="M35,35v5c-2.49,0-7.51,0-10,0v-5h-5v-5h-5v-5c-2.49,0-7.51,0-10,0v5H0c0,4.45,0,10.55,0,15h5c0-2.49,0-7.51,0-10
				c2.49,0,7.51,0,10,0v5h5v5h5v5c2.49,0,7.51,0,10,0v-5h5c0-4.45,0-10.55,0-15h-5V35z"/>
			<rect x="30" y="25" width="5" height="5"/>
			<path d="M70,20c0,11.44,0,23.56,0,35h5c0-11.44,0-23.56,0-35H70z"/>
			<rect x="50" y="20" width="5" height="5"/>
			<rect x="45" y="15" width="5" height="5"/>
			<path d="M70,10h-5c0,2.49,0,7.51,0,10h5C70,17.51,70,12.49,70,10z"/>
			<rect x="60" y="5" width="5" height="5"/>
		</g>
	</symbol>
	<symbol id="paint" viewBox="0 0 75 75">
		<g>
			<rect x="10" y="60" width="5" height="5"/>
			<rect x="35" y="55" width="5" height="5"/>
			<path d="M30,55h-5v-5h-5c0,4.45,0,10.55,0,15c4.45,0,10.55,0,15,0v-5h-5V55z"/>
			<path d="M10,50H5c0,2.49,0,7.51,0,10h5C10,57.51,10,52.49,10,50z"/>
			<rect x="25" y="45" width="5" height="5"/>
			<rect x="50" y="40" width="5" height="5"/>
			<polygon points="45,40 40,40 40,35 35,35 35,40 30,40 30,45 35,45 35,50 40,50 40,55 45,55 45,50 50,50 50,45 45,45 	"/>
			<path d="M5,40c0-6.27,0-13.73,0-20H0c0,9.74,0,20.26,0,30h5C5,47.51,5,42.49,5,40z"/>
			<rect x="55" y="35" width="5" height="5"/>
			<rect x="60" y="30" width="5" height="5"/>
			<rect x="40" y="30" width="5" height="5"/>
			<rect x="25" y="30" width="5" height="5"/>
			<rect x="65" y="25" width="5" height="5"/>
			<rect x="45" y="25" width="5" height="5"/>
			<rect x="30" y="25" width="5" height="5"/>
			<path d="M20,25v-5h-5c0,2.49,0,7.51,0,10h5V25z"/>
			<rect x="70" y="20" width="5" height="5"/>
			<rect x="50" y="20" width="5" height="5"/>
			<rect x="65" y="15" width="5" height="5"/>
			<rect x="55" y="15" width="5" height="5"/>
			<path d="M30,20h5v5h5c0-2.49,0-7.51,0-10c-4.45,0-10.55,0-15,0v5H30z"/>
			<rect x="5" y="15" width="5" height="5"/>
			<rect x="60" y="10" width="5" height="5"/>
			<path d="M20,15h5v-5c-4.45,0-10.55,0-15,0v5C12.49,15,17.51,15,20,15z"/>
		</g>
	</symbol>
	<symbol id="subtools" viewBox="0 0 75 75">
		<g>
			<path d="M70,55c0-4.45,0-10.55,0-15h-5c0-2.49,0-7.51,0-10c-4.45,0-10.55,0-15,0c0,4.45,0,10.55,0,15h-5c0,2.49,0,7.51,0,10h-5v5
				h-5c0-6.27,0-13.73,0-20h-5c0-2.49,0-7.51,0-10c-4.45,0-10.55,0-15,0c0,4.45,0,10.55,0,15h-5c0,2.49,0,7.51,0,10H5v5H0v5
				c2.49,0,7.51,0,10,0v-5h5c0-2.49,0-7.51,0-10h5c0-4.45,0-10.55,0-15h5c0,2.49,0,7.51,0,10h5c0,6.27,0,13.73,0,20
				c4.45,0,10.55,0,15,0v-5h5c0-2.49,0-7.51,0-10h5c0-4.45,0-10.55,0-15h5c0,2.49,0,7.51,0,10h5c0,6.27,0,13.73,0,20
				c2.49,0,7.51,0,10,0v-5h-5V55z"/>
			<path d="M70,10c-23.22,0-46.78,0-70,0v5h5c0,2.49,0,7.51,0,10h5c0-2.49,0-7.51,0-10h5v5h5v-5h5v5h5v-5h5c0,2.49,0,7.51,0,10h5
				c0-2.49,0-7.51,0-10h5v5h5v-5h5v5h5v-5h5c0,2.49,0,7.51,0,10h5c0-2.49,0-7.51,0-10h5v-5H70z"/>
		</g>
	</symbol>
	<!-- Settings -->
	<symbol id="settings" viewBox="0 0 75 75">
		<g>
			<path d="M23,68v-5h-5c0,2.49,0,7.51,0,10c4.45,0,10.55,0,15,0v-5C30.51,68,25.49,68,23,68z"/>
			<path d="M68,68h5c0-2.49,0-7.51,0-10h-5C68,60.49,68,65.51,68,68z"/>
			<path d="M63,63h-5v-5h-5v-5h-5v-5h-5v-5h-5v5h-5c0,6.27,0,13.73,0,20h5c0-4.45,0-10.55,0-15h5v5h5v5h5v5h5v5c2.49,0,7.51,0,10,0v-5
				h-5V63z"/>
			<path d="M28,58v-5h-5c0,2.49,0,7.51,0,10h5V58z"/>
			<rect x="63" y="53" width="5" height="5"/>
			<rect x="58" y="48" width="5" height="5"/>
			<path d="M18,48h-5v5c2.49,0,7.51,0,10,0v-5H18z"/>
			<path d="M8,48v-5H3c0,4.45,0,10.55,0,15c2.49,0,7.51,0,10,0v-5H8V48z"/>
			<rect x="53" y="43" width="5" height="5"/>
			<path d="M18,43c2.49,0,7.51,0,10,0v-5h5v-5h-5v-5h5v5h5v-5h5c0-6.27,0-13.73,0-20h-5c0,4.45,0,10.55,0,15c-2.49,0-7.51,0-10,0v-5
				h-5v-5h-5V8h-5V3C10.51,3,5.49,3,3,3c0,2.49,0,7.51,0,10h5v5h5v5h5v5h5c0,2.49,0,7.51,0,10c-4.45,0-10.55,0-15,0v5
				C10.49,43,15.51,43,18,43z"/>
			<path d="M58,33c-2.49,0-7.51,0-10,0v5h-5v5c2.49,0,7.51,0,10,0v-5c4.45,0,10.55,0,15,0v-5C65.51,33,60.49,33,58,33z"/>
			<path d="M58,28h5v-5c-2.49,0-7.51,0-10,0v5H58z"/>
			<path d="M68,18h-5v5h5c0,2.49,0,7.51,0,10h5c0-4.45,0-10.55,0-15H68z"/>
			<path d="M48,18v5h5c0-2.49,0-7.51,0-10h-5V18z"/>
			<path d="M53,8v5h5c0-2.49,0-7.51,0-10c-4.45,0-10.55,0-15,0v5C45.49,8,50.51,8,53,8z"/>
		</g>
	</symbol>
	<symbol id="disconnect" viewBox="0 0 75 75">
		<g>
			<path d="M60,55c-18.19,0-36.81,0-55,0c0,2.49,0,7.51,0,10c21.55,0,43.45,0,65,0c0-2.49,0-7.51,0-10C67.51,55,62.49,55,60,55z"/>
			<path d="M65,40v-5h-5v-5h-5v-5h-5v-5h-5v-5h-5v-5h-5v5h-5v5h-5v5h-5v5h-5v5h-5v5H5c0,2.49,0,7.51,0,10c21.55,0,43.45,0,65,0
				c0-2.49,0-7.51,0-10H65z"/>
		</g>
	</symbol>
	<symbol id="on" viewBox="0 0 75 75">
		<g>
			<path d="M60,55c-6.27,0-13.73,0-20,0v5c9.74,0,20.26,0,30,0v-5C67.51,55,62.49,55,60,55z"/>
			<rect x="30" y="40" style="fill:transparent;"  width="5" height="5"/>
			<rect x="25" y="40" style="fill:#FF9933;" width="5" height="5"/>
			<rect x="20" y="40" style="fill:transparent;"  width="5" height="5"/>
			<rect x="15" y="40" style="fill:#FF9933;" width="5" height="5"/>
			<rect x="10" y="40" style="fill:transparent;"  width="5" height="5"/>
			<rect x="5" y="40" style="fill:#FF9933;" width="5" height="5"/>
			<path d="M5,40c0-2.49,0-7.51,0-10H0c0,4.45,0,10.55,0,15h5V40z"/>
			<rect x="30" y="35" style="fill:#FF9933;" width="5" height="5"/>
			<rect x="25" y="35" style="fill:transparent;"  width="5" height="5"/>
			<rect x="20" y="35" style="fill:#FF9933;" width="5" height="5"/>
			<rect x="15" y="35" style="fill:transparent;"  width="5" height="5"/>
			<rect x="10" y="35" style="fill:#FF9933;" width="5" height="5"/>
			<rect x="5" y="35" style="fill:transparent;"  width="5" height="5"/>
			<rect x="30" y="30" style="fill:transparent;"  width="5" height="5"/>
			<rect x="25" y="30" style="fill:#FF9933;" width="5" height="5"/>
			<rect x="20" y="30" style="fill:transparent;"  width="5" height="5"/>
			<rect x="15" y="30" style="fill:#FF9933;" width="5" height="5"/>
			<rect x="10" y="30" style="fill:transparent;"  width="5" height="5"/>
			<rect x="5" y="30" style="fill:#FF9933;" width="5" height="5"/>
			<path style="fill:#FF9933;" d="M40,30c0,8.02,0,16.98,0,25c9.74,0,20.26,0,30,0c0-11.44,0-23.56,0-35c-9.74,0-20.26,0-30,0
				C40,22.49,40,27.51,40,30z"/>
			<path d="M15,30c6.27,0,13.73,0,20,0c0,4.45,0,10.55,0,15c-9.74,0-20.26,0-30,0v5c9.74,0,20.26,0,30,0v5h5c0-11.44,0-23.56,0-35h-5
				v5c-9.74,0-20.26,0-30,0v5C7.49,30,12.51,30,15,30z"/>
			<path d="M70,25c0,9.74,0,20.26,0,30h5c0-11.44,0-23.56,0-35h-5V25z"/>
			<path d="M50,20c6.27,0,13.73,0,20,0v-5c-9.74,0-20.26,0-30,0v5C42.49,20,47.51,20,50,20z"/>
		</g>
	</symbol>
	<symbol id="off" viewBox="0 0 75 75">
		<g>
			<path d="M25,55c-6.27,0-13.73,0-20,0v5c9.74,0,20.26,0,30,0v-5C32.51,55,27.49,55,25,55z"/>
			<path d="M5,50c0-9.74,0-20.26,0-30H0c0,11.44,0,23.56,0,35h5V50z"/>
			<rect x="65" y="40" style="fill:999999;" width="5" height="5"/>
			<rect x="60" y="40" style="fill:transparent;" width="5" height="5"/>
			<rect x="55" y="40" style="fill:999999;" width="5" height="5"/>
			<rect x="50" y="40" style="fill:transparent;" width="5" height="5"/>
			<rect x="45" y="40" style="fill:999999;" width="5" height="5"/>
			<rect x="40" y="40" style="fill:transparent;" width="5" height="5"/>
			<rect x="65" y="35" style="fill:transparent;" width="5" height="5"/>
			<rect x="60" y="35" style="fill:999999;" width="5" height="5"/>
			<rect x="55" y="35" style="fill:transparent;" width="5" height="5"/>
			<rect x="50" y="35" style="fill:999999;" width="5" height="5"/>
			<rect x="45" y="35" style="fill:transparent;" width="5" height="5"/>
			<rect x="40" y="35" style="fill:999999;" width="5" height="5"/>
			<path d="M70,35c0,2.49,0,7.51,0,10h5c0-4.45,0-10.55,0-15h-5V35z"/>
			<rect x="65" y="30" style="fill:999999;" width="5" height="5"/>
			<rect x="60" y="30" style="fill:transparent;" width="5" height="5"/>
			<rect x="55" y="30" style="fill:999999;" width="5" height="5"/>
			<rect x="50" y="30" style="fill:transparent;" width="5" height="5"/>
			<rect x="45" y="30" style="fill:999999;" width="5" height="5"/>
			<rect x="40" y="30" style="fill:transparent;" width="5" height="5"/>
			<path d="M35,30c0,8.02,0,16.98,0,25h5v-5c9.74,0,20.26,0,30,0v-5c-9.74,0-20.26,0-30,0c0-4.45,0-10.55,0-15c9.74,0,20.26,0,30,0v-5
				c-9.74,0-20.26,0-30,0v-5h-5C35,22.49,35,27.51,35,30z"/>
			<path style="fill:transparent;" d="M5,30c0,8.02,0,16.98,0,25c9.74,0,20.26,0,30,0c0-11.44,0-23.56,0-35c-9.74,0-20.26,0-30,0
				C5,22.49,5,27.51,5,30z"/>
			<path d="M15,20c6.27,0,13.73,0,20,0v-5c-9.74,0-20.26,0-30,0v5C7.49,20,12.51,20,15,20z"/>
		</g>
	</symbol>
	<symbol id="connect" viewBox="0 0 42 20">
		<path d="M6.35279 1.79753C7.09301 0.675317 8.34746 0 9.69181 0H34.4303C35.7869 0 37.0511 0.687611 37.7883 1.82648L41.3579 7.3414C41.777 7.98886 42 8.74367 42 9.51493V16C42 18.2091 40.2091 20 38 20H9.34742C8.19751 20 7.10322 19.5051 6.3438 18.6416L2.01752 13.7226C0.826345 12.3681 0.688965 10.3841 1.68211 8.87843L6.35279 1.79753Z" fill="#C1C1C1"/>
		<path d="M26.3396 12.338L22.566 12.338L22.566 13.2535L20.6792 13.2535L20.6792 10.507L28.2264 10.507L28.2264 12.338L32 9.59155L28.2264 6.84507L28.2264 8.67606L20.6792 8.67606L20.6792 5.92958L22.6321 5.92958C22.9811 6.57042 23.6509 7.02817 24.4528 7.02817C25.6038 7.02817 26.5283 6.12183 26.5283 5.01408C26.5283 3.89718 25.6038 3 24.4528 3C23.6509 3 22.9811 3.45775 22.6321 4.09859L20.6792 4.09859C20.1788 4.09859 19.6989 4.2915 19.3451 4.63487C18.9912 4.97825 18.7925 5.44397 18.7925 5.92958L18.7925 8.67606L15.9151 8.67606C15.5755 8.02606 14.8774 7.57746 14.0755 7.57746C13.525 7.57746 12.9971 7.78966 12.6079 8.16738C12.2187 8.54509 12 9.05738 12 9.59155C12 10.1257 12.2187 10.638 12.6079 11.0157C12.9971 11.3934 13.525 11.6056 14.0755 11.6056C14.8774 11.6056 15.5755 11.157 15.9151 10.507L18.7925 10.507L18.7925 13.2535C18.7925 13.7391 18.9912 14.2048 19.3451 14.5482C19.6989 14.8916 20.1788 15.0845 20.6792 15.0845L22.566 15.0845L22.566 16L26.3396 16L26.3396 12.338Z" fill="white"/>
	</symbol>
	<symbol id="connected" viewBox="0 0 42 20">
		<path d="M6.35279 1.79753C7.09301 0.675317 8.34746 0 9.69181 0H34.4303C35.7869 0 37.0511 0.687611 37.7883 1.82648L41.3579 7.3414C41.777 7.98886 42 8.74367 42 9.51493V16C42 18.2091 40.2091 20 38 20H9.34742C8.19751 20 7.10322 19.5051 6.3438 18.6416L2.01752 13.7226C0.826345 12.3681 0.688965 10.3841 1.68211 8.87843L6.35279 1.79753Z" fill="#00c853"/>
		<path d="M26.7371 7.67573C27.1103 7.26861 27.0828 6.63604 26.6757 6.26285C26.2686 5.88966 25.636 5.91716 25.2628 6.32428L20.5359 11.481L18.7682 9.35982C18.4147 8.93554 17.7841 8.87822 17.3598 9.23178C16.9356 9.58535 16.8782 10.2159 17.2318 10.6402L19.7318 13.6402C19.9165 13.8618 20.188 13.9929 20.4764 13.9997C20.7649 14.0065 21.0422 13.8884 21.2372 13.6757L26.7371 7.67573Z" fill="white"/>
	</symbol>
  <symbol id="switch" viewBox="0 0 42 24">
    <path d="M6.97885 4.21049C7.58029 3.29869 8.59953 2.75 9.69181 2.75H34.4303C35.5326 2.75 36.5597 3.30868 37.1586 4.23401L40.7283 9.74894C41.0688 10.275 41.25 10.8883 41.25 11.5149V18C41.25 19.7949 39.7949 21.25 38 21.25H9.34742C8.41312 21.25 7.52401 20.8479 6.90698 20.1463L2.5807 15.2272C1.61287 14.1268 1.50125 12.5147 2.30818 11.2914L6.97885 4.21049Z" fill="#C1C1C1" stroke="#C1C1C1" stroke-width="1.5"/>
    <g clip-path="url(#clip0_2423_11997)">
    <path fill-rule="evenodd" clip-rule="evenodd" d="M19.2133 14.6682L19.5955 14.7566C19.9602 14.841 20.3151 14.6096 20.3883 14.2398C20.4615 13.87 20.2253 13.5019 19.8607 13.4175L17.9817 12.9828C17.6453 12.905 17.3119 13.0961 17.2076 13.4266L16.6931 15.0573C16.58 15.4155 16.7756 15.8069 17.13 15.9316C17.4843 16.0563 17.8632 15.867 17.9762 15.5088L18.0326 15.33C18.8201 16.4004 19.8767 17.0567 20.7343 17.3585C21.8005 17.7337 23.3704 17.8472 24.8846 17.0905C26.4035 16.3316 27.2654 14.9636 27.6037 13.8917C27.7167 13.5334 27.5211 13.142 27.1668 13.0173C26.8124 12.8926 26.4336 13.0819 26.3205 13.4401C26.068 14.2403 25.4073 15.2841 24.2668 15.854C23.1216 16.4262 21.9293 16.3377 21.1436 16.0613C20.5417 15.8495 19.7953 15.393 19.2133 14.6682ZM24.4586 10.438C24.094 10.3537 23.8577 9.98552 23.9309 9.61573C24.0041 9.24594 24.3591 9.01456 24.7237 9.09892L25.1059 9.18734C24.524 8.4625 23.7776 8.00608 23.1756 7.79425C22.39 7.5178 21.1977 7.4293 20.0525 8.00153C18.912 8.57143 18.2512 9.61521 17.9987 10.4154C17.8857 10.7736 17.5068 10.9629 17.1525 10.8382C16.7982 10.7136 16.6026 10.3221 16.7156 9.96388C17.0539 8.8919 17.9158 7.52396 19.4346 6.765C20.9489 6.00837 22.5187 6.12187 23.585 6.49706C24.4426 6.79886 25.4991 7.45518 26.2867 8.52552L26.3431 8.34675C26.4561 7.98854 26.835 7.79923 27.1893 7.92392C27.5436 8.0486 27.7392 8.44006 27.6262 8.79827L27.1116 10.4289C27.0074 10.7594 26.6739 10.9506 26.3375 10.8727L24.4586 10.438Z" fill="white"/>
    </g>
    <defs>
    <clipPath id="clip0_2423_11997">
    <rect width="12" height="12" fill="white" transform="translate(16 6)"/>
    </clipPath>
    </defs>
  </symbol>
	<symbol id="logs" viewBox="0 0 30 30">
		<g>
			<rect y="4" width="2" height="23"/>
			<rect x="28" y="4" width="2" height="23"/>
			<rect x="29" y="25" width="2" height="28" transform="rotate(90 29 25)"/>
			<rect x="29" y="8" width="2" height="28" transform="rotate(90 29 8)"/>
			<rect x="29" y="4" width="2" height="28" transform="rotate(90 29 4)"/>
			<rect x="29" y="6" width="2" height="17" transform="rotate(90 29 6)"/>
			<rect x="6" y="6" width="2" height="2" transform="rotate(90 6 6)"/>
			<rect x="10" y="6" width="2" height="2" transform="rotate(90 10 6)"/>
			<path d="M12 12L12 14L4 14L4 12L12 12Z"/>
			<path d="M14 12L14 14L21 14L21 12L14 12Z"/>
			<path d="M9.99951 16L9.99951 18L3.99951 18L3.99951 16L9.99951 16Z"/>
			<path d="M20 20L20 22L10 22L10 20L20 20Z"/>
			<path d="M16 16L16 18L12 18L12 16L16 16Z"/>
			<path d="M8 20L8 22L4 22L4 20L8 20Z"/>
		</g>
	</symbol>
	<!-- Archive -->
	<symbol id="internal-memory" viewBox="0 0 16 16">
		<path d="M 3 0 L 3 1 L 5 1 L 5 0 L 3 0 z M 7 0 L 7 1 L 9 1 L 9 0 L 7 0 z M 11 0 L 11 1 L 13 1 L 13 0 L 11 0 z M 2 2 L 2 7 L 2 9 L 2 14 L 7 14 L 9 14 L 14 14 L 14 9 L 14 7 L 14 2 L 9 2 L 7 2 L 2 2 z M 0 3 L 0 5 L 1 5 L 1 3 L 0 3 z M 15 3 L 15 5 L 16 5 L 16 3 L 15 3 z M 4 4 L 12 4 L 12 12 L 4 12 L 4 4 z M 6 6 L 6 10 L 10 10 L 10 6 L 6 6 z M 0 7 L 0 9 L 1 9 L 1 7 L 0 7 z M 15 7 L 15 9 L 16 9 L 16 7 L 15 7 z M 0 11 L 0 13 L 1 13 L 1 11 L 0 11 z M 15 11 L 15 13 L 16 13 L 16 11 L 15 11 z M 3 15 L 3 16 L 5 16 L 5 15 L 3 15 z M 7 15 L 7 16 L 9 16 L 9 15 L 7 15 z M 11 15 L 11 16 L 13 16 L 13 15 L 11 15 z "/>
	</symbol>
	<symbol id="sdcard-memory" viewBox="0 0 16 16">
		<path d="M 4 0 L 4 1 L 4 4 L 4 5 L 3 5 L 3 6 L 2 6 L 2 9 L 3 9 L 3 10 L 3 10.5 L 3 11 L 3 12 L 2 12 L 2 16 L 15 16 L 15 1 L 15 0 L 14 0 L 5 0 L 4 0 z M 8 1 L 9 1 L 9 3 L 8 3 L 8 1 z M 10 1 L 11 1 L 11 3 L 10 3 L 10 1 z "/>
	</symbol>
	<symbol id="delete" viewBox="0 0 30 30">
		<g clip-path="url(#clip0_499_34855)">
		<rect x="12" y="13" width="2" height="8" fill="#F63F3F" fill-opacity="0.56"/>
		<rect x="17" y="13" width="2" height="8" fill="#F63F3F" fill-opacity="0.56"/>
		<path fill-rule="evenodd" clip-rule="evenodd" d="M19 6V4H12V6L6 6V9L25 9V6L19 6Z" fill="#F63F3F" fill-opacity="0.56"/>
		<path fill-rule="evenodd" clip-rule="evenodd" d="M7 11H9V24H22V11H24V24V26L7 26V24V11Z" fill="#F63F3F" fill-opacity="0.56"/>
		</g>
		<defs>
		<clipPath id="clip0_499_34855">
		<rect width="22" height="22" fill="white" transform="translate(4 4)"/>
		</clipPath>
		</defs>
	</symbol>
	<!-- Apps -->
	<symbol id="installed" viewBox="0 0 70 70">
		<g>
			<path d="M30,55v5c2.49,0,7.51,0,10,0v-5C37.51,55,32.49,55,30,55z"/>
			<rect x="40" y="50" width="5" height="5"/>
			<rect x="25" y="50" width="5" height="5"/>
			<rect x="45" y="45" width="5" height="5"/>
			<rect x="20" y="45" width="5" height="5"/>
			<rect x="50" y="40" width="5" height="5"/>
			<rect x="15" y="40" width="5" height="5"/>
			<path d="M50,30h-5c0-6.27,0-13.73,0-20c-6.27,0-13.73,0-20,0c0,6.27,0,13.73,0,20c-4.45,0-10.55,0-15,0c0,2.49,0,7.51,0,10h5v-5
				c4.45,0,10.55,0,15,0c0-6.27,0-13.73,0-20c2.49,0,7.51,0,10,0c0,6.27,0,13.73,0,20c4.45,0,10.55,0,15,0v5h5c0-2.49,0-7.51,0-10
				C57.51,30,52.49,30,50,30z"/>
			<path d="M65,0C43.45,0,21.55,0,0,0c0,23.22,0,46.78,0,70c23.22,0,46.78,0,70,0c0-23.22,0-46.78,0-70H65z M65,10
				c0,18.19,0,36.81,0,55c-19.87,0-40.13,0-60,0C5,45.13,5,24.87,5,5c19.87,0,40.13,0,60,0V10z"/>
		</g>
	</symbol>
	<symbol id="arrow-down" viewBox="0 0 70 70">
		<path d="M40,60v5h5v5c2.49,0,7.51,0,10,0v-5h5v-5h5c0-2.49,0-7.51,0-10c-2.49,0-7.51,0-10,0c0-16.51,0-33.49,0-50
			c-2.49,0-7.51,0-10,0c0,16.51,0,33.49,0,50c-2.49,0-7.51,0-10,0c0,2.49,0,7.51,0,10H40z"/>
	</symbol>
	<symbol id="arrow-up" viewBox="0 0 70 70">
		<path d="M60,10V5h-5V0c-2.49,0-7.51,0-10,0v5h-5v5h-5c0,2.49,0,7.51,0,10c2.49,0,7.51,0,10,0c0,16.51,0,33.49,0,50
			c2.49,0,7.51,0,10,0c0-16.51,0-33.49,0-50c2.49,0,7.51,0,10,0c0-2.49,0-7.51,0-10H60z"/>
	</symbol>
	<symbol id="chevron-down" viewBox="0 0 70 70">
		<path d="M50,25c-11.44,0-23.56,0-35,0v5h5v5h5v5h5v5c2.49,0,7.51,0,10,0v-5h5v-5h5v-5h5v-5H50z"/>
	</symbol>
	<symbol id="chevron-up" viewBox="0 0 70 70">
		<path d="M20,45c11.44,0,23.56,0,35,0v-5h-5v-5h-5v-5h-5v-5c-2.49,0-7.51,0-10,0v5h-5v5h-5v5h-5v5H20z"/>
	</symbol>
	<symbol id="new" viewBox="0 0 70 70">
		<g>
			<path d="M5,60v5c2.49,0,7.51,0,10,0v-5C12.51,60,7.49,60,5,60z"/>
			<rect y="55" width="5" height="5"/>
			<path d="M55,45v-5h-5c0,8.02,0,16.98,0,25h5c0-4.45,0-10.55,0-15h5v-5H55z"/>
			<path d="M40,50c-2.49,0-7.51,0-10,0v-5h-5c0,6.27,0,13.73,0,20h5c0-2.49,0-7.51,0-10c2.49,0,7.51,0,10,0c0,2.49,0,7.51,0,10h5
				c0-6.27,0-13.73,0-20h-5V50z"/>
			<path d="M65,45v5h-5v5h5c0,2.49,0,7.51,0,10h5c0-8.02,0-16.98,0-25h-5V45z"/>
			<path d="M40,45v-5c-2.49,0-7.51,0-10,0v5C32.49,45,37.51,45,40,45z"/>
			<path d="M10,40H5v5c2.49,0,7.51,0,10,0c0,4.45,0,10.55,0,15h5c0-6.27,0-13.73,0-20C17.51,40,12.49,40,10,40z"/>
			<path d="M60,30h5v-5c-2.49,0-7.51,0-10,0v5H60z"/>
			<path d="M5,25c0-4.45,0-10.55,0-15c2.49,0,7.51,0,10,0V5C10.55,5,4.45,5,0,5c0,8.02,0,16.98,0,25c4.45,0,10.55,0,15,0v-5
				C12.51,25,7.49,25,5,25z"/>
			<rect x="65" y="20" width="5" height="5"/>
			<rect x="65" y="10" width="5" height="5"/>
			<path d="M50,15c0,2.49,0,7.51,0,10h5c0-4.45,0-10.55,0-15h-5V15z"/>
			<path d="M15,15c0,2.49,0,7.51,0,10h5c0-4.45,0-10.55,0-15h-5V15z"/>
			<path d="M60,5h-5v5c2.49,0,7.51,0,10,0V5H60z"/>
			<path d="M35,5c-2.49,0-7.51,0-10,0c0,8.02,0,16.98,0,25c6.27,0,13.73,0,20,0v-5c-4.45,0-10.55,0-15,0v-5c2.49,0,7.51,0,10,0v-5
				c-2.49,0-7.51,0-10,0v-5c4.45,0,10.55,0,15,0V5C42.51,5,37.49,5,35,5z"/>
		</g>
	</symbol>
	<symbol id="old" viewBox="0 0 70 70">
		<g>
			<path d="M60,65h5v-5c-2.49,0-7.51,0-10,0v5H60z"/>
			<path d="M5,60c0-4.45,0-10.55,0-15c2.49,0,7.51,0,10,0v-5c-4.45,0-10.55,0-15,0c0,8.02,0,16.98,0,25c4.45,0,10.55,0,15,0v-5
				C12.51,60,7.49,60,5,60z"/>
			<rect x="65" y="55" width="5" height="5"/>
			<rect x="65" y="45" width="5" height="5"/>
			<path d="M50,50c0,2.49,0,7.51,0,10h5c0-4.45,0-10.55,0-15h-5V50z"/>
			<path d="M15,50c0,2.49,0,7.51,0,10h5c0-4.45,0-10.55,0-15h-5V50z"/>
			<path d="M60,40h-5v5c2.49,0,7.51,0,10,0v-5H60z"/>
			<path d="M35,40c-2.49,0-7.51,0-10,0c0,8.02,0,16.98,0,25c6.27,0,13.73,0,20,0v-5c-4.45,0-10.55,0-15,0v-5c2.49,0,7.51,0,10,0v-5
				c-2.49,0-7.51,0-10,0v-5c4.45,0,10.55,0,15,0v-5C42.51,40,37.49,40,35,40z"/>
			<path d="M5,25v5c2.49,0,7.51,0,10,0v-5C12.51,25,7.49,25,5,25z"/>
			<rect y="20" width="5" height="5"/>
			<path d="M55,10V5h-5c0,8.02,0,16.98,0,25h5c0-4.45,0-10.55,0-15h5v-5H55z"/>
			<path d="M40,15c-2.49,0-7.51,0-10,0v-5h-5c0,6.27,0,13.73,0,20h5c0-2.49,0-7.51,0-10c2.49,0,7.51,0,10,0c0,2.49,0,7.51,0,10h5
				c0-6.27,0-13.73,0-20h-5V15z"/>
			<path d="M65,5c0,2.49,0,7.51,0,10h-5v5h5c0,2.49,0,7.51,0,10h5c0-8.02,0-16.98,0-25H65z"/>
			<path d="M40,10V5c-2.49,0-7.51,0-10,0v5C32.49,10,37.51,10,40,10z"/>
			<path d="M10,5H5v5c2.49,0,7.51,0,10,0c0,4.45,0,10.55,0,15h5c0-6.27,0-13.73,0-20C17.51,5,12.49,5,10,5z"/>
		</g>
	</symbol>
	<symbol id="fw-conflict-icon" viewBox="0 0 60 60">
		<path d="M57.1491 23.9456C57.6199 23.9456 58 23.5655 58 23.0947C58 22.6238 57.6199 22.2437 57.1491 22.2437H51.3032V17.1523H57.1491C57.6199 17.1523 58 16.7722 58 16.3014C58 15.8305 57.6199 15.4504 57.1491 15.4504H51.3032V12.9856C51.3032 10.5604 49.329 8.58623 46.9038 8.58623H44.4389V2.85093C44.4389 2.38008 44.0589 2 43.588 2C43.1172 2 42.7371 2.38008 42.7371 2.85093V8.58623H37.6457V2.85093C37.6457 2.38008 37.2656 2 36.7947 2C36.3239 2 35.9438 2.38008 35.9438 2.85093V8.58623H30.8495V2.85093C30.8495 2.38008 30.4694 2 29.9986 2C29.5277 2 29.1476 2.38008 29.1476 2.85093V8.58623H24.0562V2.85093C24.0562 2.38008 23.6761 2 23.2053 2C22.7344 2 22.3544 2.38008 22.3544 2.85093V8.58623H17.2629V2.85093C17.2629 2.38008 16.8828 2 16.412 2C15.9411 2 15.5611 2.38008 15.5611 2.85093V8.58623H13.0962C10.671 8.58623 8.69686 10.5604 8.69686 12.9856V15.4504H2.85093C2.38008 15.4504 2 15.8305 2 16.3014C2 16.7722 2.38008 17.1523 2.85093 17.1523H8.69686V22.2437H2.85093C2.38008 22.2437 2 22.6238 2 23.0947C2 23.5655 2.38008 23.9456 2.85093 23.9456H8.69686V29.037H2.85093C2.38008 29.037 2 29.4171 2 29.888C2 30.3588 2.38008 30.7389 2.85093 30.7389H8.69686V35.8303H2.85093C2.38008 35.8303 2 36.2104 2 36.6813C2 37.1521 2.38008 37.5322 2.85093 37.5322H8.69686V42.6236H2.85093C2.38008 42.6236 2 43.0037 2 43.4745C2 43.9454 2.38008 44.3255 2.85093 44.3255H8.69686V46.7904C8.69686 49.2155 10.671 51.1897 13.0962 51.1897H15.5611V57.1491C15.5611 57.6199 15.9411 58 16.412 58C16.8828 58 17.2629 57.6199 17.2629 57.1491V51.1897H22.3544V57.1491C22.3544 57.6199 22.7344 58 23.2053 58C23.6761 58 24.0562 57.6199 24.0562 57.1491V51.1897H29.1476V57.1491C29.1476 57.6199 29.5277 58 29.9986 58C30.4694 58 30.8495 57.6199 30.8495 57.1491V51.1897H35.9409V57.1491C35.9409 57.6199 36.321 58 36.7919 58C37.2627 58 37.6428 57.6199 37.6428 57.1491V51.1897H42.7342V57.1491C42.7342 57.6199 43.1143 58 43.5852 58C44.056 58 44.4361 57.6199 44.4361 57.1491V51.1897H46.901C49.3261 51.1897 51.3003 49.2155 51.3003 46.7904V44.3255H57.1462C57.6171 44.3255 57.9972 43.9454 57.9972 43.4745C57.9972 43.0037 57.6171 42.6236 57.1462 42.6236H51.3003V37.5322H57.1462C57.6171 37.5322 57.9972 37.1521 57.9972 36.6813C57.9972 36.2104 57.6171 35.8303 57.1462 35.8303H51.3003V30.7389H57.1462C57.6171 30.7389 57.9972 30.3588 57.9972 29.888C57.9972 29.4171 57.6171 29.037 57.1462 29.037H51.3003V23.9456H57.1491ZM49.6013 46.7932C49.6013 48.2795 48.3901 49.4907 46.9038 49.4907H13.0934C11.6071 49.4907 10.3959 48.2795 10.3959 46.7932V12.9856C10.3959 11.4993 11.6071 10.2881 13.0934 10.2881H46.9038C48.3901 10.2881 49.6013 11.4993 49.6013 12.9856V46.7932Z" fill="#FF8200"/>
		<path fill-rule="evenodd" clip-rule="evenodd" d="M30 44C37.732 44 44 37.732 44 30C44 22.268 37.732 16 30 16C22.268 16 16 22.268 16 30C16 37.732 22.268 44 30 44ZM30 42.18C23.2732 42.18 17.82 36.7268 17.82 30C17.82 23.2732 23.2732 17.82 30 17.82C36.7268 17.82 42.18 23.2732 42.18 30C42.18 36.7268 36.7268 42.18 30 42.18ZM24.842 28.5262C25.6559 28.5262 26.3157 27.8664 26.3157 27.0525C26.3157 26.2386 25.6559 25.5789 24.842 25.5789C24.0281 25.5789 23.3683 26.2386 23.3683 27.0525C23.3683 27.8664 24.0281 28.5262 24.842 28.5262ZM34.8734 35.161C35.4285 34.9096 35.65 34.228 35.2506 33.7677C34.7599 33.2024 34.1556 32.7185 33.4649 32.3422C32.4221 31.7742 31.2229 31.4736 29.9999 31.4736C28.7769 31.4736 27.5777 31.7742 26.5349 32.3422C25.8441 32.7185 25.2398 33.2024 24.7492 33.7677C24.3497 34.228 24.5713 34.9096 25.1264 35.161C25.6115 35.3808 26.176 35.1843 26.5409 34.7965C26.8531 34.4648 27.225 34.1786 27.6437 33.9506C28.3528 33.5643 29.1682 33.3599 29.9999 33.3599C30.8315 33.3599 31.647 33.5643 32.3561 33.9506C32.7747 34.1786 33.1467 34.4648 33.4588 34.7965C33.8238 35.1843 34.3882 35.3808 34.8734 35.161ZM35.1578 28.5262C35.9717 28.5262 36.6315 27.8664 36.6315 27.0525C36.6315 26.2386 35.9717 25.5789 35.1578 25.5789C34.3439 25.5789 33.6841 26.2386 33.6841 27.0525C33.6841 27.8664 34.3439 28.5262 35.1578 28.5262Z" fill="#FF8200"/>
	</symbol>
	<!-- Misc -->
	<symbol id="link" viewBox="0 0 20 20">
		<rect x="11" y="7" width="2" height="2"/>
		<rect x="13" y="5" width="2" height="2"/>
		<rect x="10" y="2" width="2" height="2"/>
		<rect x="8" y="4" width="2" height="3"/>
		<rect x="4" y="8" width="2" height="2"/>
		<rect x="6" y="8" width="1" height="2"/>
		<rect x="10" y="13" width="2" height="3"/>
		<rect x="8" y="16" width="2" height="2"/>
		<rect x="2" y="10" width="2" height="2"/>
		<rect x="12" width="2" height="2"/>
		<rect x="14" width="2" height="2"/>
		<rect x="6" y="18" width="2" height="2"/>
		<rect x="4" y="18" width="2" height="2"/>
		<rect x="2" y="18" width="2" height="2"/>
		<rect y="16" width="2" height="2"/>
		<rect y="14" width="2" height="2"/>
		<rect y="12" width="2" height="2"/>
		<rect x="16" width="2" height="2"/>
		<rect x="18" y="2" width="2" height="2"/>
		<rect x="18" y="4" width="2" height="2"/>
		<rect x="18" y="6" width="2" height="2"/>
		<rect x="16" y="8" width="2" height="2"/>
		<rect x="14" y="10" width="2" height="2"/>
		<rect x="13" y="10" width="1" height="2"/>
		<rect x="9" y="9" width="2" height="2"/>
		<rect x="7" y="11" width="2" height="2"/>
		<rect x="5" y="13" width="2" height="2"/>
	</symbol>
</svg>
