<svg xmlns="http://www.w3.org/2000/svg">
	<!-- Navigation -->
	<symbol id="device" viewBox="0 0 75 75">
		<g>
			<path d="M60,55c-14.83,0-30.17,0-45,0v5c18.19,0,36.81,0,55,0v-5C67.51,55,62.49,55,60,55z"/>
			<rect x="10" y="50" width="5" height="5"/>
			<rect x="5" y="45" width="5" height="5"/>
			<rect x="60" y="40" width="5" height="5"/>
			<polygon points="55,35 55,30 50,30 50,35 45,35 45,40 50,40 50,45 55,45 55,40 60,40 60,35 	"/>
			<path d="M5,35H0c0,2.49,0,7.51,0,10h5C5,42.51,5,37.49,5,35z"/>
			<path d="M70,30c0,8.02,0,16.98,0,25h5c0-8.02,0-16.98,0-25H70z"/>
			<path d="M30,30c-2.49,0-7.51,0-10,0c0,4.45,0,10.55,0,15c6.27,0,13.73,0,20,0c0-4.45,0-10.55,0-15C37.51,30,32.49,30,30,30z"/>
			<rect x="5" y="30" width="5" height="5"/>
			<rect x="65" y="25" width="5" height="5"/>
			<rect x="10" y="25" width="5" height="5"/>
			<path d="M25,25c13.14,0,26.86,0,40,0v-5c-16.51,0-33.49,0-50,0v5C17.49,25,22.51,25,25,25z"/>
		</g>
	</symbol>
	<symbol id="apps" viewBox="0 0 75 75">
		<g>
			<path d="M15,60v5c2.49,0,7.51,0,10,0v-5C22.51,60,17.49,60,15,60z"/>
			<path d="M60,50c-6.27,0-13.73,0-20,0v-5h5v-5c-2.49,0-7.51,0-10,0c0,2.49,0,7.51,0,10c-2.49,0-7.51,0-10,0c0,2.49,0,7.51,0,10h5v-5
				c13.14,0,26.86,0,40,0v-5C67.51,50,62.49,50,60,50z"/>
			<path d="M15,50c-2.49,0-7.51,0-10,0c0-9.74,0-20.26,0-30h5v5h5c0-2.49,0-7.51,0-10c-4.45,0-10.55,0-15,0c0,13.14,0,26.86,0,40
				c2.49,0,7.51,0,10,0v5h5C15,57.51,15,52.49,15,50z"/>
			<path d="M45,40h5c0-2.49,0-7.51,0-10h-5C45,32.49,45,37.51,45,40z"/>
			<path d="M20,30h5v-5c-2.49,0-7.51,0-10,0v5H20z"/>
			<path d="M70,20c0,9.74,0,20.26,0,30h5c0-9.74,0-20.26,0-30H70z"/>
			<path d="M30,20h5c0,2.49,0,7.51,0,10c2.49,0,7.51,0,10,0v-5h-5v-5c2.49,0,7.51,0,10,0c0-2.49,0-7.51,0-10h-5v5
				c-6.27,0-13.73,0-20,0c0,2.49,0,7.51,0,10h5V20z"/>
			<path d="M60,20c2.49,0,7.51,0,10,0v-5h-5v-5h-5C60,12.49,60,17.51,60,20z"/>
			<path d="M60,10V5c-2.49,0-7.51,0-10,0v5C52.49,10,57.51,10,60,10z"/>
		</g>
	</symbol>
	<symbol id="files" viewBox="0 0 75 75">
		<g>
			<path d="M50,45c-4.45,0-10.55,0-15,0v5c8.02,0,16.98,0,25,0v-5C57.51,45,52.49,45,50,45z"/>
			<path d="M50,35c-4.45,0-10.55,0-15,0v5c8.02,0,16.98,0,25,0v-5C57.51,35,52.49,35,50,35z"/>
			<path d="M70,20c0,13.14,0,26.86,0,40c-21.55,0-43.45,0-65,0c0-11.44,0-23.56,0-35c6.27,0,13.73,0,20,0v-5c-6.27,0-13.73,0-20,0v-5
				H0c0,16.51,0,33.49,0,50c24.9,0,50.1,0,75,0c0-14.83,0-30.17,0-45H70z"/>
			<path d="M30,20c13.14,0,26.86,0,40,0v-5c-14.83,0-30.17,0-45,0v5H30z"/>
			<path d="M15,15c2.49,0,7.51,0,10,0v-5c-6.27,0-13.73,0-20,0v5C7.49,15,12.51,15,15,15z"/>
		</g>
	</symbol>
	<symbol id="cli" viewBox="0 0 75 75">
		<g>
			<path d="M70,55c-11.44,0-23.56,0-35,0c0,2.49,0,7.51,0,10c13.14,0,26.86,0,40,0c0-2.49,0-7.51,0-10H70z"/>
			<path d="M35,35h-5v-5h-5v-5h-5v-5h-5v-5h-5v-5c-2.49,0-7.51,0-10,0c0,2.49,0,7.51,0,10h5v5h5v5h5v5h5v5h-5v5h-5v5H5v5H0
				c0,2.49,0,7.51,0,10c2.49,0,7.51,0,10,0v-5h5v-5h5v-5h5v-5h5v-5h5V35z"/>
		</g>
	</symbol>
	<symbol id="nfctools" viewBox="0 0 75 75">
		<g>
			<rect x="60" y="65" width="5" height="5"/>
			<path d="M65,60v5h5c0-2.49,0-7.51,0-10h-5V60z"/>
			<rect x="45" y="55" width="5" height="5"/>
			<rect x="50" y="50" width="5" height="5"/>
			<path d="M60,45c0-6.27,0-13.73,0-20h-5c0,8.02,0,16.98,0,25h5V45z"/>
			<rect x="5" y="45" width="5" height="5"/>
			<path d="M35,35v5c-2.49,0-7.51,0-10,0v-5h-5v-5h-5v-5c-2.49,0-7.51,0-10,0v5H0c0,4.45,0,10.55,0,15h5c0-2.49,0-7.51,0-10
				c2.49,0,7.51,0,10,0v5h5v5h5v5c2.49,0,7.51,0,10,0v-5h5c0-4.45,0-10.55,0-15h-5V35z"/>
			<rect x="30" y="25" width="5" height="5"/>
			<path d="M70,20c0,11.44,0,23.56,0,35h5c0-11.44,0-23.56,0-35H70z"/>
			<rect x="50" y="20" width="5" height="5"/>
			<rect x="45" y="15" width="5" height="5"/>
			<path d="M70,10h-5c0,2.49,0,7.51,0,10h5C70,17.51,70,12.49,70,10z"/>
			<rect x="60" y="5" width="5" height="5"/>
		</g>
	</symbol>
	<symbol id="paint" viewBox="0 0 75 75">
		<g>
			<rect x="10" y="60" width="5" height="5"/>
			<rect x="35" y="55" width="5" height="5"/>
			<path d="M30,55h-5v-5h-5c0,4.45,0,10.55,0,15c4.45,0,10.55,0,15,0v-5h-5V55z"/>
			<path d="M10,50H5c0,2.49,0,7.51,0,10h5C10,57.51,10,52.49,10,50z"/>
			<rect x="25" y="45" width="5" height="5"/>
			<rect x="50" y="40" width="5" height="5"/>
			<polygon points="45,40 40,40 40,35 35,35 35,40 30,40 30,45 35,45 35,50 40,50 40,55 45,55 45,50 50,50 50,45 45,45 	"/>
			<path d="M5,40c0-6.27,0-13.73,0-20H0c0,9.74,0,20.26,0,30h5C5,47.51,5,42.49,5,40z"/>
			<rect x="55" y="35" width="5" height="5"/>
			<rect x="60" y="30" width="5" height="5"/>
			<rect x="40" y="30" width="5" height="5"/>
			<rect x="25" y="30" width="5" height="5"/>
			<rect x="65" y="25" width="5" height="5"/>
			<rect x="45" y="25" width="5" height="5"/>
			<rect x="30" y="25" width="5" height="5"/>
			<path d="M20,25v-5h-5c0,2.49,0,7.51,0,10h5V25z"/>
			<rect x="70" y="20" width="5" height="5"/>
			<rect x="50" y="20" width="5" height="5"/>
			<rect x="65" y="15" width="5" height="5"/>
			<rect x="55" y="15" width="5" height="5"/>
			<path d="M30,20h5v5h5c0-2.49,0-7.51,0-10c-4.45,0-10.55,0-15,0v5H30z"/>
			<rect x="5" y="15" width="5" height="5"/>
			<rect x="60" y="10" width="5" height="5"/>
			<path d="M20,15h5v-5c-4.45,0-10.55,0-15,0v5C12.49,15,17.51,15,20,15z"/>
		</g>
	</symbol>
	<symbol id="subtools" viewBox="0 0 75 75">
		<g>
			<path d="M70,55c0-4.45,0-10.55,0-15h-5c0-2.49,0-7.51,0-10c-4.45,0-10.55,0-15,0c0,4.45,0,10.55,0,15h-5c0,2.49,0,7.51,0,10h-5v5
				h-5c0-6.27,0-13.73,0-20h-5c0-2.49,0-7.51,0-10c-4.45,0-10.55,0-15,0c0,4.45,0,10.55,0,15h-5c0,2.49,0,7.51,0,10H5v5H0v5
				c2.49,0,7.51,0,10,0v-5h5c0-2.49,0-7.51,0-10h5c0-4.45,0-10.55,0-15h5c0,2.49,0,7.51,0,10h5c0,6.27,0,13.73,0,20
				c4.45,0,10.55,0,15,0v-5h5c0-2.49,0-7.51,0-10h5c0-4.45,0-10.55,0-15h5c0,2.49,0,7.51,0,10h5c0,6.27,0,13.73,0,20
				c2.49,0,7.51,0,10,0v-5h-5V55z"/>
			<path d="M70,10c-23.22,0-46.78,0-70,0v5h5c0,2.49,0,7.51,0,10h5c0-2.49,0-7.51,0-10h5v5h5v-5h5v5h5v-5h5c0,2.49,0,7.51,0,10h5
				c0-2.49,0-7.51,0-10h5v5h5v-5h5v5h5v-5h5c0,2.49,0,7.51,0,10h5c0-2.49,0-7.51,0-10h5v-5H70z"/>
		</g>
	</symbol>
	<!-- Settings -->
	<symbol id="settings" viewBox="0 0 75 75">
		<g>
			<path d="M23,68v-5h-5c0,2.49,0,7.51,0,10c4.45,0,10.55,0,15,0v-5C30.51,68,25.49,68,23,68z"/>
			<path d="M68,68h5c0-2.49,0-7.51,0-10h-5C68,60.49,68,65.51,68,68z"/>
			<path d="M63,63h-5v-5h-5v-5h-5v-5h-5v-5h-5v5h-5c0,6.27,0,13.73,0,20h5c0-4.45,0-10.55,0-15h5v5h5v5h5v5h5v5c2.49,0,7.51,0,10,0v-5
				h-5V63z"/>
			<path d="M28,58v-5h-5c0,2.49,0,7.51,0,10h5V58z"/>
			<rect x="63" y="53" width="5" height="5"/>
			<rect x="58" y="48" width="5" height="5"/>
			<path d="M18,48h-5v5c2.49,0,7.51,0,10,0v-5H18z"/>
			<path d="M8,48v-5H3c0,4.45,0,10.55,0,15c2.49,0,7.51,0,10,0v-5H8V48z"/>
			<rect x="53" y="43" width="5" height="5"/>
			<path d="M18,43c2.49,0,7.51,0,10,0v-5h5v-5h-5v-5h5v5h5v-5h5c0-6.27,0-13.73,0-20h-5c0,4.45,0,10.55,0,15c-2.49,0-7.51,0-10,0v-5
				h-5v-5h-5V8h-5V3C10.51,3,5.49,3,3,3c0,2.49,0,7.51,0,10h5v5h5v5h5v5h5c0,2.49,0,7.51,0,10c-4.45,0-10.55,0-15,0v5
				C10.49,43,15.51,43,18,43z"/>
			<path d="M58,33c-2.49,0-7.51,0-10,0v5h-5v5c2.49,0,7.51,0,10,0v-5c4.45,0,10.55,0,15,0v-5C65.51,33,60.49,33,58,33z"/>
			<path d="M58,28h5v-5c-2.49,0-7.51,0-10,0v5H58z"/>
			<path d="M68,18h-5v5h5c0,2.49,0,7.51,0,10h5c0-4.45,0-10.55,0-15H68z"/>
			<path d="M48,18v5h5c0-2.49,0-7.51,0-10h-5V18z"/>
			<path d="M53,8v5h5c0-2.49,0-7.51,0-10c-4.45,0-10.55,0-15,0v5C45.49,8,50.51,8,53,8z"/>
		</g>
	</symbol>
	<symbol id="disconnect" viewBox="0 0 75 75">
		<g>
			<path d="M60,55c-18.19,0-36.81,0-55,0c0,2.49,0,7.51,0,10c21.55,0,43.45,0,65,0c0-2.49,0-7.51,0-10C67.51,55,62.49,55,60,55z"/>
			<path d="M65,40v-5h-5v-5h-5v-5h-5v-5h-5v-5h-5v-5h-5v5h-5v5h-5v5h-5v5h-5v5h-5v5H5c0,2.49,0,7.51,0,10c21.55,0,43.45,0,65,0
				c0-2.49,0-7.51,0-10H65z"/>
		</g>
	</symbol>
	<symbol id="on" viewBox="0 0 75 75">
		<g>
			<path d="M60,55c-6.27,0-13.73,0-20,0v5c9.74,0,20.26,0,30,0v-5C67.51,55,62.49,55,60,55z"/>
			<rect x="30" y="40" style="fill:transparent;"  width="5" height="5"/>
			<rect x="25" y="40" style="fill:#FF9933;" width="5" height="5"/>
			<rect x="20" y="40" style="fill:transparent;"  width="5" height="5"/>
			<rect x="15" y="40" style="fill:#FF9933;" width="5" height="5"/>
			<rect x="10" y="40" style="fill:transparent;"  width="5" height="5"/>
			<rect x="5" y="40" style="fill:#FF9933;" width="5" height="5"/>
			<path d="M5,40c0-2.49,0-7.51,0-10H0c0,4.45,0,10.55,0,15h5V40z"/>
			<rect x="30" y="35" style="fill:#FF9933;" width="5" height="5"/>
			<rect x="25" y="35" style="fill:transparent;"  width="5" height="5"/>
			<rect x="20" y="35" style="fill:#FF9933;" width="5" height="5"/>
			<rect x="15" y="35" style="fill:transparent;"  width="5" height="5"/>
			<rect x="10" y="35" style="fill:#FF9933;" width="5" height="5"/>
			<rect x="5" y="35" style="fill:transparent;"  width="5" height="5"/>
			<rect x="30" y="30" style="fill:transparent;"  width="5" height="5"/>
			<rect x="25" y="30" style="fill:#FF9933;" width="5" height="5"/>
			<rect x="20" y="30" style="fill:transparent;"  width="5" height="5"/>
			<rect x="15" y="30" style="fill:#FF9933;" width="5" height="5"/>
			<rect x="10" y="30" style="fill:transparent;"  width="5" height="5"/>
			<rect x="5" y="30" style="fill:#FF9933;" width="5" height="5"/>
			<path style="fill:#FF9933;" d="M40,30c0,8.02,0,16.98,0,25c9.74,0,20.26,0,30,0c0-11.44,0-23.56,0-35c-9.74,0-20.26,0-30,0
				C40,22.49,40,27.51,40,30z"/>
			<path d="M15,30c6.27,0,13.73,0,20,0c0,4.45,0,10.55,0,15c-9.74,0-20.26,0-30,0v5c9.74,0,20.26,0,30,0v5h5c0-11.44,0-23.56,0-35h-5
				v5c-9.74,0-20.26,0-30,0v5C7.49,30,12.51,30,15,30z"/>
			<path d="M70,25c0,9.74,0,20.26,0,30h5c0-11.44,0-23.56,0-35h-5V25z"/>
			<path d="M50,20c6.27,0,13.73,0,20,0v-5c-9.74,0-20.26,0-30,0v5C42.49,20,47.51,20,50,20z"/>
		</g>
	</symbol>
	<symbol id="off" viewBox="0 0 75 75">
		<g>
			<path d="M25,55c-6.27,0-13.73,0-20,0v5c9.74,0,20.26,0,30,0v-5C32.51,55,27.49,55,25,55z"/>
			<path d="M5,50c0-9.74,0-20.26,0-30H0c0,11.44,0,23.56,0,35h5V50z"/>
			<rect x="65" y="40" style="fill:999999;" width="5" height="5"/>
			<rect x="60" y="40" style="fill:transparent;" width="5" height="5"/>
			<rect x="55" y="40" style="fill:999999;" width="5" height="5"/>
			<rect x="50" y="40" style="fill:transparent;" width="5" height="5"/>
			<rect x="45" y="40" style="fill:999999;" width="5" height="5"/>
			<rect x="40" y="40" style="fill:transparent;" width="5" height="5"/>
			<rect x="65" y="35" style="fill:transparent;" width="5" height="5"/>
			<rect x="60" y="35" style="fill:999999;" width="5" height="5"/>
			<rect x="55" y="35" style="fill:transparent;" width="5" height="5"/>
			<rect x="50" y="35" style="fill:999999;" width="5" height="5"/>
			<rect x="45" y="35" style="fill:transparent;" width="5" height="5"/>
			<rect x="40" y="35" style="fill:999999;" width="5" height="5"/>
			<path d="M70,35c0,2.49,0,7.51,0,10h5c0-4.45,0-10.55,0-15h-5V35z"/>
			<rect x="65" y="30" style="fill:999999;" width="5" height="5"/>
			<rect x="60" y="30" style="fill:transparent;" width="5" height="5"/>
			<rect x="55" y="30" style="fill:999999;" width="5" height="5"/>
			<rect x="50" y="30" style="fill:transparent;" width="5" height="5"/>
			<rect x="45" y="30" style="fill:999999;" width="5" height="5"/>
			<rect x="40" y="30" style="fill:transparent;" width="5" height="5"/>
			<path d="M35,30c0,8.02,0,16.98,0,25h5v-5c9.74,0,20.26,0,30,0v-5c-9.74,0-20.26,0-30,0c0-4.45,0-10.55,0-15c9.74,0,20.26,0,30,0v-5
				c-9.74,0-20.26,0-30,0v-5h-5C35,22.49,35,27.51,35,30z"/>
			<path style="fill:transparent;" d="M5,30c0,8.02,0,16.98,0,25c9.74,0,20.26,0,30,0c0-11.44,0-23.56,0-35c-9.74,0-20.26,0-30,0
				C5,22.49,5,27.51,5,30z"/>
			<path d="M15,20c6.27,0,13.73,0,20,0v-5c-9.74,0-20.26,0-30,0v5C7.49,20,12.51,20,15,20z"/>
		</g>
	</symbol>
	<!-- Archive -->
	<symbol id="internal-memory" viewBox="0 0 16 16">
		<path d="M 3 0 L 3 1 L 5 1 L 5 0 L 3 0 z M 7 0 L 7 1 L 9 1 L 9 0 L 7 0 z M 11 0 L 11 1 L 13 1 L 13 0 L 11 0 z M 2 2 L 2 7 L 2 9 L 2 14 L 7 14 L 9 14 L 14 14 L 14 9 L 14 7 L 14 2 L 9 2 L 7 2 L 2 2 z M 0 3 L 0 5 L 1 5 L 1 3 L 0 3 z M 15 3 L 15 5 L 16 5 L 16 3 L 15 3 z M 4 4 L 12 4 L 12 12 L 4 12 L 4 4 z M 6 6 L 6 10 L 10 10 L 10 6 L 6 6 z M 0 7 L 0 9 L 1 9 L 1 7 L 0 7 z M 15 7 L 15 9 L 16 9 L 16 7 L 15 7 z M 0 11 L 0 13 L 1 13 L 1 11 L 0 11 z M 15 11 L 15 13 L 16 13 L 16 11 L 15 11 z M 3 15 L 3 16 L 5 16 L 5 15 L 3 15 z M 7 15 L 7 16 L 9 16 L 9 15 L 7 15 z M 11 15 L 11 16 L 13 16 L 13 15 L 11 15 z "/>
	</symbol>
	<symbol id="sdcard-memory" viewBox="0 0 16 16">
		<path d="M 4 0 L 4 1 L 4 4 L 4 5 L 3 5 L 3 6 L 2 6 L 2 9 L 3 9 L 3 10 L 3 10.5 L 3 11 L 3 12 L 2 12 L 2 16 L 15 16 L 15 1 L 15 0 L 14 0 L 5 0 L 4 0 z M 8 1 L 9 1 L 9 3 L 8 3 L 8 1 z M 10 1 L 11 1 L 11 3 L 10 3 L 10 1 z "/>
	</symbol>
	<!-- Apps -->
	<symbol id="installed" viewBox="0 0 70 70">
		<g>
			<path d="M30,55v5c2.49,0,7.51,0,10,0v-5C37.51,55,32.49,55,30,55z"/>
			<rect x="40" y="50" width="5" height="5"/>
			<rect x="25" y="50" width="5" height="5"/>
			<rect x="45" y="45" width="5" height="5"/>
			<rect x="20" y="45" width="5" height="5"/>
			<rect x="50" y="40" width="5" height="5"/>
			<rect x="15" y="40" width="5" height="5"/>
			<path d="M50,30h-5c0-6.27,0-13.73,0-20c-6.27,0-13.73,0-20,0c0,6.27,0,13.73,0,20c-4.45,0-10.55,0-15,0c0,2.49,0,7.51,0,10h5v-5
				c4.45,0,10.55,0,15,0c0-6.27,0-13.73,0-20c2.49,0,7.51,0,10,0c0,6.27,0,13.73,0,20c4.45,0,10.55,0,15,0v5h5c0-2.49,0-7.51,0-10
				C57.51,30,52.49,30,50,30z"/>
			<path d="M65,0C43.45,0,21.55,0,0,0c0,23.22,0,46.78,0,70c23.22,0,46.78,0,70,0c0-23.22,0-46.78,0-70H65z M65,10
				c0,18.19,0,36.81,0,55c-19.87,0-40.13,0-60,0C5,45.13,5,24.87,5,5c19.87,0,40.13,0,60,0V10z"/>
		</g>
	</symbol>
	<symbol id="arrow-down" viewBox="0 0 70 70">
		<path d="M40,60v5h5v5c2.49,0,7.51,0,10,0v-5h5v-5h5c0-2.49,0-7.51,0-10c-2.49,0-7.51,0-10,0c0-16.51,0-33.49,0-50
			c-2.49,0-7.51,0-10,0c0,16.51,0,33.49,0,50c-2.49,0-7.51,0-10,0c0,2.49,0,7.51,0,10H40z"/>
	</symbol>
	<symbol id="arrow-up" viewBox="0 0 70 70">
		<path d="M60,10V5h-5V0c-2.49,0-7.51,0-10,0v5h-5v5h-5c0,2.49,0,7.51,0,10c2.49,0,7.51,0,10,0c0,16.51,0,33.49,0,50
			c2.49,0,7.51,0,10,0c0-16.51,0-33.49,0-50c2.49,0,7.51,0,10,0c0-2.49,0-7.51,0-10H60z"/>
	</symbol>
	<symbol id="chevron-down" viewBox="0 0 70 70">
		<path d="M50,25c-11.44,0-23.56,0-35,0v5h5v5h5v5h5v5c2.49,0,7.51,0,10,0v-5h5v-5h5v-5h5v-5H50z"/>
	</symbol>
	<symbol id="chevron-up" viewBox="0 0 70 70">
		<path d="M20,45c11.44,0,23.56,0,35,0v-5h-5v-5h-5v-5h-5v-5c-2.49,0-7.51,0-10,0v5h-5v5h-5v5h-5v5H20z"/>
	</symbol>
	<symbol id="new" viewBox="0 0 70 70">
		<g>
			<path d="M5,60v5c2.49,0,7.51,0,10,0v-5C12.51,60,7.49,60,5,60z"/>
			<rect y="55" width="5" height="5"/>
			<path d="M55,45v-5h-5c0,8.02,0,16.98,0,25h5c0-4.45,0-10.55,0-15h5v-5H55z"/>
			<path d="M40,50c-2.49,0-7.51,0-10,0v-5h-5c0,6.27,0,13.73,0,20h5c0-2.49,0-7.51,0-10c2.49,0,7.51,0,10,0c0,2.49,0,7.51,0,10h5
				c0-6.27,0-13.73,0-20h-5V50z"/>
			<path d="M65,45v5h-5v5h5c0,2.49,0,7.51,0,10h5c0-8.02,0-16.98,0-25h-5V45z"/>
			<path d="M40,45v-5c-2.49,0-7.51,0-10,0v5C32.49,45,37.51,45,40,45z"/>
			<path d="M10,40H5v5c2.49,0,7.51,0,10,0c0,4.45,0,10.55,0,15h5c0-6.27,0-13.73,0-20C17.51,40,12.49,40,10,40z"/>
			<path d="M60,30h5v-5c-2.49,0-7.51,0-10,0v5H60z"/>
			<path d="M5,25c0-4.45,0-10.55,0-15c2.49,0,7.51,0,10,0V5C10.55,5,4.45,5,0,5c0,8.02,0,16.98,0,25c4.45,0,10.55,0,15,0v-5
				C12.51,25,7.49,25,5,25z"/>
			<rect x="65" y="20" width="5" height="5"/>
			<rect x="65" y="10" width="5" height="5"/>
			<path d="M50,15c0,2.49,0,7.51,0,10h5c0-4.45,0-10.55,0-15h-5V15z"/>
			<path d="M15,15c0,2.49,0,7.51,0,10h5c0-4.45,0-10.55,0-15h-5V15z"/>
			<path d="M60,5h-5v5c2.49,0,7.51,0,10,0V5H60z"/>
			<path d="M35,5c-2.49,0-7.51,0-10,0c0,8.02,0,16.98,0,25c6.27,0,13.73,0,20,0v-5c-4.45,0-10.55,0-15,0v-5c2.49,0,7.51,0,10,0v-5
				c-2.49,0-7.51,0-10,0v-5c4.45,0,10.55,0,15,0V5C42.51,5,37.49,5,35,5z"/>
		</g>
	</symbol>
	<symbol id="old" viewBox="0 0 70 70">
		<g>
			<path d="M60,65h5v-5c-2.49,0-7.51,0-10,0v5H60z"/>
			<path d="M5,60c0-4.45,0-10.55,0-15c2.49,0,7.51,0,10,0v-5c-4.45,0-10.55,0-15,0c0,8.02,0,16.98,0,25c4.45,0,10.55,0,15,0v-5
				C12.51,60,7.49,60,5,60z"/>
			<rect x="65" y="55" width="5" height="5"/>
			<rect x="65" y="45" width="5" height="5"/>
			<path d="M50,50c0,2.49,0,7.51,0,10h5c0-4.45,0-10.55,0-15h-5V50z"/>
			<path d="M15,50c0,2.49,0,7.51,0,10h5c0-4.45,0-10.55,0-15h-5V50z"/>
			<path d="M60,40h-5v5c2.49,0,7.51,0,10,0v-5H60z"/>
			<path d="M35,40c-2.49,0-7.51,0-10,0c0,8.02,0,16.98,0,25c6.27,0,13.73,0,20,0v-5c-4.45,0-10.55,0-15,0v-5c2.49,0,7.51,0,10,0v-5
				c-2.49,0-7.51,0-10,0v-5c4.45,0,10.55,0,15,0v-5C42.51,40,37.49,40,35,40z"/>
			<path d="M5,25v5c2.49,0,7.51,0,10,0v-5C12.51,25,7.49,25,5,25z"/>
			<rect y="20" width="5" height="5"/>
			<path d="M55,10V5h-5c0,8.02,0,16.98,0,25h5c0-4.45,0-10.55,0-15h5v-5H55z"/>
			<path d="M40,15c-2.49,0-7.51,0-10,0v-5h-5c0,6.27,0,13.73,0,20h5c0-2.49,0-7.51,0-10c2.49,0,7.51,0,10,0c0,2.49,0,7.51,0,10h5
				c0-6.27,0-13.73,0-20h-5V15z"/>
			<path d="M65,5c0,2.49,0,7.51,0,10h-5v5h5c0,2.49,0,7.51,0,10h5c0-8.02,0-16.98,0-25H65z"/>
			<path d="M40,10V5c-2.49,0-7.51,0-10,0v5C32.49,10,37.51,10,40,10z"/>
			<path d="M10,5H5v5c2.49,0,7.51,0,10,0c0,4.45,0,10.55,0,15h5c0-6.27,0-13.73,0-20C17.51,5,12.49,5,10,5z"/>
		</g>
	</symbol>
</svg>
