<svg xmlns="http://www.w3.org/2000/svg">
	<symbol id="badusb" viewBox="0 0 28 28">
		<path
			id="rect2"
			d="M 1 0 L 1 2 L 1 24 L 3 24 L 3 28 L 25 28 L 25 24 L 27 24 L 27 2 L 27 0 L 1 0 z M 3 2 L 25 2 L 25 22 L 3 22 L 3 2 z M 9 6 L 9 8 L 7 8 L 7 16 L 9 16 L 9 20 L 11 20 L 11 18 L 13 18 L 13 20 L 15 20 L 15 18 L 17 18 L 17 20 L 19 20 L 19 16 L 21 16 L 21 8 L 19 8 L 19 6 L 9 6 z M 9 10 L 11 10 L 11 12 L 13 12 L 13 14 L 11 14 L 9 14 L 9 10 z M 17 10 L 19 10 L 19 14 L 17 14 L 15 14 L 15 12 L 17 12 L 17 10 z " />
	</symbol>
	<symbol id="ibutton" viewBox="0 0 28 28">
		<path d="M 20 0 L 20 2 L 18 2 L 18 4 L 20 4 L 20 6 L 22 6 L 22 4 L 24 4 L 24 6 L 22 6 L 22 8 L 24 8 L 24 10 L 26 10 L 26 8 L 28 8 L 28 6 L 28 4 L 28 2 L 26 2 L 26 0 L 24 0 L 22 0 L 20 0 z M 24 10 L 22 10 L 22 12 L 24 12 L 24 10 z M 22 12 L 20 12 L 20 14 L 22 14 L 22 12 z M 20 14 L 18 14 L 18 16 L 18 18 L 18 20 L 18 22 L 20 22 L 20 20 L 20 18 L 20 16 L 20 14 z M 18 22 L 16 22 L 16 24 L 18 24 L 18 22 z M 16 24 L 14 24 L 14 26 L 16 26 L 16 24 z M 14 26 L 12 26 L 10 26 L 8 26 L 6 26 L 6 28 L 8 28 L 10 28 L 12 28 L 14 28 L 14 26 z M 6 26 L 6 24 L 4 24 L 4 26 L 6 26 z M 4 24 L 4 22 L 2 22 L 2 24 L 4 24 z M 2 22 L 2 20 L 2 18 L 2 16 L 2 14 L 0 14 L 0 16 L 0 18 L 0 20 L 0 22 L 2 22 z M 2 14 L 4 14 L 4 12 L 2 12 L 2 14 z M 4 12 L 6 12 L 6 10 L 4 10 L 4 12 z M 6 10 L 8 10 L 10 10 L 12 10 L 14 10 L 14 8 L 12 8 L 10 8 L 8 8 L 6 8 L 6 10 z M 14 8 L 16 8 L 16 6 L 14 6 L 14 8 z M 16 6 L 18 6 L 18 4 L 16 4 L 16 6 z M 18 6 L 18 8 L 20 8 L 20 6 L 18 6 z M 20 8 L 20 10 L 22 10 L 22 8 L 20 8 z M 20 10 L 18 10 L 18 12 L 20 12 L 20 10 z M 18 12 L 16 12 L 16 14 L 18 14 L 18 12 z M 16 12 L 16 10 L 14 10 L 14 12 L 16 12 z M 16 10 L 18 10 L 18 8 L 16 8 L 16 10 z M 8 12 L 8 14 L 10 14 L 12 14 L 12 12 L 10 12 L 8 12 z M 12 14 L 12 16 L 14 16 L 14 14 L 12 14 z M 14 16 L 14 18 L 14 20 L 16 20 L 16 18 L 16 16 L 14 16 z M 14 20 L 12 20 L 12 22 L 14 22 L 14 20 z M 12 22 L 10 22 L 8 22 L 8 24 L 10 24 L 12 24 L 12 22 z M 8 22 L 8 20 L 6 20 L 6 22 L 8 22 z M 6 20 L 6 18 L 6 16 L 4 16 L 4 18 L 4 20 L 6 20 z M 6 16 L 8 16 L 8 14 L 6 14 L 6 16 z "/>
	</symbol>
	<symbol id="infrared" viewBox="0 0 28 28">
		<path d="M24 26H22V24V22H20V20H18V18H16H14H12H10V20H8V22H6V24V26H4H2H0V28H2H4H6H8H10H12H14H16H18H20H22H24H26H28V26H26H24Z"/>
		<path d="M14 14H16H18V12H16H14H12H10V14H12H14Z"/>
		<path d="M22 8H20V10H22V8Z"/>
		<path d="M8 8H6V10H8V8Z"/>
		<path d="M12 8H14H16H18H20V6H18H16H14H12H10H8V8H10H12Z"/>
		<path d="M28 4H26V6H28V4Z"/>
		<path d="M2 4H0V6H2V4Z"/>
		<path d="M24 4H26V2H24H22V4H24Z"/>
		<path d="M2 2V4H4H6V2H4H2Z"/>
		<path d="M8 2H10H12H14H16H18H20H22V0H20H18H16H14H12H10H8H6V2H8Z"/>
	</symbol>
	<symbol id="nfc" viewBox="0 0 28 28">
		<path d="M 22 0 L 22 2 L 24 2 L 24 0 L 22 0 z M 24 2 L 24 4 L 24 6 L 26 6 L 26 4 L 26 2 L 24 2 z M 26 6 L 26 8 L 26 10 L 26 12 L 26 14 L 26 16 L 26 18 L 26 20 L 26 22 L 28 22 L 28 20 L 28 18 L 28 16 L 28 14 L 28 12 L 28 10 L 28 8 L 28 6 L 26 6 z M 26 22 L 24 22 L 24 24 L 24 26 L 26 26 L 26 24 L 26 22 z M 24 26 L 22 26 L 22 28 L 24 28 L 24 26 z M 18 4 L 18 6 L 18 8 L 20 8 L 20 6 L 20 4 L 18 4 z M 20 8 L 20 10 L 20 12 L 20 14 L 20 16 L 20 18 L 20 20 L 22 20 L 22 18 L 22 16 L 22 14 L 22 12 L 22 10 L 22 8 L 20 8 z M 20 20 L 18 20 L 18 22 L 18 24 L 20 24 L 20 22 L 20 20 z M 2 8 L 2 10 L 0 10 L 0 12 L 0 14 L 0 16 L 0 18 L 2 18 L 2 16 L 2 14 L 2 12 L 4 12 L 4 14 L 6 14 L 6 16 L 8 16 L 8 18 L 10 18 L 10 20 L 12 20 L 14 20 L 14 18 L 16 18 L 16 16 L 16 14 L 16 12 L 16 10 L 14 10 L 14 12 L 14 14 L 14 16 L 12 16 L 10 16 L 10 14 L 8 14 L 8 12 L 6 12 L 6 10 L 4 10 L 4 8 L 2 8 z M 14 10 L 14 8 L 12 8 L 12 10 L 14 10 z M 2 18 L 2 20 L 4 20 L 4 18 L 2 18 z "/>
	</symbol>
	<symbol id="rfid" viewBox="0 0 28 28">
		<path d="M 14 0 L 14 2 L 16 2 L 18 2 L 20 2 L 22 2 L 22 0 L 20 0 L 18 0 L 16 0 L 14 0 z M 22 2 L 22 4 L 24 4 L 24 2 L 22 2 z M 24 4 L 24 6 L 26 6 L 26 4 L 24 4 z M 26 6 L 26 8 L 26 10 L 26 12 L 26 14 L 28 14 L 28 12 L 28 10 L 28 8 L 28 6 L 26 6 z M 16 4 L 16 6 L 18 6 L 20 6 L 20 4 L 18 4 L 16 4 z M 20 6 L 20 8 L 22 8 L 22 6 L 20 6 z M 22 8 L 22 10 L 22 12 L 24 12 L 24 10 L 24 8 L 22 8 z M 2 8 L 2 10 L 4 10 L 6 10 L 8 10 L 8 8 L 6 8 L 4 8 L 2 8 z M 8 10 L 8 12 L 10 12 L 12 12 L 14 12 L 14 10 L 12 10 L 10 10 L 8 10 z M 14 12 L 14 14 L 16 14 L 18 14 L 18 12 L 16 12 L 14 12 z M 18 14 L 18 16 L 18 18 L 18 20 L 18 22 L 18 24 L 20 24 L 20 22 L 20 20 L 20 18 L 20 16 L 20 14 L 18 14 z M 18 24 L 16 24 L 16 26 L 18 26 L 18 24 z M 16 26 L 14 26 L 12 26 L 10 26 L 8 26 L 6 26 L 6 28 L 8 28 L 10 28 L 12 28 L 14 28 L 16 28 L 16 26 z M 6 26 L 6 24 L 6 22 L 4 22 L 4 24 L 4 26 L 6 26 z M 4 22 L 4 20 L 4 18 L 4 16 L 2 16 L 2 18 L 2 20 L 2 22 L 4 22 z M 2 16 L 2 14 L 2 12 L 2 10 L 0 10 L 0 12 L 0 14 L 0 16 L 2 16 z M 4 12 L 4 14 L 6 14 L 6 12 L 4 12 z M 10 16 L 10 18 L 12 18 L 14 18 L 14 16 L 12 16 L 10 16 z M 14 18 L 14 20 L 14 22 L 16 22 L 16 20 L 16 18 L 14 18 z M 14 22 L 12 22 L 10 22 L 10 24 L 12 24 L 14 24 L 14 22 z M 10 22 L 10 20 L 10 18 L 8 18 L 8 20 L 8 22 L 10 22 z " />
	</symbol>
	<symbol id="subghz" viewBox="0 0 28 28">
		<path d="M 4 0 L 4 2 L 6 2 L 6 0 L 4 0 z M 4 2 L 2 2 L 2 4 L 4 4 L 4 2 z M 2 4 L 0 4 L 0 6 L 0 8 L 0 10 L 0 12 L 0 14 L 0 16 L 2 16 L 2 14 L 2 12 L 2 10 L 2 8 L 2 6 L 2 4 z M 2 16 L 2 18 L 4 18 L 4 16 L 2 16 z M 4 18 L 4 20 L 6 20 L 6 18 L 4 18 z M 22 0 L 22 2 L 24 2 L 24 0 L 22 0 z M 24 2 L 24 4 L 26 4 L 26 2 L 24 2 z M 26 4 L 26 6 L 26 8 L 26 10 L 26 12 L 26 14 L 26 16 L 28 16 L 28 14 L 28 12 L 28 10 L 28 8 L 28 6 L 28 4 L 26 4 z M 26 16 L 24 16 L 24 18 L 26 18 L 26 16 z M 24 18 L 22 18 L 22 20 L 24 20 L 24 18 z M 6 4 L 6 6 L 8 6 L 8 4 L 6 4 z M 6 6 L 4 6 L 4 8 L 4 10 L 4 12 L 4 14 L 6 14 L 6 12 L 6 10 L 6 8 L 6 6 z M 6 14 L 6 16 L 8 16 L 8 14 L 6 14 z M 20 4 L 20 6 L 22 6 L 22 4 L 20 4 z M 22 6 L 22 8 L 22 10 L 22 12 L 22 14 L 24 14 L 24 12 L 24 10 L 24 8 L 24 6 L 22 6 z M 22 14 L 20 14 L 20 16 L 22 16 L 22 14 z M 8 8 L 8 10 L 8 12 L 10 12 L 10 10 L 10 8 L 8 8 z M 12 8 L 12 10 L 12 12 L 14 12 L 16 12 L 16 10 L 16 8 L 14 8 L 12 8 z M 18 8 L 18 10 L 18 12 L 20 12 L 20 10 L 20 8 L 18 8 z M 12 14 L 12 16 L 12 18 L 12 20 L 12 22 L 12 24 L 12 26 L 12 28 L 14 28 L 16 28 L 16 26 L 16 24 L 16 22 L 16 20 L 16 18 L 16 16 L 16 14 L 14 14 L 12 14 z "/>
	</symbol>
	<symbol id="u2f" viewBox="0 0 28 28">
		<path
			id="rect2"
			d="M 8,1 V 3 H 20 V 1 Z M 20,3 V 9 H 8 V 3 H 6 V 9 H 4 v 2 H 24 V 9 H 22 V 3 Z m 4,8 V 24 H 4 V 11 H 2 v 13 2 H 26 V 24 11 Z m -12,3 v 4 h 1 v 4 h 2 v -4 h 1 v -4 z"/>
	</symbol>
</svg>
