<svg width="28" height="28" viewBox="0 0 28 28" fill="none" xmlns="http://www.w3.org/2000/svg">
<path d="M24 26H22V24V22H20V20H18V18H16H14H12H10V20H8V22H6V24V26H4H2H0V28H2H4H6H8H10H12H14H16H18H20H22H24H26H28V26H26H24Z" fill="#000000"/>
<path d="M14 14H16H18V12H16H14H12H10V14H12H14Z" fill="#000000"/>
<path d="M22 8H20V10H22V8Z" fill="#000000"/>
<path d="M8 8H6V10H8V8Z" fill="#000000"/>
<path d="M12 8H14H16H18H20V6H18H16H14H12H10H8V8H10H12Z" fill="#000000"/>
<path d="M28 4H26V6H28V4Z" fill="#000000"/>
<path d="M2 4H0V6H2V4Z" fill="#000000"/>
<path d="M24 4H26V2H24H22V4H24Z" fill="#000000"/>
<path d="M2 2V4H4H6V2H4H2Z" fill="#000000"/>
<path d="M8 2H10H12H14H16H18H20H22V0H20H18H16H14H12H10H8H6V2H8Z" fill="#000000"/>
</svg>
