<?xml version="1.0" encoding="utf-8"?>
<!-- Generator: Adobe Illustrator 27.0.1, SVG Export Plug-In . SVG Version: 6.00 Build 0)  -->
<svg version="1.1" id="Layer_1" xmlns="http://www.w3.org/2000/svg" xmlns:xlink="http://www.w3.org/1999/xlink" x="0px" y="0px"
	 viewBox="0 0 70 70" style="enable-background:new 0 0 70 70;" xml:space="preserve">
<g>
	<path d="M35,60v5h5c0-4.45,0-10.55,0-15h-5C35,52.49,35,57.51,35,60z"/>
	<path d="M55,50v5c2.49,0,7.51,0,10,0v-5C62.51,50,57.49,50,55,50z"/>
	<path d="M5,50v5c2.49,0,7.51,0,10,0v-5C12.51,50,7.49,50,5,50z"/>
	<rect x="50" y="45" width="5" height="5"/>
	<rect x="15" y="45" width="5" height="5"/>
	<rect x="45" y="40" width="5" height="5"/>
	<rect x="20" y="40" width="5" height="5"/>
	<path d="M5,40c0-6.27,0-13.73,0-20H0c0,9.74,0,20.26,0,30h5C5,47.51,5,42.49,5,40z"/>
	<path d="M40,35c-4.45,0-10.55,0-15,0v5h5c0,2.49,0,7.51,0,10h5c0-2.49,0-7.51,0-10c2.49,0,7.51,0,10,0v-5H40z"/>
	<rect x="50" y="30" width="5" height="5"/>
	<rect x="55" y="25" width="5" height="5"/>
	<rect x="45" y="25" width="5" height="5"/>
	<path d="M65,20c0,9.74,0,20.26,0,30h5c0-9.74,0-20.26,0-30H65z"/>
	<rect x="50" y="20" width="5" height="5"/>
	<polygon points="20,20 15,20 15,25 10,25 10,30 15,30 15,35 20,35 20,30 25,30 25,25 20,25 	"/>
	<rect x="60" y="15" width="5" height="5"/>
	<rect x="5" y="15" width="5" height="5"/>
	<path d="M20,15c13.14,0,26.86,0,40,0v-5h-5V5c-2.49,0-7.51,0-10,0v5c-6.27,0-13.73,0-20,0V5c-2.49,0-7.51,0-10,0v5h-5v5
		C12.49,15,17.51,15,20,15z"/>
</g>
</svg>
