<?xml version="1.0" encoding="utf-8"?>
<!-- Generator: Adobe Illustrator 27.0.1, SVG Export Plug-In . SVG Version: 6.00 Build 0)  -->
<svg version="1.1" id="Layer_1" xmlns="http://www.w3.org/2000/svg" xmlns:xlink="http://www.w3.org/1999/xlink" x="0px" y="0px"
	 viewBox="0 0 70 70" style="enable-background:new 0 0 70 70;" xml:space="preserve">
<g>
	<rect x="50" y="60" width="5" height="5"/>
	<rect x="30" y="60" width="5" height="5"/>
	<rect x="10" y="60" width="5" height="5"/>
	<path d="M60,50c-19.87,0-40.13,0-60,0c0,6.27,0,13.73,0,20h5c0-4.45,0-10.55,0-15c4.45,0,10.55,0,15,0c0,4.45,0,10.55,0,15h5
		c0-4.45,0-10.55,0-15c4.45,0,10.55,0,15,0c0,4.45,0,10.55,0,15h5c0-4.45,0-10.55,0-15c4.45,0,10.55,0,15,0c0,4.45,0,10.55,0,15h5
		c0-6.27,0-13.73,0-20H60z"/>
	<path d="M50,35c0,2.49,0,7.51,0,10h5c0-4.45,0-10.55,0-15h5c0-6.27,0-13.73,0-20h-5c0-2.49,0-7.51,0-10h-5c0,2.49,0,7.51,0,10h-5
		c0,6.27,0,13.73,0,20h5V35z"/>
	<path d="M30,35c0,2.49,0,7.51,0,10h5c0-4.45,0-10.55,0-15h5c0-6.27,0-13.73,0-20h-5c0-2.49,0-7.51,0-10h-5c0,2.49,0,7.51,0,10h-5
		c0,6.27,0,13.73,0,20h5V35z"/>
	<path d="M10,35c0,2.49,0,7.51,0,10h5c0-4.45,0-10.55,0-15h5c0-6.27,0-13.73,0-20h-5c0-2.49,0-7.51,0-10h-5c0,2.49,0,7.51,0,10H5
		c0,6.27,0,13.73,0,20h5V35z"/>
</g>
</svg>
