<?xml version="1.0" encoding="utf-8"?>
<!-- Generator: Adobe Illustrator 27.0.1, SVG Export Plug-In . SVG Version: 6.00 Build 0)  -->
<svg version="1.1" id="Layer_1" xmlns="http://www.w3.org/2000/svg" xmlns:xlink="http://www.w3.org/1999/xlink" x="0px" y="0px"
	 viewBox="0 0 70 70" style="enable-background:new 0 0 70 70;" xml:space="preserve">
<g>
	<path d="M25,65c-2.49,0-7.51,0-10,0v5c6.27,0,13.73,0,20,0v-5C32.51,65,27.49,65,25,65z"/>
	<rect x="35" y="60" width="5" height="5"/>
	<rect x="10" y="60" width="5" height="5"/>
	<rect x="40" y="55" width="5" height="5"/>
	<path d="M20,55v5c2.49,0,7.51,0,10,0v-5C27.51,55,22.49,55,20,55z"/>
	<rect x="5" y="55" width="5" height="5"/>
	<rect x="30" y="50" width="5" height="5"/>
	<rect x="15" y="50" width="5" height="5"/>
	<path d="M5,45c0-2.49,0-7.51,0-10H0c0,6.27,0,13.73,0,20h5C5,52.51,5,47.49,5,45z"/>
	<path d="M35,45v5h5c0-2.49,0-7.51,0-10h-5V45z"/>
	<path d="M15,40h-5c0,2.49,0,7.51,0,10h5C15,47.51,15,42.49,15,40z"/>
	<path d="M45,40c0,4.45,0,10.55,0,15h5c0-6.27,0-13.73,0-20h-5V40z"/>
	<rect x="30" y="35" width="5" height="5"/>
	<rect x="15" y="35" width="5" height="5"/>
	<rect x="50" y="30" width="5" height="5"/>
	<rect x="40" y="30" width="5" height="5"/>
	<path d="M30,35v-5c-2.49,0-7.51,0-10,0v5C22.49,35,27.51,35,30,35z"/>
	<rect x="5" y="30" width="5" height="5"/>
	<rect x="55" y="25" width="5" height="5"/>
	<rect x="45" y="25" width="5" height="5"/>
	<rect x="35" y="25" width="5" height="5"/>
	<rect x="10" y="25" width="5" height="5"/>
	<rect x="50" y="20" width="5" height="5"/>
	<rect x="40" y="20" width="5" height="5"/>
	<path d="M25,25c2.49,0,7.51,0,10,0v-5c-6.27,0-13.73,0-20,0v5C17.49,25,22.51,25,25,25z"/>
	<rect x="45" y="15" width="5" height="5"/>
	<rect x="35" y="15" width="5" height="5"/>
	<rect x="40" y="10" width="5" height="5"/>
	<path d="M65,5V0c-4.45,0-10.55,0-15,0v5h-5v5h5v5h5v-5h5v5h-5v5h5v5h5v-5h5c0-4.45,0-10.55,0-15H65z"/>
</g>
</svg>
