<?xml version="1.0" encoding="utf-8"?>
<!-- Generator: Adobe Illustrator 27.0.1, SVG Export Plug-In . SVG Version: 6.00 Build 0)  -->
<svg version="1.1" id="Layer_1" xmlns="http://www.w3.org/2000/svg" xmlns:xlink="http://www.w3.org/1999/xlink" x="0px" y="0px"
	 viewBox="0 0 70 70" style="enable-background:new 0 0 70 70;" xml:space="preserve">
<g>
	<path d="M30,55v5c2.49,0,7.51,0,10,0v-5C37.51,55,32.49,55,30,55z"/>
	<rect x="40" y="50" width="5" height="5"/>
	<rect x="25" y="50" width="5" height="5"/>
	<rect x="45" y="45" width="5" height="5"/>
	<rect x="20" y="45" width="5" height="5"/>
	<rect x="50" y="40" width="5" height="5"/>
	<rect x="15" y="40" width="5" height="5"/>
	<path d="M50,30h-5c0-6.27,0-13.73,0-20c-6.27,0-13.73,0-20,0c0,6.27,0,13.73,0,20c-4.45,0-10.55,0-15,0c0,2.49,0,7.51,0,10h5v-5
		c4.45,0,10.55,0,15,0c0-6.27,0-13.73,0-20c2.49,0,7.51,0,10,0c0,6.27,0,13.73,0,20c4.45,0,10.55,0,15,0v5h5c0-2.49,0-7.51,0-10
		C57.51,30,52.49,30,50,30z"/>
	<path d="M65,0C43.45,0,21.55,0,0,0c0,23.22,0,46.78,0,70c23.22,0,46.78,0,70,0c0-23.22,0-46.78,0-70H65z M65,10
		c0,18.19,0,36.81,0,55c-19.87,0-40.13,0-60,0C5,45.13,5,24.87,5,5c19.87,0,40.13,0,60,0V10z"/>
</g>
</svg>
