<?xml version="1.0" encoding="utf-8"?>
<!-- Generator: Adobe Illustrator 27.0.1, SVG Export Plug-In . SVG Version: 6.00 Build 0)  -->
<svg version="1.1" id="Layer_1" xmlns="http://www.w3.org/2000/svg" xmlns:xlink="http://www.w3.org/1999/xlink" x="0px" y="0px"
	 viewBox="0 0 70 70" style="enable-background:new 0 0 70 70;" xml:space="preserve">
<g>
	<path d="M60,65h-5c0-2.49,0-7.51,0-10h-5v-5h-5v-5c-6.27,0-13.73,0-20,0v5h-5v5h-5c0,2.49,0,7.51,0,10c-4.45,0-10.55,0-15,0v5
		c23.22,0,46.78,0,70,0v-5C67.51,65,62.49,65,60,65z"/>
	<path d="M35,35c2.49,0,7.51,0,10,0v-5c-6.27,0-13.73,0-20,0v5C27.49,35,32.51,35,35,35z"/>
	<rect x="50" y="20" width="5" height="5"/>
	<rect x="15" y="20" width="5" height="5"/>
	<path d="M30,20c6.27,0,13.73,0,20,0v-5c-9.74,0-20.26,0-30,0v5C22.49,20,27.51,20,30,20z"/>
	<rect x="65" y="10" width="5" height="5"/>
	<rect y="10" width="5" height="5"/>
	<path d="M60,10h5V5c-2.49,0-7.51,0-10,0v5H60z"/>
	<path d="M5,5v5c2.49,0,7.51,0,10,0V5C12.51,5,7.49,5,5,5z"/>
	<path d="M20,5c11.44,0,23.56,0,35,0V0C41.86,0,28.14,0,15,0v5H20z"/>
</g>
</svg>
