<?xml version="1.0" encoding="utf-8"?>
<!-- Generator: Adobe Illustrator 27.0.1, SVG Export Plug-In . SVG Version: 6.00 Build 0)  -->
<svg version="1.1" id="Layer_1" xmlns="http://www.w3.org/2000/svg" xmlns:xlink="http://www.w3.org/1999/xlink" x="0px" y="0px"
	 viewBox="0 0 70 70" style="enable-background:new 0 0 70 70;" xml:space="preserve">
<g>
	<path d="M40,20h-5v5c4.45,0,10.55,0,15,0v-5C47.51,20,42.49,20,40,20z"/>
	<path d="M60,0c-2.49,0-7.51,0-10,0v5c-4.45,0-10.55,0-15,0v5c-4.45,0-10.55,0-15,0c0,13.14,0,26.86,0,40c-2.49,0-7.51,0-10,0v5H5
		c0,2.49,0,7.51,0,10h5v5c2.49,0,7.51,0,10,0v-5h5c0-11.44,0-23.56,0-35c2.49,0,7.51,0,10,0v-5c-2.49,0-7.51,0-10,0v-5
		c2.49,0,7.51,0,10,0v-5c4.45,0,10.55,0,15,0v-5c2.49,0,7.51,0,10,0v5c-2.49,0-7.51,0-10,0v5c2.49,0,7.51,0,10,0
		c0,6.27,0,13.73,0,20c-2.49,0-7.51,0-10,0v5h-5c0,2.49,0,7.51,0,10h5v5c2.49,0,7.51,0,10,0v-5h5c0-18.19,0-36.81,0-55H60z"/>
</g>
</svg>
