<?xml version="1.0" encoding="utf-8"?>
<!-- Generator: Adobe Illustrator 27.0.1, SVG Export Plug-In . SVG Version: 6.00 Build 0)  -->
<svg version="1.1" id="Layer_1" xmlns="http://www.w3.org/2000/svg" xmlns:xlink="http://www.w3.org/1999/xlink" x="0px" y="0px"
	 viewBox="0 0 70 70" style="enable-background:new 0 0 70 70;" xml:space="preserve">
<g>
	<path d="M5,60v5c2.49,0,7.51,0,10,0v-5C12.51,60,7.49,60,5,60z"/>
	<rect y="55" width="5" height="5"/>
	<path d="M55,45v-5h-5c0,8.02,0,16.98,0,25h5c0-4.45,0-10.55,0-15h5v-5H55z"/>
	<path d="M40,50c-2.49,0-7.51,0-10,0v-5h-5c0,6.27,0,13.73,0,20h5c0-2.49,0-7.51,0-10c2.49,0,7.51,0,10,0c0,2.49,0,7.51,0,10h5
		c0-6.27,0-13.73,0-20h-5V50z"/>
	<path d="M65,45v5h-5v5h5c0,2.49,0,7.51,0,10h5c0-8.02,0-16.98,0-25h-5V45z"/>
	<path d="M40,45v-5c-2.49,0-7.51,0-10,0v5C32.49,45,37.51,45,40,45z"/>
	<path d="M10,40H5v5c2.49,0,7.51,0,10,0c0,4.45,0,10.55,0,15h5c0-6.27,0-13.73,0-20C17.51,40,12.49,40,10,40z"/>
	<path d="M60,30h5v-5c-2.49,0-7.51,0-10,0v5H60z"/>
	<path d="M5,25c0-4.45,0-10.55,0-15c2.49,0,7.51,0,10,0V5C10.55,5,4.45,5,0,5c0,8.02,0,16.98,0,25c4.45,0,10.55,0,15,0v-5
		C12.51,25,7.49,25,5,25z"/>
	<rect x="65" y="20" width="5" height="5"/>
	<rect x="65" y="10" width="5" height="5"/>
	<path d="M50,15c0,2.49,0,7.51,0,10h5c0-4.45,0-10.55,0-15h-5V15z"/>
	<path d="M15,15c0,2.49,0,7.51,0,10h5c0-4.45,0-10.55,0-15h-5V15z"/>
	<path d="M60,5h-5v5c2.49,0,7.51,0,10,0V5H60z"/>
	<path d="M35,5c-2.49,0-7.51,0-10,0c0,8.02,0,16.98,0,25c6.27,0,13.73,0,20,0v-5c-4.45,0-10.55,0-15,0v-5c2.49,0,7.51,0,10,0v-5
		c-2.49,0-7.51,0-10,0v-5c4.45,0,10.55,0,15,0V5C42.51,5,37.49,5,35,5z"/>
</g>
</svg>
