<?xml version="1.0" encoding="utf-8"?>
<!-- Generator: Adobe Illustrator 27.0.1, SVG Export Plug-In . SVG Version: 6.00 Build 0)  -->
<svg version="1.1" id="Layer_1" xmlns="http://www.w3.org/2000/svg" xmlns:xlink="http://www.w3.org/1999/xlink" x="0px" y="0px"
	 viewBox="0 0 70 70" style="enable-background:new 0 0 70 70;" xml:space="preserve">
<g>
	<rect x="55" y="65" width="5" height="5"/>
	<path d="M60,60v5h5c0-2.49,0-7.51,0-10h-5V60z"/>
	<path d="M45,55v5h5c0-2.49,0-7.51,0-10h-5V55z"/>
	<path d="M55,45c0-8.02,0-16.98,0-25h-5c0,9.74,0,20.26,0,30h5V45z"/>
	<rect x="5" y="45" width="5" height="5"/>
	<path d="M35,30c0,2.49,0,7.51,0,10c-2.49,0-7.51,0-10,0v-5h-5v-5h-5v-5h-5v-5H5v5H0c0,6.27,0,13.73,0,20h5c0-4.45,0-10.55,0-15h5v5
		h5v5h5v5h5v5c2.49,0,7.51,0,10,0v-5h5c0-6.27,0-13.73,0-20h-5V30z"/>
	<rect x="30" y="20" width="5" height="5"/>
	<path d="M65,15c0,13.14,0,26.86,0,40h5c0-13.14,0-26.86,0-40H65z"/>
	<path d="M50,10h-5c0,2.49,0,7.51,0,10h5C50,17.51,50,12.49,50,10z"/>
	<path d="M65,5h-5c0,2.49,0,7.51,0,10h5C65,12.51,65,7.49,65,5z"/>
	<rect x="55" width="5" height="5"/>
</g>
</svg>
