<?xml version="1.0" encoding="utf-8"?>
<!-- Generator: Adobe Illustrator 27.0.1, SVG Export Plug-In . SVG Version: 6.00 Build 0)  -->
<svg version="1.1" id="Layer_1" xmlns="http://www.w3.org/2000/svg" xmlns:xlink="http://www.w3.org/1999/xlink" x="0px" y="0px"
	 viewBox="0 0 70 70" style="enable-background:new 0 0 70 70;" xml:space="preserve">
<g>
	<path d="M30,65c-4.45,0-10.55,0-15,0v5c8.02,0,16.98,0,25,0v-5C37.51,65,32.49,65,30,65z"/>
	<rect x="40" y="60" width="5" height="5"/>
	<path d="M25,55v5c2.49,0,7.51,0,10,0v-5C32.51,55,27.49,55,25,55z"/>
	<path d="M15,55h-5c0,2.49,0,7.51,0,10h5C15,62.51,15,57.49,15,55z"/>
	<path d="M35,50v5h5c0-2.49,0-7.51,0-10h-5V50z"/>
	<path d="M25,45h-5c0,2.49,0,7.51,0,10h5C25,52.51,25,47.49,25,45z"/>
	<path d="M10,45v-5H5c0,4.45,0,10.55,0,15h5C10,52.51,10,47.49,10,45z"/>
	<path d="M35,45v-5c-2.49,0-7.51,0-10,0v5C27.49,45,32.51,45,35,45z"/>
	<path d="M45,40c0,6.27,0,13.73,0,20h5c0-8.02,0-16.98,0-25h-5V40z"/>
	<path d="M40,35h5v-5c-2.49,0-7.51,0-10,0v5H40z"/>
	<rect x="10" y="30" width="5" height="5"/>
	<path d="M5,30v-5H0c0,4.45,0,10.55,0,15h5C5,37.51,5,32.49,5,30z"/>
	<path d="M25,30c2.49,0,7.51,0,10,0v-5c-4.45,0-10.55,0-15,0v5H25z"/>
	<path d="M55,25v5h5c0-2.49,0-7.51,0-10h-5V25z"/>
	<path d="M15,25h5v-5c-4.45,0-10.55,0-15,0v5C7.49,25,12.51,25,15,25z"/>
	<path d="M65,15c0,6.27,0,13.73,0,20h5c0-6.27,0-13.73,0-20H65z"/>
	<rect x="50" y="15" width="5" height="5"/>
	<rect x="60" y="10" width="5" height="5"/>
	<path d="M45,10h-5v5c2.49,0,7.51,0,10,0v-5H45z"/>
	<rect x="55" y="5" width="5" height="5"/>
	<path d="M50,0c-4.45,0-10.55,0-15,0v5c6.27,0,13.73,0,20,0V0H50z"/>
</g>
</svg>
