<?xml version="1.0" encoding="utf-8"?>
<!-- Generator: Adobe Illustrator 27.0.1, SVG Export Plug-In . SVG Version: 6.00 Build 0)  -->
<svg version="1.1" id="Layer_1" xmlns="http://www.w3.org/2000/svg" xmlns:xlink="http://www.w3.org/1999/xlink" x="0px" y="0px"
	 viewBox="0 0 70 70" style="enable-background:new 0 0 70 70;" xml:space="preserve">
<g>
	<rect x="55" y="45" width="5" height="5"/>
	<rect x="10" y="45" width="5" height="5"/>
	<rect x="60" y="40" width="5" height="5"/>
	<rect x="5" y="40" width="5" height="5"/>
	<rect x="50" y="35" width="5" height="5"/>
	<path d="M30,35c0,11.44,0,23.56,0,35c2.49,0,7.51,0,10,0c0-11.44,0-23.56,0-35C37.51,35,32.49,35,30,35z"/>
	<rect x="15" y="35" width="5" height="5"/>
	<path d="M60,30c0-4.45,0-10.55,0-15h-5c0,6.27,0,13.73,0,20h5V30z"/>
	<path d="M5,30c0-6.27,0-13.73,0-20H0c0,9.74,0,20.26,0,30h5C5,37.51,5,32.49,5,30z"/>
	<path d="M50,25v-5h-5c0,2.49,0,7.51,0,10h5V25z"/>
	<path d="M15,25c0-2.49,0-7.51,0-10h-5c0,6.27,0,13.73,0,20h5C15,32.51,15,27.49,15,25z"/>
	<path d="M30,20c0,2.49,0,7.51,0,10c2.49,0,7.51,0,10,0c0-2.49,0-7.51,0-10C37.51,20,32.49,20,30,20z"/>
	<path d="M20,25v5h5c0-2.49,0-7.51,0-10h-5V25z"/>
	<path d="M65,10c0,9.74,0,20.26,0,30h5c0-9.74,0-20.26,0-30H65z"/>
	<rect x="50" y="10" width="5" height="5"/>
	<rect x="15" y="10" width="5" height="5"/>
	<rect x="60" y="5" width="5" height="5"/>
	<rect x="5" y="5" width="5" height="5"/>
	<rect x="55" width="5" height="5"/>
	<rect x="10" width="5" height="5"/>
</g>
</svg>
