<?xml version="1.0" encoding="utf-8"?>
<!-- Generator: Adobe Illustrator 27.0.1, SVG Export Plug-In . SVG Version: 6.00 Build 0)  -->
<svg version="1.1" id="Layer_1" xmlns="http://www.w3.org/2000/svg" xmlns:xlink="http://www.w3.org/1999/xlink" x="0px" y="0px"
	 viewBox="0 0 70 70" style="enable-background:new 0 0 70 70;" xml:space="preserve">
<g>
	<path d="M65,20c-4.45,0-10.55,0-15,0c0-2.49,0-7.51,0-10h-5c0,2.49,0,7.51,0,10c-6.27,0-13.73,0-20,0c0-2.49,0-7.51,0-10h-5
		c0,2.49,0,7.51,0,10c-6.27,0-13.73,0-20,0c0,16.51,0,33.49,0,50c23.22,0,46.78,0,70,0c0-16.51,0-33.49,0-50H65z M65,50
		c0,4.45,0,10.55,0,15c-19.87,0-40.13,0-60,0c0-6.27,0-13.73,0-20c2.49,0,7.51,0,10,0v5c2.49,0,7.51,0,10,0v-5c6.27,0,13.73,0,20,0
		v5c2.49,0,7.51,0,10,0v-5c2.49,0,7.51,0,10,0V50z M65,30c0,2.49,0,7.51,0,10c-2.49,0-7.51,0-10,0v-5c-2.49,0-7.51,0-10,0v5
		c-6.27,0-13.73,0-20,0v-5c-2.49,0-7.51,0-10,0v5c-2.49,0-7.51,0-10,0c0-4.45,0-10.55,0-15c19.87,0,40.13,0,60,0V30z"/>
	<path d="M35,10c2.49,0,7.51,0,10,0V5c-6.27,0-13.73,0-20,0v5C27.49,10,32.51,10,35,10z"/>
</g>
</svg>
