<?xml version="1.0" encoding="utf-8"?>
<!-- Generator: Adobe Illustrator 27.0.1, SVG Export Plug-In . SVG Version: 6.00 Build 0)  -->
<svg version="1.1" id="Layer_1" xmlns="http://www.w3.org/2000/svg" xmlns:xlink="http://www.w3.org/1999/xlink" x="0px" y="0px"
	 viewBox="0 0 70 70" style="enable-background:new 0 0 70 70;" xml:space="preserve">
<g>
	<path d="M48,15c-8.02,0-16.98,0-25,0v5h-5c0,6.27,0,13.73,0,20h5c0,2.49,0,7.51,0,10h5v-5h5v5h5v-5h5v5h5c0-2.49,0-7.51,0-10h5
		c0-6.27,0-13.73,0-20h-5V15z M23,30v-5h5v5h5v5c-2.49,0-7.51,0-10,0V30z M48,30v5c-2.49,0-7.51,0-10,0v-5h5v-5h5V30z"/>
	<path d="M63,0C43.13,0,22.87,0,3,0c0,19.87,0,40.13,0,60h5c0,2.49,0,7.51,0,10c18.19,0,36.81,0,55,0c0-2.49,0-7.51,0-10h5
		c0-19.87,0-40.13,0-60H63z M63,10c0,14.83,0,30.17,0,45c-18.19,0-36.81,0-55,0C8,38.49,8,21.51,8,5c18.19,0,36.81,0,55,0V10z"/>
</g>
</svg>
